<?xml version="1.0" encoding="utf-8" standalone="no"?>
<!DOCTYPE svg PUBLIC "-//W3C//DTD SVG 1.1//EN"
  "http://www.w3.org/Graphics/SVG/1.1/DTD/svg11.dtd">
<svg xmlns:xlink="http://www.w3.org/1999/xlink" width="192pt" height="288pt" viewBox="0 0 192 288" xmlns="http://www.w3.org/2000/svg" version="1.1">
 <metadata>
  <rdf:RDF xmlns:dc="http://purl.org/dc/elements/1.1/" xmlns:cc="http://creativecommons.org/ns#" xmlns:rdf="http://www.w3.org/1999/02/22-rdf-syntax-ns#">
   <cc:Work>
    <dc:type rdf:resource="http://purl.org/dc/dcmitype/StillImage"/>
    <dc:date>2025-01-21T19:00:56.725106</dc:date>
    <dc:format>image/svg+xml</dc:format>
    <dc:creator>
     <cc:Agent>
      <dc:title>Matplotlib v3.9.0, https://matplotlib.org/</dc:title>
     </cc:Agent>
    </dc:creator>
   </cc:Work>
  </rdf:RDF>
 </metadata>
 <defs>
  <style type="text/css">*{stroke-linejoin: round; stroke-linecap: butt}</style>
 </defs>
 <g id="figure_1">
  <g id="patch_1">
   <path d="M 0 288 
L 192 288 
L 192 0 
L 0 0 
z
" style="fill: #ffffff"/>
  </g>
  <g id="axes_1">
   <g id="patch_2">
    <path d="M 10.8 267.2 
L 181.2 267.2 
L 181.2 10.8 
L 10.8 10.8 
z
" style="fill: #ffffff"/>
   </g>
   <g id="PolyCollection_1">
    <defs>
     <path id="mb4d14120ad" d="M 67.6 -20.8 
L 67.6 -264.990476 
L 67.656857 -264.988519 
L 67.713714 -264.982647 
L 67.770571 -264.97286 
L 67.827427 -264.959159 
L 67.884284 -264.941545 
L 67.941141 -264.920019 
L 67.997998 -264.894581 
L 68.054855 -264.865232 
L 68.111712 -264.831975 
L 68.168569 -264.794811 
L 68.225425 -264.753741 
L 68.282282 -264.708768 
L 68.339139 -264.659893 
L 68.395996 -264.60712 
L 68.452853 -264.55045 
L 68.50971 -264.489886 
L 68.566567 -264.425432 
L 68.623423 -264.35709 
L 68.68028 -264.284863 
L 68.737137 -264.208755 
L 68.793994 -264.128771 
L 68.850851 -264.044912 
L 68.907708 -263.957185 
L 68.964565 -263.865592 
L 69.021421 -263.770138 
L 69.078278 -263.670828 
L 69.135135 -263.567666 
L 69.191992 -263.460658 
L 69.248849 -263.349808 
L 69.305706 -263.235123 
L 69.362563 -263.116606 
L 69.419419 -262.994265 
L 69.476276 -262.868105 
L 69.533133 -262.738131 
L 69.58999 -262.604351 
L 69.646847 -262.46677 
L 69.703704 -262.325395 
L 69.760561 -262.180233 
L 69.817417 -262.031291 
L 69.874274 -261.878576 
L 69.931131 -261.722095 
L 69.987988 -261.561856 
L 70.044845 -261.397866 
L 70.101702 -261.230133 
L 70.158559 -261.058665 
L 70.215415 -260.88347 
L 70.272272 -260.704557 
L 70.329129 -260.521934 
L 70.385986 -260.335609 
L 70.442843 -260.145592 
L 70.4997 -259.951892 
L 70.556557 -259.754518 
L 70.613413 -259.553479 
L 70.67027 -259.348784 
L 70.727127 -259.140444 
L 70.783984 -258.928468 
L 70.840841 -258.712866 
L 70.897698 -258.493649 
L 70.954555 -258.270827 
L 71.011411 -258.04441 
L 71.068268 -257.814409 
L 71.125125 -257.580835 
L 71.181982 -257.343698 
L 71.238839 -257.103011 
L 71.295696 -256.858784 
L 71.352553 -256.611029 
L 71.409409 -256.359758 
L 71.466266 -256.104981 
L 71.523123 -255.846712 
L 71.57998 -255.584963 
L 71.636837 -255.319745 
L 71.693694 -255.051071 
L 71.750551 -254.778953 
L 71.807407 -254.503405 
L 71.864264 -254.22444 
L 71.921121 -253.942069 
L 71.977978 -253.656307 
L 72.034835 -253.367166 
L 72.091692 -253.074661 
L 72.148549 -252.778804 
L 72.205405 -252.47961 
L 72.262262 -252.177093 
L 72.319119 -251.871265 
L 72.375976 -251.562143 
L 72.432833 -251.249739 
L 72.48969 -250.934069 
L 72.546547 -250.615147 
L 72.603403 -250.292987 
L 72.66026 -249.967605 
L 72.717117 -249.639015 
L 72.773974 -249.307233 
L 72.830831 -248.972274 
L 72.887688 -248.634154 
L 72.944545 -248.292887 
L 73.001401 -247.94849 
L 73.058258 -247.600978 
L 73.115115 -247.250367 
L 73.171972 -246.896673 
L 73.228829 -246.539913 
L 73.285686 -246.180102 
L 73.342543 -245.817258 
L 73.399399 -245.451395 
L 73.456256 -245.082532 
L 73.513113 -244.710685 
L 73.56997 -244.335871 
L 73.626827 -243.958106 
L 73.683684 -243.577408 
L 73.740541 -243.193794 
L 73.797397 -242.807281 
L 73.854254 -242.417887 
L 73.911111 -242.02563 
L 73.967968 -241.630526 
L 74.024825 -241.232594 
L 74.081682 -240.831851 
L 74.138539 -240.428316 
L 74.195395 -240.022006 
L 74.252252 -239.61294 
L 74.309109 -239.201135 
L 74.365966 -238.786611 
L 74.422823 -238.369386 
L 74.47968 -237.949478 
L 74.536537 -237.526905 
L 74.593393 -237.101687 
L 74.65025 -236.673843 
L 74.707107 -236.24339 
L 74.763964 -235.810349 
L 74.820821 -235.374739 
L 74.877678 -234.936577 
L 74.934535 -234.495885 
L 74.991391 -234.05268 
L 75.048248 -233.606983 
L 75.105105 -233.158813 
L 75.161962 -232.708189 
L 75.218819 -232.255132 
L 75.275676 -231.79966 
L 75.332533 -231.341794 
L 75.389389 -230.881554 
L 75.446246 -230.418958 
L 75.503103 -229.954029 
L 75.55996 -229.486785 
L 75.616817 -229.017246 
L 75.673674 -228.545433 
L 75.730531 -228.071367 
L 75.787387 -227.595067 
L 75.844244 -227.116553 
L 75.901101 -226.635847 
L 75.957958 -226.152969 
L 76.014815 -225.667939 
L 76.071672 -225.180778 
L 76.128529 -224.691506 
L 76.185385 -224.200145 
L 76.242242 -223.706715 
L 76.299099 -223.211237 
L 76.355956 -222.713732 
L 76.412813 -222.21422 
L 76.46967 -221.712723 
L 76.526527 -221.209262 
L 76.583383 -220.703857 
L 76.64024 -220.19653 
L 76.697097 -219.687303 
L 76.753954 -219.176195 
L 76.810811 -218.663228 
L 76.867668 -218.148424 
L 76.924525 -217.631804 
L 76.981381 -217.113389 
L 77.038238 -216.5932 
L 77.095095 -216.07126 
L 77.151952 -215.547588 
L 77.208809 -215.022207 
L 77.265666 -214.495137 
L 77.322523 -213.966402 
L 77.379379 -213.436021 
L 77.436236 -212.904016 
L 77.493093 -212.37041 
L 77.54995 -211.835223 
L 77.606807 -211.298477 
L 77.663664 -210.760194 
L 77.720521 -210.220395 
L 77.777377 -209.679101 
L 77.834234 -209.136335 
L 77.891091 -208.592118 
L 77.947948 -208.046472 
L 78.004805 -207.499418 
L 78.061662 -206.950977 
L 78.118519 -206.401173 
L 78.175375 -205.850025 
L 78.232232 -205.297556 
L 78.289089 -204.743787 
L 78.345946 -204.188741 
L 78.402803 -203.632438 
L 78.45966 -203.0749 
L 78.516517 -202.516149 
L 78.573373 -201.956207 
L 78.63023 -201.395095 
L 78.687087 -200.832834 
L 78.743944 -200.269447 
L 78.800801 -199.704954 
L 78.857658 -199.139378 
L 78.914515 -198.57274 
L 78.971371 -198.005061 
L 79.028228 -197.436363 
L 79.085085 -196.866668 
L 79.141942 -196.295996 
L 79.198799 -195.724369 
L 79.255656 -195.151809 
L 79.312513 -194.578338 
L 79.369369 -194.003975 
L 79.426226 -193.428743 
L 79.483083 -192.852664 
L 79.53994 -192.275758 
L 79.596797 -191.698046 
L 79.653654 -191.11955 
L 79.710511 -190.540291 
L 79.767367 -189.96029 
L 79.824224 -189.379568 
L 79.881081 -188.798146 
L 79.937938 -188.216046 
L 79.994795 -187.633287 
L 80.051652 -187.049892 
L 80.108509 -186.465881 
L 80.165365 -185.881275 
L 80.222222 -185.296095 
L 80.279079 -184.710361 
L 80.335936 -184.124095 
L 80.392793 -183.537316 
L 80.44965 -182.950046 
L 80.506507 -182.362305 
L 80.563363 -181.774114 
L 80.62022 -181.185492 
L 80.677077 -180.596461 
L 80.733934 -180.007041 
L 80.790791 -179.417253 
L 80.847648 -178.827115 
L 80.904505 -178.236649 
L 80.961361 -177.645875 
L 81.018218 -177.054812 
L 81.075075 -176.463481 
L 81.131932 -175.871902 
L 81.188789 -175.280095 
L 81.245646 -174.688079 
L 81.302503 -174.095874 
L 81.359359 -173.5035 
L 81.416216 -172.910976 
L 81.473073 -172.318322 
L 81.52993 -171.725557 
L 81.586787 -171.132702 
L 81.643644 -170.539774 
L 81.700501 -169.946794 
L 81.757357 -169.353781 
L 81.814214 -168.760753 
L 81.871071 -168.16773 
L 81.927928 -167.574731 
L 81.984785 -166.981775 
L 82.041642 -166.388879 
L 82.098498 -165.796064 
L 82.155355 -165.203348 
L 82.212212 -164.610749 
L 82.269069 -164.018285 
L 82.325926 -163.425976 
L 82.382783 -162.83384 
L 82.43964 -162.241894 
L 82.496496 -161.650157 
L 82.553353 -161.058647 
L 82.61021 -160.467382 
L 82.667067 -159.876379 
L 82.723924 -159.285658 
L 82.780781 -158.695234 
L 82.837638 -158.105127 
L 82.894494 -157.515353 
L 82.951351 -156.925929 
L 83.008208 -156.336875 
L 83.065065 -155.748205 
L 83.121922 -155.159938 
L 83.178779 -154.572091 
L 83.235636 -153.984681 
L 83.292492 -153.397724 
L 83.349349 -152.811238 
L 83.406206 -152.225238 
L 83.463063 -151.639742 
L 83.51992 -151.054767 
L 83.576777 -150.470328 
L 83.633634 -149.886441 
L 83.69049 -149.303124 
L 83.747347 -148.720391 
L 83.804204 -148.13826 
L 83.861061 -147.556745 
L 83.917918 -146.975864 
L 83.974775 -146.39563 
L 84.031632 -145.816061 
L 84.088488 -145.237171 
L 84.145345 -144.658976 
L 84.202202 -144.081491 
L 84.259059 -143.504732 
L 84.315916 -142.928712 
L 84.372773 -142.353448 
L 84.42963 -141.778954 
L 84.486486 -141.205245 
L 84.543343 -140.632336 
L 84.6002 -140.06024 
L 84.657057 -139.488973 
L 84.713914 -138.918548 
L 84.770771 -138.348981 
L 84.827628 -137.780284 
L 84.884484 -137.212473 
L 84.941341 -136.64556 
L 84.998198 -136.07956 
L 85.055055 -135.514486 
L 85.111912 -134.950352 
L 85.168769 -134.387171 
L 85.225626 -133.824957 
L 85.282482 -133.263722 
L 85.339339 -132.70348 
L 85.396196 -132.144244 
L 85.453053 -131.586027 
L 85.50991 -131.028841 
L 85.566767 -130.472699 
L 85.623624 -129.917613 
L 85.68048 -129.363597 
L 85.737337 -128.810661 
L 85.794194 -128.25882 
L 85.851051 -127.708083 
L 85.907908 -127.158464 
L 85.964765 -126.609974 
L 86.021622 -126.062625 
L 86.078478 -125.516429 
L 86.135335 -124.971397 
L 86.192192 -124.42754 
L 86.249049 -123.88487 
L 86.305906 -123.343398 
L 86.362763 -122.803135 
L 86.41962 -122.264091 
L 86.476476 -121.726278 
L 86.533333 -121.189706 
L 86.59019 -120.654386 
L 86.647047 -120.120328 
L 86.703904 -119.587543 
L 86.760761 -119.05604 
L 86.817618 -118.525831 
L 86.874474 -117.996924 
L 86.931331 -117.46933 
L 86.988188 -116.943058 
L 87.045045 -116.418118 
L 87.101902 -115.89452 
L 87.158759 -115.372273 
L 87.215616 -114.851387 
L 87.272472 -114.331869 
L 87.329329 -113.813731 
L 87.386186 -113.296979 
L 87.443043 -112.781624 
L 87.4999 -112.267674 
L 87.556757 -111.755137 
L 87.613614 -111.244022 
L 87.67047 -110.734338 
L 87.727327 -110.226092 
L 87.784184 -109.719292 
L 87.841041 -109.213948 
L 87.897898 -108.710066 
L 87.954755 -108.207654 
L 88.011612 -107.706721 
L 88.068468 -107.207273 
L 88.125325 -106.709318 
L 88.182182 -106.212863 
L 88.239039 -105.717916 
L 88.295896 -105.224483 
L 88.352753 -104.732572 
L 88.40961 -104.242189 
L 88.466466 -103.753342 
L 88.523323 -103.266036 
L 88.58018 -102.780279 
L 88.637037 -102.296076 
L 88.693894 -101.813434 
L 88.750751 -101.33236 
L 88.807608 -100.852859 
L 88.864464 -100.374937 
L 88.921321 -99.8986 
L 88.978178 -99.423855 
L 89.035035 -98.950705 
L 89.091892 -98.479158 
L 89.148749 -98.009218 
L 89.205606 -97.540891 
L 89.262462 -97.074181 
L 89.319319 -96.609095 
L 89.376176 -96.145636 
L 89.433033 -95.683811 
L 89.48989 -95.223623 
L 89.546747 -94.765077 
L 89.603604 -94.308177 
L 89.66046 -93.852929 
L 89.717317 -93.399337 
L 89.774174 -92.947404 
L 89.831031 -92.497135 
L 89.887888 -92.048534 
L 89.944745 -91.601605 
L 90.001602 -91.156351 
L 90.058458 -90.712776 
L 90.115315 -90.270884 
L 90.172172 -89.830679 
L 90.229029 -89.392163 
L 90.285886 -88.95534 
L 90.342743 -88.520214 
L 90.3996 -88.086787 
L 90.456456 -87.655061 
L 90.513313 -87.225041 
L 90.57017 -86.796729 
L 90.627027 -86.370128 
L 90.683884 -85.945239 
L 90.740741 -85.522066 
L 90.797598 -85.100611 
L 90.854454 -84.680877 
L 90.911311 -84.262864 
L 90.968168 -83.846577 
L 91.025025 -83.432016 
L 91.081882 -83.019183 
L 91.138739 -82.60808 
L 91.195596 -82.19871 
L 91.252452 -81.791073 
L 91.309309 -81.385171 
L 91.366166 -80.981005 
L 91.423023 -80.578578 
L 91.47988 -80.177889 
L 91.536737 -79.778941 
L 91.593594 -79.381734 
L 91.65045 -78.986269 
L 91.707307 -78.592547 
L 91.764164 -78.200569 
L 91.821021 -77.810336 
L 91.877878 -77.421848 
L 91.934735 -77.035105 
L 91.991592 -76.650109 
L 92.048448 -76.26686 
L 92.105305 -75.885357 
L 92.162162 -75.505601 
L 92.219019 -75.127592 
L 92.275876 -74.75133 
L 92.332733 -74.376815 
L 92.38959 -74.004047 
L 92.446446 -73.633025 
L 92.503303 -73.26375 
L 92.56016 -72.89622 
L 92.617017 -72.530436 
L 92.673874 -72.166396 
L 92.730731 -71.804101 
L 92.787588 -71.443549 
L 92.844444 -71.08474 
L 92.901301 -70.727672 
L 92.958158 -70.372345 
L 93.015015 -70.018758 
L 93.071872 -69.66691 
L 93.128729 -69.316799 
L 93.185586 -68.968424 
L 93.242442 -68.621783 
L 93.299299 -68.276877 
L 93.356156 -67.933702 
L 93.413013 -67.592258 
L 93.46987 -67.252542 
L 93.526727 -66.914553 
L 93.583584 -66.57829 
L 93.64044 -66.24375 
L 93.697297 -65.910932 
L 93.754154 -65.579833 
L 93.811011 -65.250451 
L 93.867868 -64.922786 
L 93.924725 -64.596833 
L 93.981582 -64.272591 
L 94.038438 -63.950058 
L 94.095295 -63.629231 
L 94.152152 -63.310109 
L 94.209009 -62.992687 
L 94.265866 -62.676964 
L 94.322723 -62.362938 
L 94.37958 -62.050605 
L 94.436436 -61.739962 
L 94.493293 -61.431008 
L 94.55015 -61.123739 
L 94.607007 -60.818151 
L 94.663864 -60.514243 
L 94.720721 -60.212011 
L 94.777578 -59.911452 
L 94.834434 -59.612563 
L 94.891291 -59.315341 
L 94.948148 -59.019782 
L 95.005005 -58.725882 
L 95.061862 -58.43364 
L 95.118719 -58.143051 
L 95.175576 -57.854111 
L 95.232432 -57.566818 
L 95.289289 -57.281167 
L 95.346146 -56.997155 
L 95.403003 -56.714779 
L 95.45986 -56.434034 
L 95.516717 -56.154917 
L 95.573574 -55.877424 
L 95.63043 -55.60155 
L 95.687287 -55.327293 
L 95.744144 -55.054648 
L 95.801001 -54.783611 
L 95.857858 -54.514179 
L 95.914715 -54.246346 
L 95.971572 -53.980109 
L 96.028428 -53.715463 
L 96.085285 -53.452405 
L 96.142142 -53.19093 
L 96.198999 -52.931033 
L 96.255856 -52.672711 
L 96.312713 -52.415959 
L 96.36957 -52.160773 
L 96.426426 -51.907147 
L 96.483283 -51.655078 
L 96.54014 -51.404561 
L 96.596997 -51.155591 
L 96.653854 -50.908164 
L 96.710711 -50.662274 
L 96.767568 -50.417918 
L 96.824424 -50.175091 
L 96.881281 -49.933788 
L 96.938138 -49.694003 
L 96.994995 -49.455733 
L 97.051852 -49.218971 
L 97.108709 -48.983715 
L 97.165566 -48.749957 
L 97.222422 -48.517694 
L 97.279279 -48.28692 
L 97.336136 -48.057631 
L 97.392993 -47.829821 
L 97.44985 -47.603486 
L 97.506707 -47.378619 
L 97.563564 -47.155216 
L 97.62042 -46.933273 
L 97.677277 -46.712782 
L 97.734134 -46.493741 
L 97.790991 -46.276142 
L 97.847848 -46.059981 
L 97.904705 -45.845253 
L 97.961562 -45.631952 
L 98.018418 -45.420073 
L 98.075275 -45.20961 
L 98.132132 -45.000559 
L 98.188989 -44.792913 
L 98.245846 -44.586668 
L 98.302703 -44.381817 
L 98.35956 -44.178356 
L 98.416416 -43.976278 
L 98.473273 -43.77558 
L 98.53013 -43.576253 
L 98.586987 -43.378294 
L 98.643844 -43.181697 
L 98.700701 -42.986456 
L 98.757558 -42.792566 
L 98.814414 -42.60002 
L 98.871271 -42.408814 
L 98.928128 -42.218942 
L 98.984985 -42.030397 
L 99.041842 -41.843175 
L 99.098699 -41.657269 
L 99.155556 -41.472675 
L 99.212412 -41.289385 
L 99.269269 -41.107395 
L 99.326126 -40.926699 
L 99.382983 -40.747291 
L 99.43984 -40.569165 
L 99.496697 -40.392316 
L 99.553554 -40.216738 
L 99.61041 -40.042424 
L 99.667267 -39.86937 
L 99.724124 -39.697569 
L 99.780981 -39.527016 
L 99.837838 -39.357704 
L 99.894695 -39.189628 
L 99.951552 -39.022783 
L 100.008408 -38.857161 
L 100.065265 -38.692758 
L 100.122122 -38.529568 
L 100.178979 -38.367584 
L 100.235836 -38.206802 
L 100.292693 -38.047214 
L 100.34955 -37.888815 
L 100.406406 -37.7316 
L 100.463263 -37.575562 
L 100.52012 -37.420696 
L 100.576977 -37.266995 
L 100.633834 -37.114454 
L 100.690691 -36.963067 
L 100.747548 -36.812828 
L 100.804404 -36.663732 
L 100.861261 -36.515771 
L 100.918118 -36.368941 
L 100.974975 -36.223236 
L 101.031832 -36.078649 
L 101.088689 -35.935175 
L 101.145546 -35.792808 
L 101.202402 -35.651542 
L 101.259259 -35.511371 
L 101.316116 -35.372289 
L 101.372973 -35.234291 
L 101.42983 -35.097371 
L 101.486687 -34.961522 
L 101.543544 -34.826739 
L 101.6004 -34.693016 
L 101.657257 -34.560348 
L 101.714114 -34.428728 
L 101.770971 -34.29815 
L 101.827828 -34.16861 
L 101.884685 -34.0401 
L 101.941542 -33.912615 
L 101.998398 -33.786149 
L 102.055255 -33.660698 
L 102.112112 -33.536253 
L 102.168969 -33.412811 
L 102.225826 -33.290365 
L 102.282683 -33.168909 
L 102.33954 -33.048438 
L 102.396396 -32.928946 
L 102.453253 -32.810427 
L 102.51011 -32.692876 
L 102.566967 -32.576286 
L 102.623824 -32.460653 
L 102.680681 -32.345969 
L 102.737538 -32.23223 
L 102.794394 -32.119431 
L 102.851251 -32.007564 
L 102.908108 -31.896625 
L 102.964965 -31.786608 
L 103.021822 -31.677508 
L 103.078679 -31.569318 
L 103.135536 -31.462034 
L 103.192392 -31.355649 
L 103.249249 -31.250157 
L 103.306106 -31.145555 
L 103.362963 -31.041835 
L 103.41982 -30.938992 
L 103.476677 -30.837022 
L 103.533534 -30.735917 
L 103.59039 -30.635673 
L 103.647247 -30.536285 
L 103.704104 -30.437746 
L 103.760961 -30.340052 
L 103.817818 -30.243196 
L 103.874675 -30.147174 
L 103.931532 -30.05198 
L 103.988388 -29.957609 
L 104.045245 -29.864055 
L 104.102102 -29.771313 
L 104.158959 -29.679377 
L 104.215816 -29.588243 
L 104.272673 -29.497905 
L 104.32953 -29.408357 
L 104.386386 -29.319595 
L 104.443243 -29.231612 
L 104.5001 -29.144405 
L 104.556957 -29.057967 
L 104.613814 -28.972293 
L 104.670671 -28.887379 
L 104.727528 -28.803218 
L 104.784384 -28.719807 
L 104.841241 -28.637139 
L 104.898098 -28.55521 
L 104.954955 -28.474014 
L 105.011812 -28.393546 
L 105.068669 -28.313802 
L 105.125526 -28.234776 
L 105.182382 -28.156464 
L 105.239239 -28.078859 
L 105.296096 -28.001958 
L 105.352953 -27.925755 
L 105.40981 -27.850245 
L 105.466667 -27.775423 
L 105.523524 -27.701285 
L 105.58038 -27.627826 
L 105.637237 -27.55504 
L 105.694094 -27.482922 
L 105.750951 -27.411469 
L 105.807808 -27.340675 
L 105.864665 -27.270535 
L 105.921522 -27.201045 
L 105.978378 -27.132199 
L 106.035235 -27.063994 
L 106.092092 -26.996424 
L 106.148949 -26.929484 
L 106.205806 -26.86317 
L 106.262663 -26.797478 
L 106.31952 -26.732402 
L 106.376376 -26.667939 
L 106.433233 -26.604082 
L 106.49009 -26.540829 
L 106.546947 -26.478174 
L 106.603804 -26.416113 
L 106.660661 -26.354641 
L 106.717518 -26.293753 
L 106.774374 -26.233446 
L 106.831231 -26.173715 
L 106.888088 -26.114556 
L 106.944945 -26.055963 
L 107.001802 -25.997933 
L 107.058659 -25.940461 
L 107.115516 -25.883543 
L 107.172372 -25.827175 
L 107.229229 -25.771353 
L 107.286086 -25.716071 
L 107.342943 -25.661326 
L 107.3998 -25.607113 
L 107.456657 -25.553429 
L 107.513514 -25.50027 
L 107.57037 -25.44763 
L 107.627227 -25.395506 
L 107.684084 -25.343893 
L 107.740941 -25.292789 
L 107.797798 -25.242188 
L 107.854655 -25.192086 
L 107.911512 -25.14248 
L 107.968368 -25.093365 
L 108.025225 -25.044738 
L 108.082082 -24.996594 
L 108.138939 -24.94893 
L 108.195796 -24.901741 
L 108.252653 -24.855024 
L 108.30951 -24.808775 
L 108.366366 -24.76299 
L 108.423223 -24.717665 
L 108.48008 -24.672796 
L 108.536937 -24.62838 
L 108.593794 -24.584412 
L 108.650651 -24.54089 
L 108.707508 -24.497808 
L 108.764364 -24.455165 
L 108.821221 -24.412955 
L 108.878078 -24.371175 
L 108.934935 -24.329822 
L 108.991792 -24.288892 
L 109.048649 -24.248381 
L 109.105506 -24.208285 
L 109.162362 -24.168602 
L 109.219219 -24.129328 
L 109.276076 -24.090459 
L 109.332933 -24.051991 
L 109.38979 -24.013922 
L 109.446647 -23.976247 
L 109.503504 -23.938964 
L 109.56036 -23.902069 
L 109.617217 -23.865558 
L 109.674074 -23.829428 
L 109.730931 -23.793676 
L 109.787788 -23.758299 
L 109.844645 -23.723292 
L 109.901502 -23.688654 
L 109.958358 -23.65438 
L 110.015215 -23.620468 
L 110.072072 -23.586914 
L 110.128929 -23.553715 
L 110.185786 -23.520868 
L 110.242643 -23.48837 
L 110.299499 -23.456217 
L 110.356356 -23.424407 
L 110.413213 -23.392936 
L 110.47007 -23.361801 
L 110.526927 -23.331 
L 110.583784 -23.300529 
L 110.640641 -23.270385 
L 110.697497 -23.240565 
L 110.754354 -23.211067 
L 110.811211 -23.181887 
L 110.868068 -23.153023 
L 110.924925 -23.124471 
L 110.981782 -23.096228 
L 111.038639 -23.068293 
L 111.095495 -23.040661 
L 111.152352 -23.01333 
L 111.209209 -22.986298 
L 111.266066 -22.959562 
L 111.322923 -22.933118 
L 111.37978 -22.906964 
L 111.436637 -22.881097 
L 111.493493 -22.855515 
L 111.55035 -22.830215 
L 111.607207 -22.805194 
L 111.664064 -22.78045 
L 111.720921 -22.75598 
L 111.777778 -22.731781 
L 111.834635 -22.707851 
L 111.891491 -22.684187 
L 111.948348 -22.660787 
L 112.005205 -22.637648 
L 112.062062 -22.614768 
L 112.118919 -22.592144 
L 112.175776 -22.569773 
L 112.232633 -22.547654 
L 112.289489 -22.525783 
L 112.346346 -22.504159 
L 112.403203 -22.482779 
L 112.46006 -22.46164 
L 112.516917 -22.440741 
L 112.573774 -22.420079 
L 112.630631 -22.399651 
L 112.687487 -22.379455 
L 112.744344 -22.359489 
L 112.801201 -22.339751 
L 112.858058 -22.320239 
L 112.914915 -22.30095 
L 112.971772 -22.281881 
L 113.028629 -22.263032 
L 113.085485 -22.244399 
L 113.142342 -22.22598 
L 113.199199 -22.207774 
L 113.256056 -22.189778 
L 113.312913 -22.17199 
L 113.36977 -22.154408 
L 113.426627 -22.13703 
L 113.483483 -22.119854 
L 113.54034 -22.102877 
L 113.597197 -22.086098 
L 113.654054 -22.069515 
L 113.710911 -22.053126 
L 113.767768 -22.036928 
L 113.824625 -22.020921 
L 113.881481 -22.005101 
L 113.938338 -21.989467 
L 113.995195 -21.974017 
L 114.052052 -21.958749 
L 114.108909 -21.943661 
L 114.165766 -21.928752 
L 114.222623 -21.914019 
L 114.279479 -21.899461 
L 114.336336 -21.885075 
L 114.393193 -21.870861 
L 114.45005 -21.856816 
L 114.506907 -21.842938 
L 114.563764 -21.829227 
L 114.620621 -21.815679 
L 114.677477 -21.802293 
L 114.734334 -21.789068 
L 114.791191 -21.776002 
L 114.848048 -21.763093 
L 114.904905 -21.75034 
L 114.961762 -21.73774 
L 115.018619 -21.725293 
L 115.075475 -21.712996 
L 115.132332 -21.700848 
L 115.189189 -21.688848 
L 115.246046 -21.676993 
L 115.302903 -21.665283 
L 115.35976 -21.653715 
L 115.416617 -21.642288 
L 115.473473 -21.631001 
L 115.53033 -21.619852 
L 115.587187 -21.60884 
L 115.644044 -21.597963 
L 115.700901 -21.58722 
L 115.757758 -21.576608 
L 115.814615 -21.566128 
L 115.871471 -21.555777 
L 115.928328 -21.545553 
L 115.985185 -21.535456 
L 116.042042 -21.525485 
L 116.098899 -21.515637 
L 116.155756 -21.505911 
L 116.212613 -21.496306 
L 116.269469 -21.486822 
L 116.326326 -21.477455 
L 116.383183 -21.468205 
L 116.44004 -21.459071 
L 116.496897 -21.450052 
L 116.553754 -21.441146 
L 116.610611 -21.432351 
L 116.667467 -21.423668 
L 116.724324 -21.415093 
L 116.781181 -21.406627 
L 116.838038 -21.398268 
L 116.894895 -21.390014 
L 116.951752 -21.381865 
L 117.008609 -21.37382 
L 117.065465 -21.365876 
L 117.122322 -21.358034 
L 117.179179 -21.350291 
L 117.236036 -21.342647 
L 117.292893 -21.335101 
L 117.34975 -21.327651 
L 117.406607 -21.320297 
L 117.463463 -21.313037 
L 117.52032 -21.30587 
L 117.577177 -21.298795 
L 117.634034 -21.291811 
L 117.690891 -21.284917 
L 117.747748 -21.278113 
L 117.804605 -21.271396 
L 117.861461 -21.264766 
L 117.918318 -21.258222 
L 117.975175 -21.251763 
L 118.032032 -21.245387 
L 118.088889 -21.239095 
L 118.145746 -21.232885 
L 118.202603 -21.226755 
L 118.259459 -21.220706 
L 118.316316 -21.214736 
L 118.373173 -21.208844 
L 118.43003 -21.203029 
L 118.486887 -21.197291 
L 118.543744 -21.191628 
L 118.600601 -21.186039 
L 118.657457 -21.180524 
L 118.714314 -21.175082 
L 118.771171 -21.169712 
L 118.828028 -21.164413 
L 118.884885 -21.159184 
L 118.941742 -21.154024 
L 118.998599 -21.148933 
L 119.055455 -21.14391 
L 119.112312 -21.138953 
L 119.169169 -21.134063 
L 119.226026 -21.129238 
L 119.282883 -21.124477 
L 119.33974 -21.11978 
L 119.396597 -21.115146 
L 119.453453 -21.110575 
L 119.51031 -21.106064 
L 119.567167 -21.101614 
L 119.624024 -21.097225 
L 119.680881 -21.092894 
L 119.737738 -21.088622 
L 119.794595 -21.084407 
L 119.851451 -21.08025 
L 119.908308 -21.076149 
L 119.965165 -21.072104 
L 120.022022 -21.068113 
L 120.078879 -21.064177 
L 120.135736 -21.060295 
L 120.192593 -21.056465 
L 120.249449 -21.052688 
L 120.306306 -21.048962 
L 120.363163 -21.045288 
L 120.42002 -21.041664 
L 120.476877 -21.038089 
L 120.533734 -21.034564 
L 120.590591 -21.031087 
L 120.647447 -21.027658 
L 120.704304 -21.024276 
L 120.761161 -21.020941 
L 120.818018 -21.017652 
L 120.874875 -21.014409 
L 120.931732 -21.01121 
L 120.988589 -21.008056 
L 121.045445 -21.004946 
L 121.102302 -21.001879 
L 121.159159 -20.998854 
L 121.216016 -20.995872 
L 121.272873 -20.992932 
L 121.32973 -20.990032 
L 121.386587 -20.987173 
L 121.443443 -20.984355 
L 121.5003 -20.981575 
L 121.557157 -20.978835 
L 121.614014 -20.976133 
L 121.670871 -20.97347 
L 121.727728 -20.970844 
L 121.784585 -20.968255 
L 121.841441 -20.965702 
L 121.898298 -20.963186 
L 121.955155 -20.960705 
L 122.012012 -20.95826 
L 122.068869 -20.955849 
L 122.125726 -20.953472 
L 122.182583 -20.951129 
L 122.239439 -20.94882 
L 122.296296 -20.946544 
L 122.353153 -20.9443 
L 122.41001 -20.942088 
L 122.466867 -20.939908 
L 122.523724 -20.937759 
L 122.580581 -20.93564 
L 122.637437 -20.933553 
L 122.694294 -20.931495 
L 122.751151 -20.929467 
L 122.808008 -20.927468 
L 122.864865 -20.925498 
L 122.921722 -20.923557 
L 122.978579 -20.921643 
L 123.035435 -20.919758 
L 123.092292 -20.917899 
L 123.149149 -20.916068 
L 123.206006 -20.914263 
L 123.262863 -20.912485 
L 123.31972 -20.910732 
L 123.376577 -20.909005 
L 123.433433 -20.907303 
L 123.49029 -20.905626 
L 123.547147 -20.903974 
L 123.604004 -20.902346 
L 123.660861 -20.900741 
L 123.717718 -20.899161 
L 123.774575 -20.897603 
L 123.831431 -20.896069 
L 123.888288 -20.894557 
L 123.945145 -20.893067 
L 124.002002 -20.891599 
L 124.058859 -20.890153 
L 124.115716 -20.888729 
L 124.172573 -20.887325 
L 124.229429 -20.885943 
L 124.286286 -20.884581 
L 124.343143 -20.883239 
L 124.4 -20.881917 
L 124.4 -20.8 
L 124.4 -20.8 
L 124.343143 -20.8 
L 124.286286 -20.8 
L 124.229429 -20.8 
L 124.172573 -20.8 
L 124.115716 -20.8 
L 124.058859 -20.8 
L 124.002002 -20.8 
L 123.945145 -20.8 
L 123.888288 -20.8 
L 123.831431 -20.8 
L 123.774575 -20.8 
L 123.717718 -20.8 
L 123.660861 -20.8 
L 123.604004 -20.8 
L 123.547147 -20.8 
L 123.49029 -20.8 
L 123.433433 -20.8 
L 123.376577 -20.8 
L 123.31972 -20.8 
L 123.262863 -20.8 
L 123.206006 -20.8 
L 123.149149 -20.8 
L 123.092292 -20.8 
L 123.035435 -20.8 
L 122.978579 -20.8 
L 122.921722 -20.8 
L 122.864865 -20.8 
L 122.808008 -20.8 
L 122.751151 -20.8 
L 122.694294 -20.8 
L 122.637437 -20.8 
L 122.580581 -20.8 
L 122.523724 -20.8 
L 122.466867 -20.8 
L 122.41001 -20.8 
L 122.353153 -20.8 
L 122.296296 -20.8 
L 122.239439 -20.8 
L 122.182583 -20.8 
L 122.125726 -20.8 
L 122.068869 -20.8 
L 122.012012 -20.8 
L 121.955155 -20.8 
L 121.898298 -20.8 
L 121.841441 -20.8 
L 121.784585 -20.8 
L 121.727728 -20.8 
L 121.670871 -20.8 
L 121.614014 -20.8 
L 121.557157 -20.8 
L 121.5003 -20.8 
L 121.443443 -20.8 
L 121.386587 -20.8 
L 121.32973 -20.8 
L 121.272873 -20.8 
L 121.216016 -20.8 
L 121.159159 -20.8 
L 121.102302 -20.8 
L 121.045445 -20.8 
L 120.988589 -20.8 
L 120.931732 -20.8 
L 120.874875 -20.8 
L 120.818018 -20.8 
L 120.761161 -20.8 
L 120.704304 -20.8 
L 120.647447 -20.8 
L 120.590591 -20.8 
L 120.533734 -20.8 
L 120.476877 -20.8 
L 120.42002 -20.8 
L 120.363163 -20.8 
L 120.306306 -20.8 
L 120.249449 -20.8 
L 120.192593 -20.8 
L 120.135736 -20.8 
L 120.078879 -20.8 
L 120.022022 -20.8 
L 119.965165 -20.8 
L 119.908308 -20.8 
L 119.851451 -20.8 
L 119.794595 -20.8 
L 119.737738 -20.8 
L 119.680881 -20.8 
L 119.624024 -20.8 
L 119.567167 -20.8 
L 119.51031 -20.8 
L 119.453453 -20.8 
L 119.396597 -20.8 
L 119.33974 -20.8 
L 119.282883 -20.8 
L 119.226026 -20.8 
L 119.169169 -20.8 
L 119.112312 -20.8 
L 119.055455 -20.8 
L 118.998599 -20.8 
L 118.941742 -20.8 
L 118.884885 -20.8 
L 118.828028 -20.8 
L 118.771171 -20.8 
L 118.714314 -20.8 
L 118.657457 -20.8 
L 118.600601 -20.8 
L 118.543744 -20.8 
L 118.486887 -20.8 
L 118.43003 -20.8 
L 118.373173 -20.8 
L 118.316316 -20.8 
L 118.259459 -20.8 
L 118.202603 -20.8 
L 118.145746 -20.8 
L 118.088889 -20.8 
L 118.032032 -20.8 
L 117.975175 -20.8 
L 117.918318 -20.8 
L 117.861461 -20.8 
L 117.804605 -20.8 
L 117.747748 -20.8 
L 117.690891 -20.8 
L 117.634034 -20.8 
L 117.577177 -20.8 
L 117.52032 -20.8 
L 117.463463 -20.8 
L 117.406607 -20.8 
L 117.34975 -20.8 
L 117.292893 -20.8 
L 117.236036 -20.8 
L 117.179179 -20.8 
L 117.122322 -20.8 
L 117.065465 -20.8 
L 117.008609 -20.8 
L 116.951752 -20.8 
L 116.894895 -20.8 
L 116.838038 -20.8 
L 116.781181 -20.8 
L 116.724324 -20.8 
L 116.667467 -20.8 
L 116.610611 -20.8 
L 116.553754 -20.8 
L 116.496897 -20.8 
L 116.44004 -20.8 
L 116.383183 -20.8 
L 116.326326 -20.8 
L 116.269469 -20.8 
L 116.212613 -20.8 
L 116.155756 -20.8 
L 116.098899 -20.8 
L 116.042042 -20.8 
L 115.985185 -20.8 
L 115.928328 -20.8 
L 115.871471 -20.8 
L 115.814615 -20.8 
L 115.757758 -20.8 
L 115.700901 -20.8 
L 115.644044 -20.8 
L 115.587187 -20.8 
L 115.53033 -20.8 
L 115.473473 -20.8 
L 115.416617 -20.8 
L 115.35976 -20.8 
L 115.302903 -20.8 
L 115.246046 -20.8 
L 115.189189 -20.8 
L 115.132332 -20.8 
L 115.075475 -20.8 
L 115.018619 -20.8 
L 114.961762 -20.8 
L 114.904905 -20.8 
L 114.848048 -20.8 
L 114.791191 -20.8 
L 114.734334 -20.8 
L 114.677477 -20.8 
L 114.620621 -20.8 
L 114.563764 -20.8 
L 114.506907 -20.8 
L 114.45005 -20.8 
L 114.393193 -20.8 
L 114.336336 -20.8 
L 114.279479 -20.8 
L 114.222623 -20.8 
L 114.165766 -20.8 
L 114.108909 -20.8 
L 114.052052 -20.8 
L 113.995195 -20.8 
L 113.938338 -20.8 
L 113.881481 -20.8 
L 113.824625 -20.8 
L 113.767768 -20.8 
L 113.710911 -20.8 
L 113.654054 -20.8 
L 113.597197 -20.8 
L 113.54034 -20.8 
L 113.483483 -20.8 
L 113.426627 -20.8 
L 113.36977 -20.8 
L 113.312913 -20.8 
L 113.256056 -20.8 
L 113.199199 -20.8 
L 113.142342 -20.8 
L 113.085485 -20.8 
L 113.028629 -20.8 
L 112.971772 -20.8 
L 112.914915 -20.8 
L 112.858058 -20.8 
L 112.801201 -20.8 
L 112.744344 -20.8 
L 112.687487 -20.8 
L 112.630631 -20.8 
L 112.573774 -20.8 
L 112.516917 -20.8 
L 112.46006 -20.8 
L 112.403203 -20.8 
L 112.346346 -20.8 
L 112.289489 -20.8 
L 112.232633 -20.8 
L 112.175776 -20.8 
L 112.118919 -20.8 
L 112.062062 -20.8 
L 112.005205 -20.8 
L 111.948348 -20.8 
L 111.891491 -20.8 
L 111.834635 -20.8 
L 111.777778 -20.8 
L 111.720921 -20.8 
L 111.664064 -20.8 
L 111.607207 -20.8 
L 111.55035 -20.8 
L 111.493493 -20.8 
L 111.436637 -20.8 
L 111.37978 -20.8 
L 111.322923 -20.8 
L 111.266066 -20.8 
L 111.209209 -20.8 
L 111.152352 -20.8 
L 111.095495 -20.8 
L 111.038639 -20.8 
L 110.981782 -20.8 
L 110.924925 -20.8 
L 110.868068 -20.8 
L 110.811211 -20.8 
L 110.754354 -20.8 
L 110.697497 -20.8 
L 110.640641 -20.8 
L 110.583784 -20.8 
L 110.526927 -20.8 
L 110.47007 -20.8 
L 110.413213 -20.8 
L 110.356356 -20.8 
L 110.299499 -20.8 
L 110.242643 -20.8 
L 110.185786 -20.8 
L 110.128929 -20.8 
L 110.072072 -20.8 
L 110.015215 -20.8 
L 109.958358 -20.8 
L 109.901502 -20.8 
L 109.844645 -20.8 
L 109.787788 -20.8 
L 109.730931 -20.8 
L 109.674074 -20.8 
L 109.617217 -20.8 
L 109.56036 -20.8 
L 109.503504 -20.8 
L 109.446647 -20.8 
L 109.38979 -20.8 
L 109.332933 -20.8 
L 109.276076 -20.8 
L 109.219219 -20.8 
L 109.162362 -20.8 
L 109.105506 -20.8 
L 109.048649 -20.8 
L 108.991792 -20.8 
L 108.934935 -20.8 
L 108.878078 -20.8 
L 108.821221 -20.8 
L 108.764364 -20.8 
L 108.707508 -20.8 
L 108.650651 -20.8 
L 108.593794 -20.8 
L 108.536937 -20.8 
L 108.48008 -20.8 
L 108.423223 -20.8 
L 108.366366 -20.8 
L 108.30951 -20.8 
L 108.252653 -20.8 
L 108.195796 -20.8 
L 108.138939 -20.8 
L 108.082082 -20.8 
L 108.025225 -20.8 
L 107.968368 -20.8 
L 107.911512 -20.8 
L 107.854655 -20.8 
L 107.797798 -20.8 
L 107.740941 -20.8 
L 107.684084 -20.8 
L 107.627227 -20.8 
L 107.57037 -20.8 
L 107.513514 -20.8 
L 107.456657 -20.8 
L 107.3998 -20.8 
L 107.342943 -20.8 
L 107.286086 -20.8 
L 107.229229 -20.8 
L 107.172372 -20.8 
L 107.115516 -20.8 
L 107.058659 -20.8 
L 107.001802 -20.8 
L 106.944945 -20.8 
L 106.888088 -20.8 
L 106.831231 -20.8 
L 106.774374 -20.8 
L 106.717518 -20.8 
L 106.660661 -20.8 
L 106.603804 -20.8 
L 106.546947 -20.8 
L 106.49009 -20.8 
L 106.433233 -20.8 
L 106.376376 -20.8 
L 106.31952 -20.8 
L 106.262663 -20.8 
L 106.205806 -20.8 
L 106.148949 -20.8 
L 106.092092 -20.8 
L 106.035235 -20.8 
L 105.978378 -20.8 
L 105.921522 -20.8 
L 105.864665 -20.8 
L 105.807808 -20.8 
L 105.750951 -20.8 
L 105.694094 -20.8 
L 105.637237 -20.8 
L 105.58038 -20.8 
L 105.523524 -20.8 
L 105.466667 -20.8 
L 105.40981 -20.8 
L 105.352953 -20.8 
L 105.296096 -20.8 
L 105.239239 -20.8 
L 105.182382 -20.8 
L 105.125526 -20.8 
L 105.068669 -20.8 
L 105.011812 -20.8 
L 104.954955 -20.8 
L 104.898098 -20.8 
L 104.841241 -20.8 
L 104.784384 -20.8 
L 104.727528 -20.8 
L 104.670671 -20.8 
L 104.613814 -20.8 
L 104.556957 -20.8 
L 104.5001 -20.8 
L 104.443243 -20.8 
L 104.386386 -20.8 
L 104.32953 -20.8 
L 104.272673 -20.8 
L 104.215816 -20.8 
L 104.158959 -20.8 
L 104.102102 -20.8 
L 104.045245 -20.8 
L 103.988388 -20.8 
L 103.931532 -20.8 
L 103.874675 -20.8 
L 103.817818 -20.8 
L 103.760961 -20.8 
L 103.704104 -20.8 
L 103.647247 -20.8 
L 103.59039 -20.8 
L 103.533534 -20.8 
L 103.476677 -20.8 
L 103.41982 -20.8 
L 103.362963 -20.8 
L 103.306106 -20.8 
L 103.249249 -20.8 
L 103.192392 -20.8 
L 103.135536 -20.8 
L 103.078679 -20.8 
L 103.021822 -20.8 
L 102.964965 -20.8 
L 102.908108 -20.8 
L 102.851251 -20.8 
L 102.794394 -20.8 
L 102.737538 -20.8 
L 102.680681 -20.8 
L 102.623824 -20.8 
L 102.566967 -20.8 
L 102.51011 -20.8 
L 102.453253 -20.8 
L 102.396396 -20.8 
L 102.33954 -20.8 
L 102.282683 -20.8 
L 102.225826 -20.8 
L 102.168969 -20.8 
L 102.112112 -20.8 
L 102.055255 -20.8 
L 101.998398 -20.8 
L 101.941542 -20.8 
L 101.884685 -20.8 
L 101.827828 -20.8 
L 101.770971 -20.8 
L 101.714114 -20.8 
L 101.657257 -20.8 
L 101.6004 -20.8 
L 101.543544 -20.8 
L 101.486687 -20.8 
L 101.42983 -20.8 
L 101.372973 -20.8 
L 101.316116 -20.8 
L 101.259259 -20.8 
L 101.202402 -20.8 
L 101.145546 -20.8 
L 101.088689 -20.8 
L 101.031832 -20.8 
L 100.974975 -20.8 
L 100.918118 -20.8 
L 100.861261 -20.8 
L 100.804404 -20.8 
L 100.747548 -20.8 
L 100.690691 -20.8 
L 100.633834 -20.8 
L 100.576977 -20.8 
L 100.52012 -20.8 
L 100.463263 -20.8 
L 100.406406 -20.8 
L 100.34955 -20.8 
L 100.292693 -20.8 
L 100.235836 -20.8 
L 100.178979 -20.8 
L 100.122122 -20.8 
L 100.065265 -20.8 
L 100.008408 -20.8 
L 99.951552 -20.8 
L 99.894695 -20.8 
L 99.837838 -20.8 
L 99.780981 -20.8 
L 99.724124 -20.8 
L 99.667267 -20.8 
L 99.61041 -20.8 
L 99.553554 -20.8 
L 99.496697 -20.8 
L 99.43984 -20.8 
L 99.382983 -20.8 
L 99.326126 -20.8 
L 99.269269 -20.8 
L 99.212412 -20.8 
L 99.155556 -20.8 
L 99.098699 -20.8 
L 99.041842 -20.8 
L 98.984985 -20.8 
L 98.928128 -20.8 
L 98.871271 -20.8 
L 98.814414 -20.8 
L 98.757558 -20.8 
L 98.700701 -20.8 
L 98.643844 -20.8 
L 98.586987 -20.8 
L 98.53013 -20.8 
L 98.473273 -20.8 
L 98.416416 -20.8 
L 98.35956 -20.8 
L 98.302703 -20.8 
L 98.245846 -20.8 
L 98.188989 -20.8 
L 98.132132 -20.8 
L 98.075275 -20.8 
L 98.018418 -20.8 
L 97.961562 -20.8 
L 97.904705 -20.8 
L 97.847848 -20.8 
L 97.790991 -20.8 
L 97.734134 -20.8 
L 97.677277 -20.8 
L 97.62042 -20.8 
L 97.563564 -20.8 
L 97.506707 -20.8 
L 97.44985 -20.8 
L 97.392993 -20.8 
L 97.336136 -20.8 
L 97.279279 -20.8 
L 97.222422 -20.8 
L 97.165566 -20.8 
L 97.108709 -20.8 
L 97.051852 -20.8 
L 96.994995 -20.8 
L 96.938138 -20.8 
L 96.881281 -20.8 
L 96.824424 -20.8 
L 96.767568 -20.8 
L 96.710711 -20.8 
L 96.653854 -20.8 
L 96.596997 -20.8 
L 96.54014 -20.8 
L 96.483283 -20.8 
L 96.426426 -20.8 
L 96.36957 -20.8 
L 96.312713 -20.8 
L 96.255856 -20.8 
L 96.198999 -20.8 
L 96.142142 -20.8 
L 96.085285 -20.8 
L 96.028428 -20.8 
L 95.971572 -20.8 
L 95.914715 -20.8 
L 95.857858 -20.8 
L 95.801001 -20.8 
L 95.744144 -20.8 
L 95.687287 -20.8 
L 95.63043 -20.8 
L 95.573574 -20.8 
L 95.516717 -20.8 
L 95.45986 -20.8 
L 95.403003 -20.8 
L 95.346146 -20.8 
L 95.289289 -20.8 
L 95.232432 -20.8 
L 95.175576 -20.8 
L 95.118719 -20.8 
L 95.061862 -20.8 
L 95.005005 -20.8 
L 94.948148 -20.8 
L 94.891291 -20.8 
L 94.834434 -20.8 
L 94.777578 -20.8 
L 94.720721 -20.8 
L 94.663864 -20.8 
L 94.607007 -20.8 
L 94.55015 -20.8 
L 94.493293 -20.8 
L 94.436436 -20.8 
L 94.37958 -20.8 
L 94.322723 -20.8 
L 94.265866 -20.8 
L 94.209009 -20.8 
L 94.152152 -20.8 
L 94.095295 -20.8 
L 94.038438 -20.8 
L 93.981582 -20.8 
L 93.924725 -20.8 
L 93.867868 -20.8 
L 93.811011 -20.8 
L 93.754154 -20.8 
L 93.697297 -20.8 
L 93.64044 -20.8 
L 93.583584 -20.8 
L 93.526727 -20.8 
L 93.46987 -20.8 
L 93.413013 -20.8 
L 93.356156 -20.8 
L 93.299299 -20.8 
L 93.242442 -20.8 
L 93.185586 -20.8 
L 93.128729 -20.8 
L 93.071872 -20.8 
L 93.015015 -20.8 
L 92.958158 -20.8 
L 92.901301 -20.8 
L 92.844444 -20.8 
L 92.787588 -20.8 
L 92.730731 -20.8 
L 92.673874 -20.8 
L 92.617017 -20.8 
L 92.56016 -20.8 
L 92.503303 -20.8 
L 92.446446 -20.8 
L 92.38959 -20.8 
L 92.332733 -20.8 
L 92.275876 -20.8 
L 92.219019 -20.8 
L 92.162162 -20.8 
L 92.105305 -20.8 
L 92.048448 -20.8 
L 91.991592 -20.8 
L 91.934735 -20.8 
L 91.877878 -20.8 
L 91.821021 -20.8 
L 91.764164 -20.8 
L 91.707307 -20.8 
L 91.65045 -20.8 
L 91.593594 -20.8 
L 91.536737 -20.8 
L 91.47988 -20.8 
L 91.423023 -20.8 
L 91.366166 -20.8 
L 91.309309 -20.8 
L 91.252452 -20.8 
L 91.195596 -20.8 
L 91.138739 -20.8 
L 91.081882 -20.8 
L 91.025025 -20.8 
L 90.968168 -20.8 
L 90.911311 -20.8 
L 90.854454 -20.8 
L 90.797598 -20.8 
L 90.740741 -20.8 
L 90.683884 -20.8 
L 90.627027 -20.8 
L 90.57017 -20.8 
L 90.513313 -20.8 
L 90.456456 -20.8 
L 90.3996 -20.8 
L 90.342743 -20.8 
L 90.285886 -20.8 
L 90.229029 -20.8 
L 90.172172 -20.8 
L 90.115315 -20.8 
L 90.058458 -20.8 
L 90.001602 -20.8 
L 89.944745 -20.8 
L 89.887888 -20.8 
L 89.831031 -20.8 
L 89.774174 -20.8 
L 89.717317 -20.8 
L 89.66046 -20.8 
L 89.603604 -20.8 
L 89.546747 -20.8 
L 89.48989 -20.8 
L 89.433033 -20.8 
L 89.376176 -20.8 
L 89.319319 -20.8 
L 89.262462 -20.8 
L 89.205606 -20.8 
L 89.148749 -20.8 
L 89.091892 -20.8 
L 89.035035 -20.8 
L 88.978178 -20.8 
L 88.921321 -20.8 
L 88.864464 -20.8 
L 88.807608 -20.8 
L 88.750751 -20.8 
L 88.693894 -20.8 
L 88.637037 -20.8 
L 88.58018 -20.8 
L 88.523323 -20.8 
L 88.466466 -20.8 
L 88.40961 -20.8 
L 88.352753 -20.8 
L 88.295896 -20.8 
L 88.239039 -20.8 
L 88.182182 -20.8 
L 88.125325 -20.8 
L 88.068468 -20.8 
L 88.011612 -20.8 
L 87.954755 -20.8 
L 87.897898 -20.8 
L 87.841041 -20.8 
L 87.784184 -20.8 
L 87.727327 -20.8 
L 87.67047 -20.8 
L 87.613614 -20.8 
L 87.556757 -20.8 
L 87.4999 -20.8 
L 87.443043 -20.8 
L 87.386186 -20.8 
L 87.329329 -20.8 
L 87.272472 -20.8 
L 87.215616 -20.8 
L 87.158759 -20.8 
L 87.101902 -20.8 
L 87.045045 -20.8 
L 86.988188 -20.8 
L 86.931331 -20.8 
L 86.874474 -20.8 
L 86.817618 -20.8 
L 86.760761 -20.8 
L 86.703904 -20.8 
L 86.647047 -20.8 
L 86.59019 -20.8 
L 86.533333 -20.8 
L 86.476476 -20.8 
L 86.41962 -20.8 
L 86.362763 -20.8 
L 86.305906 -20.8 
L 86.249049 -20.8 
L 86.192192 -20.8 
L 86.135335 -20.8 
L 86.078478 -20.8 
L 86.021622 -20.8 
L 85.964765 -20.8 
L 85.907908 -20.8 
L 85.851051 -20.8 
L 85.794194 -20.8 
L 85.737337 -20.8 
L 85.68048 -20.8 
L 85.623624 -20.8 
L 85.566767 -20.8 
L 85.50991 -20.8 
L 85.453053 -20.8 
L 85.396196 -20.8 
L 85.339339 -20.8 
L 85.282482 -20.8 
L 85.225626 -20.8 
L 85.168769 -20.8 
L 85.111912 -20.8 
L 85.055055 -20.8 
L 84.998198 -20.8 
L 84.941341 -20.8 
L 84.884484 -20.8 
L 84.827628 -20.8 
L 84.770771 -20.8 
L 84.713914 -20.8 
L 84.657057 -20.8 
L 84.6002 -20.8 
L 84.543343 -20.8 
L 84.486486 -20.8 
L 84.42963 -20.8 
L 84.372773 -20.8 
L 84.315916 -20.8 
L 84.259059 -20.8 
L 84.202202 -20.8 
L 84.145345 -20.8 
L 84.088488 -20.8 
L 84.031632 -20.8 
L 83.974775 -20.8 
L 83.917918 -20.8 
L 83.861061 -20.8 
L 83.804204 -20.8 
L 83.747347 -20.8 
L 83.69049 -20.8 
L 83.633634 -20.8 
L 83.576777 -20.8 
L 83.51992 -20.8 
L 83.463063 -20.8 
L 83.406206 -20.8 
L 83.349349 -20.8 
L 83.292492 -20.8 
L 83.235636 -20.8 
L 83.178779 -20.8 
L 83.121922 -20.8 
L 83.065065 -20.8 
L 83.008208 -20.8 
L 82.951351 -20.8 
L 82.894494 -20.8 
L 82.837638 -20.8 
L 82.780781 -20.8 
L 82.723924 -20.8 
L 82.667067 -20.8 
L 82.61021 -20.8 
L 82.553353 -20.8 
L 82.496496 -20.8 
L 82.43964 -20.8 
L 82.382783 -20.8 
L 82.325926 -20.8 
L 82.269069 -20.8 
L 82.212212 -20.8 
L 82.155355 -20.8 
L 82.098498 -20.8 
L 82.041642 -20.8 
L 81.984785 -20.8 
L 81.927928 -20.8 
L 81.871071 -20.8 
L 81.814214 -20.8 
L 81.757357 -20.8 
L 81.700501 -20.8 
L 81.643644 -20.8 
L 81.586787 -20.8 
L 81.52993 -20.8 
L 81.473073 -20.8 
L 81.416216 -20.8 
L 81.359359 -20.8 
L 81.302503 -20.8 
L 81.245646 -20.8 
L 81.188789 -20.8 
L 81.131932 -20.8 
L 81.075075 -20.8 
L 81.018218 -20.8 
L 80.961361 -20.8 
L 80.904505 -20.8 
L 80.847648 -20.8 
L 80.790791 -20.8 
L 80.733934 -20.8 
L 80.677077 -20.8 
L 80.62022 -20.8 
L 80.563363 -20.8 
L 80.506507 -20.8 
L 80.44965 -20.8 
L 80.392793 -20.8 
L 80.335936 -20.8 
L 80.279079 -20.8 
L 80.222222 -20.8 
L 80.165365 -20.8 
L 80.108509 -20.8 
L 80.051652 -20.8 
L 79.994795 -20.8 
L 79.937938 -20.8 
L 79.881081 -20.8 
L 79.824224 -20.8 
L 79.767367 -20.8 
L 79.710511 -20.8 
L 79.653654 -20.8 
L 79.596797 -20.8 
L 79.53994 -20.8 
L 79.483083 -20.8 
L 79.426226 -20.8 
L 79.369369 -20.8 
L 79.312513 -20.8 
L 79.255656 -20.8 
L 79.198799 -20.8 
L 79.141942 -20.8 
L 79.085085 -20.8 
L 79.028228 -20.8 
L 78.971371 -20.8 
L 78.914515 -20.8 
L 78.857658 -20.8 
L 78.800801 -20.8 
L 78.743944 -20.8 
L 78.687087 -20.8 
L 78.63023 -20.8 
L 78.573373 -20.8 
L 78.516517 -20.8 
L 78.45966 -20.8 
L 78.402803 -20.8 
L 78.345946 -20.8 
L 78.289089 -20.8 
L 78.232232 -20.8 
L 78.175375 -20.8 
L 78.118519 -20.8 
L 78.061662 -20.8 
L 78.004805 -20.8 
L 77.947948 -20.8 
L 77.891091 -20.8 
L 77.834234 -20.8 
L 77.777377 -20.8 
L 77.720521 -20.8 
L 77.663664 -20.8 
L 77.606807 -20.8 
L 77.54995 -20.8 
L 77.493093 -20.8 
L 77.436236 -20.8 
L 77.379379 -20.8 
L 77.322523 -20.8 
L 77.265666 -20.8 
L 77.208809 -20.8 
L 77.151952 -20.8 
L 77.095095 -20.8 
L 77.038238 -20.8 
L 76.981381 -20.8 
L 76.924525 -20.8 
L 76.867668 -20.8 
L 76.810811 -20.8 
L 76.753954 -20.8 
L 76.697097 -20.8 
L 76.64024 -20.8 
L 76.583383 -20.8 
L 76.526527 -20.8 
L 76.46967 -20.8 
L 76.412813 -20.8 
L 76.355956 -20.8 
L 76.299099 -20.8 
L 76.242242 -20.8 
L 76.185385 -20.8 
L 76.128529 -20.8 
L 76.071672 -20.8 
L 76.014815 -20.8 
L 75.957958 -20.8 
L 75.901101 -20.8 
L 75.844244 -20.8 
L 75.787387 -20.8 
L 75.730531 -20.8 
L 75.673674 -20.8 
L 75.616817 -20.8 
L 75.55996 -20.8 
L 75.503103 -20.8 
L 75.446246 -20.8 
L 75.389389 -20.8 
L 75.332533 -20.8 
L 75.275676 -20.8 
L 75.218819 -20.8 
L 75.161962 -20.8 
L 75.105105 -20.8 
L 75.048248 -20.8 
L 74.991391 -20.8 
L 74.934535 -20.8 
L 74.877678 -20.8 
L 74.820821 -20.8 
L 74.763964 -20.8 
L 74.707107 -20.8 
L 74.65025 -20.8 
L 74.593393 -20.8 
L 74.536537 -20.8 
L 74.47968 -20.8 
L 74.422823 -20.8 
L 74.365966 -20.8 
L 74.309109 -20.8 
L 74.252252 -20.8 
L 74.195395 -20.8 
L 74.138539 -20.8 
L 74.081682 -20.8 
L 74.024825 -20.8 
L 73.967968 -20.8 
L 73.911111 -20.8 
L 73.854254 -20.8 
L 73.797397 -20.8 
L 73.740541 -20.8 
L 73.683684 -20.8 
L 73.626827 -20.8 
L 73.56997 -20.8 
L 73.513113 -20.8 
L 73.456256 -20.8 
L 73.399399 -20.8 
L 73.342543 -20.8 
L 73.285686 -20.8 
L 73.228829 -20.8 
L 73.171972 -20.8 
L 73.115115 -20.8 
L 73.058258 -20.8 
L 73.001401 -20.8 
L 72.944545 -20.8 
L 72.887688 -20.8 
L 72.830831 -20.8 
L 72.773974 -20.8 
L 72.717117 -20.8 
L 72.66026 -20.8 
L 72.603403 -20.8 
L 72.546547 -20.8 
L 72.48969 -20.8 
L 72.432833 -20.8 
L 72.375976 -20.8 
L 72.319119 -20.8 
L 72.262262 -20.8 
L 72.205405 -20.8 
L 72.148549 -20.8 
L 72.091692 -20.8 
L 72.034835 -20.8 
L 71.977978 -20.8 
L 71.921121 -20.8 
L 71.864264 -20.8 
L 71.807407 -20.8 
L 71.750551 -20.8 
L 71.693694 -20.8 
L 71.636837 -20.8 
L 71.57998 -20.8 
L 71.523123 -20.8 
L 71.466266 -20.8 
L 71.409409 -20.8 
L 71.352553 -20.8 
L 71.295696 -20.8 
L 71.238839 -20.8 
L 71.181982 -20.8 
L 71.125125 -20.8 
L 71.068268 -20.8 
L 71.011411 -20.8 
L 70.954555 -20.8 
L 70.897698 -20.8 
L 70.840841 -20.8 
L 70.783984 -20.8 
L 70.727127 -20.8 
L 70.67027 -20.8 
L 70.613413 -20.8 
L 70.556557 -20.8 
L 70.4997 -20.8 
L 70.442843 -20.8 
L 70.385986 -20.8 
L 70.329129 -20.8 
L 70.272272 -20.8 
L 70.215415 -20.8 
L 70.158559 -20.8 
L 70.101702 -20.8 
L 70.044845 -20.8 
L 69.987988 -20.8 
L 69.931131 -20.8 
L 69.874274 -20.8 
L 69.817417 -20.8 
L 69.760561 -20.8 
L 69.703704 -20.8 
L 69.646847 -20.8 
L 69.58999 -20.8 
L 69.533133 -20.8 
L 69.476276 -20.8 
L 69.419419 -20.8 
L 69.362563 -20.8 
L 69.305706 -20.8 
L 69.248849 -20.8 
L 69.191992 -20.8 
L 69.135135 -20.8 
L 69.078278 -20.8 
L 69.021421 -20.8 
L 68.964565 -20.8 
L 68.907708 -20.8 
L 68.850851 -20.8 
L 68.793994 -20.8 
L 68.737137 -20.8 
L 68.68028 -20.8 
L 68.623423 -20.8 
L 68.566567 -20.8 
L 68.50971 -20.8 
L 68.452853 -20.8 
L 68.395996 -20.8 
L 68.339139 -20.8 
L 68.282282 -20.8 
L 68.225425 -20.8 
L 68.168569 -20.8 
L 68.111712 -20.8 
L 68.054855 -20.8 
L 67.997998 -20.8 
L 67.941141 -20.8 
L 67.884284 -20.8 
L 67.827427 -20.8 
L 67.770571 -20.8 
L 67.713714 -20.8 
L 67.656857 -20.8 
L 67.6 -20.8 
z
" style="stroke: #949494; stroke-opacity: 0.5"/>
    </defs>
    <g clip-path="url(#pce31288fc5)">
     <use xlink:href="#mb4d14120ad" x="0" y="288" style="fill: #949494; fill-opacity: 0.5; stroke: #949494; stroke-opacity: 0.5"/>
    </g>
   </g>
   <g id="patch_3">
    <path d="M 42.04 267.2 
L 93.16 267.2 
L 93.16 194.047237 
L 42.04 194.047237 
z
" clip-path="url(#pce31288fc5)" style="fill: #de8f05; opacity: 0.8"/>
   </g>
   <g id="patch_4">
    <path d="M 98.84 267.2 
L 149.96 267.2 
L 149.96 263.723508 
L 98.84 263.723508 
z
" clip-path="url(#pce31288fc5)" style="fill: #0173b2; opacity: 0.8"/>
   </g>
   <g id="matplotlib.axis_1">
    <g id="xtick_1">
     <g id="line2d_1">
      <defs>
       <path id="m3deceac16a" d="M 0 0 
L 0 10 
" style="stroke: #000000; stroke-width: 4"/>
      </defs>
      <g>
       <use xlink:href="#m3deceac16a" x="67.6" y="267.2" style="stroke: #000000; stroke-width: 4"/>
      </g>
     </g>
    </g>
    <g id="xtick_2">
     <g id="line2d_2">
      <g>
       <use xlink:href="#m3deceac16a" x="124.4" y="267.2" style="stroke: #000000; stroke-width: 4"/>
      </g>
     </g>
    </g>
   </g>
   <g id="matplotlib.axis_2"/>
   <g id="patch_5">
    <path d="M 10.8 267.2 
L 10.8 10.8 
" style="fill: none; stroke: #000000; stroke-width: 4; stroke-linejoin: miter; stroke-linecap: square"/>
   </g>
   <g id="patch_6">
    <path d="M 10.8 267.2 
L 181.2 267.2 
" style="fill: none; stroke: #000000; stroke-width: 4; stroke-linejoin: miter; stroke-linecap: square"/>
   </g>
  </g>
 </g>
 <defs>
  <clipPath id="pce31288fc5">
   <rect x="10.8" y="10.8" width="170.4" height="256.4"/>
  </clipPath>
 </defs>
</svg>
