<?xml version="1.0" encoding="utf-8" standalone="no"?>
<!DOCTYPE svg PUBLIC "-//W3C//DTD SVG 1.1//EN"
  "http://www.w3.org/Graphics/SVG/1.1/DTD/svg11.dtd">
<svg xmlns:xlink="http://www.w3.org/1999/xlink" width="288pt" height="288pt" viewBox="0 0 288 288" xmlns="http://www.w3.org/2000/svg" version="1.1">
 <metadata>
  <rdf:RDF xmlns:dc="http://purl.org/dc/elements/1.1/" xmlns:cc="http://creativecommons.org/ns#" xmlns:rdf="http://www.w3.org/1999/02/22-rdf-syntax-ns#">
   <cc:Work>
    <dc:type rdf:resource="http://purl.org/dc/dcmitype/StillImage"/>
    <dc:date>2025-01-21T19:00:56.618745</dc:date>
    <dc:format>image/svg+xml</dc:format>
    <dc:creator>
     <cc:Agent>
      <dc:title>Matplotlib v3.9.0, https://matplotlib.org/</dc:title>
     </cc:Agent>
    </dc:creator>
   </cc:Work>
  </rdf:RDF>
 </metadata>
 <defs>
  <style type="text/css">*{stroke-linejoin: round; stroke-linecap: butt}</style>
 </defs>
 <g id="figure_1">
  <g id="patch_1">
   <path d="M 0 288 
L 288 288 
L 288 0 
L 0 0 
z
" style="fill: #ffffff"/>
  </g>
  <g id="axes_1">
   <g id="patch_2">
    <path d="M 10.8 267.2 
L 277.2 267.2 
L 277.2 10.8 
L 10.8 10.8 
z
" style="fill: #ffffff"/>
   </g>
   <g id="PolyCollection_1">
    <defs>
     <path id="m8125ffc360" d="M 77.4 -20.8 
L 77.4 -20.881917 
L 77.466633 -20.882575 
L 77.533267 -20.883238 
L 77.5999 -20.883906 
L 77.666533 -20.884579 
L 77.733167 -20.885257 
L 77.7998 -20.885941 
L 77.866433 -20.886629 
L 77.933067 -20.887322 
L 77.9997 -20.888021 
L 78.066333 -20.888725 
L 78.132966 -20.889434 
L 78.1996 -20.890149 
L 78.266233 -20.890869 
L 78.332866 -20.891594 
L 78.3995 -20.892325 
L 78.466133 -20.893061 
L 78.532766 -20.893803 
L 78.5994 -20.89455 
L 78.666033 -20.895303 
L 78.732666 -20.896061 
L 78.7993 -20.896825 
L 78.865933 -20.897595 
L 78.932566 -20.89837 
L 78.9992 -20.899151 
L 79.065833 -20.899938 
L 79.132466 -20.900731 
L 79.1991 -20.90153 
L 79.265733 -20.902334 
L 79.332366 -20.903145 
L 79.398999 -20.903962 
L 79.465633 -20.904784 
L 79.532266 -20.905613 
L 79.598899 -20.906448 
L 79.665533 -20.907289 
L 79.732166 -20.908136 
L 79.798799 -20.90899 
L 79.865433 -20.909849 
L 79.932066 -20.910716 
L 79.998699 -20.911588 
L 80.065333 -20.912467 
L 80.131966 -20.913353 
L 80.198599 -20.914244 
L 80.265233 -20.915143 
L 80.331866 -20.916048 
L 80.398499 -20.91696 
L 80.465133 -20.917878 
L 80.531766 -20.918803 
L 80.598399 -20.919735 
L 80.665033 -20.920674 
L 80.731666 -20.92162 
L 80.798299 -20.922572 
L 80.864932 -20.923532 
L 80.931566 -20.924498 
L 80.998199 -20.925472 
L 81.064832 -20.926453 
L 81.131466 -20.927441 
L 81.198099 -20.928436 
L 81.264732 -20.929438 
L 81.331366 -20.930448 
L 81.397999 -20.931464 
L 81.464632 -20.932489 
L 81.531266 -20.933521 
L 81.597899 -20.93456 
L 81.664532 -20.935607 
L 81.731166 -20.936661 
L 81.797799 -20.937723 
L 81.864432 -20.938793 
L 81.931066 -20.939871 
L 81.997699 -20.940956 
L 82.064332 -20.942049 
L 82.130965 -20.94315 
L 82.197599 -20.944259 
L 82.264232 -20.945377 
L 82.330865 -20.946502 
L 82.397499 -20.947635 
L 82.464132 -20.948776 
L 82.530765 -20.949926 
L 82.597399 -20.951084 
L 82.664032 -20.95225 
L 82.730665 -20.953425 
L 82.797299 -20.954608 
L 82.863932 -20.9558 
L 82.930565 -20.957 
L 82.997199 -20.958209 
L 83.063832 -20.959426 
L 83.130465 -20.960652 
L 83.197099 -20.961887 
L 83.263732 -20.963131 
L 83.330365 -20.964384 
L 83.396998 -20.965645 
L 83.463632 -20.966916 
L 83.530265 -20.968196 
L 83.596898 -20.969484 
L 83.663532 -20.970782 
L 83.730165 -20.97209 
L 83.796798 -20.973406 
L 83.863432 -20.974732 
L 83.930065 -20.976068 
L 83.996698 -20.977413 
L 84.063332 -20.978767 
L 84.129965 -20.980131 
L 84.196598 -20.981505 
L 84.263232 -20.982889 
L 84.329865 -20.984282 
L 84.396498 -20.985685 
L 84.463132 -20.987098 
L 84.529765 -20.988521 
L 84.596398 -20.989955 
L 84.663032 -20.991398 
L 84.729665 -20.992851 
L 84.796298 -20.994315 
L 84.862931 -20.995789 
L 84.929565 -20.997274 
L 84.996198 -20.998769 
L 85.062831 -21.000274 
L 85.129465 -21.00179 
L 85.196098 -21.003317 
L 85.262731 -21.004855 
L 85.329365 -21.006403 
L 85.395998 -21.007962 
L 85.462631 -21.009532 
L 85.529265 -21.011113 
L 85.595898 -21.012705 
L 85.662531 -21.014309 
L 85.729165 -21.015923 
L 85.795798 -21.017549 
L 85.862431 -21.019186 
L 85.929065 -21.020835 
L 85.995698 -21.022495 
L 86.062331 -21.024167 
L 86.128964 -21.02585 
L 86.195598 -21.027545 
L 86.262231 -21.029252 
L 86.328864 -21.030971 
L 86.395498 -21.032702 
L 86.462131 -21.034445 
L 86.528764 -21.036199 
L 86.595398 -21.037967 
L 86.662031 -21.039746 
L 86.728664 -21.041538 
L 86.795298 -21.043342 
L 86.861931 -21.045158 
L 86.928564 -21.046987 
L 86.995198 -21.048829 
L 87.061831 -21.050684 
L 87.128464 -21.052551 
L 87.195098 -21.054431 
L 87.261731 -21.056325 
L 87.328364 -21.058231 
L 87.394997 -21.06015 
L 87.461631 -21.062083 
L 87.528264 -21.064029 
L 87.594897 -21.065988 
L 87.661531 -21.067961 
L 87.728164 -21.069947 
L 87.794797 -21.071947 
L 87.861431 -21.073961 
L 87.928064 -21.075988 
L 87.994697 -21.07803 
L 88.061331 -21.080085 
L 88.127964 -21.082154 
L 88.194597 -21.084238 
L 88.261231 -21.086336 
L 88.327864 -21.088448 
L 88.394497 -21.090574 
L 88.461131 -21.092715 
L 88.527764 -21.094871 
L 88.594397 -21.097041 
L 88.661031 -21.099227 
L 88.727664 -21.101427 
L 88.794297 -21.103641 
L 88.86093 -21.105871 
L 88.927564 -21.108117 
L 88.994197 -21.110377 
L 89.06083 -21.112653 
L 89.127464 -21.114944 
L 89.194097 -21.11725 
L 89.26073 -21.119573 
L 89.327364 -21.121911 
L 89.393997 -21.124264 
L 89.46063 -21.126634 
L 89.527264 -21.12902 
L 89.593897 -21.131422 
L 89.66053 -21.13384 
L 89.727164 -21.136274 
L 89.793797 -21.138724 
L 89.86043 -21.141192 
L 89.927064 -21.143675 
L 89.993697 -21.146176 
L 90.06033 -21.148693 
L 90.126963 -21.151227 
L 90.193597 -21.153778 
L 90.26023 -21.156347 
L 90.326863 -21.158932 
L 90.393497 -21.161535 
L 90.46013 -21.164155 
L 90.526763 -21.166793 
L 90.593397 -21.169448 
L 90.66003 -21.172121 
L 90.726663 -21.174812 
L 90.793297 -21.177521 
L 90.85993 -21.180248 
L 90.926563 -21.182993 
L 90.993197 -21.185756 
L 91.05983 -21.188538 
L 91.126463 -21.191338 
L 91.193097 -21.194157 
L 91.25973 -21.196994 
L 91.326363 -21.199851 
L 91.392996 -21.202726 
L 91.45963 -21.20562 
L 91.526263 -21.208534 
L 91.592896 -21.211466 
L 91.65953 -21.214419 
L 91.726163 -21.21739 
L 91.792796 -21.220382 
L 91.85943 -21.223393 
L 91.926063 -21.226424 
L 91.992696 -21.229474 
L 92.05933 -21.232545 
L 92.125963 -21.235637 
L 92.192596 -21.238748 
L 92.25923 -21.24188 
L 92.325863 -21.245033 
L 92.392496 -21.248206 
L 92.45913 -21.2514 
L 92.525763 -21.254615 
L 92.592396 -21.257851 
L 92.65903 -21.261108 
L 92.725663 -21.264387 
L 92.792296 -21.267687 
L 92.858929 -21.271009 
L 92.925563 -21.274352 
L 92.992196 -21.277717 
L 93.058829 -21.281104 
L 93.125463 -21.284513 
L 93.192096 -21.287945 
L 93.258729 -21.291398 
L 93.325363 -21.294874 
L 93.391996 -21.298373 
L 93.458629 -21.301895 
L 93.525263 -21.305439 
L 93.591896 -21.309006 
L 93.658529 -21.312597 
L 93.725163 -21.31621 
L 93.791796 -21.319847 
L 93.858429 -21.323508 
L 93.925063 -21.327192 
L 93.991696 -21.3309 
L 94.058329 -21.334632 
L 94.124962 -21.338388 
L 94.191596 -21.342169 
L 94.258229 -21.345973 
L 94.324862 -21.349803 
L 94.391496 -21.353656 
L 94.458129 -21.357535 
L 94.524762 -21.361438 
L 94.591396 -21.365367 
L 94.658029 -21.369321 
L 94.724662 -21.3733 
L 94.791296 -21.377305 
L 94.857929 -21.381335 
L 94.924562 -21.385391 
L 94.991196 -21.389473 
L 95.057829 -21.393581 
L 95.124462 -21.397715 
L 95.191096 -21.401876 
L 95.257729 -21.406063 
L 95.324362 -21.410277 
L 95.390995 -21.414518 
L 95.457629 -21.418786 
L 95.524262 -21.423081 
L 95.590895 -21.427403 
L 95.657529 -21.431753 
L 95.724162 -21.43613 
L 95.790795 -21.440535 
L 95.857429 -21.444968 
L 95.924062 -21.449429 
L 95.990695 -21.453918 
L 96.057329 -21.458436 
L 96.123962 -21.462982 
L 96.190595 -21.467557 
L 96.257229 -21.472161 
L 96.323862 -21.476794 
L 96.390495 -21.481456 
L 96.457129 -21.486148 
L 96.523762 -21.490869 
L 96.590395 -21.495619 
L 96.657029 -21.5004 
L 96.723662 -21.50521 
L 96.790295 -21.510051 
L 96.856928 -21.514922 
L 96.923562 -21.519824 
L 96.990195 -21.524756 
L 97.056828 -21.52972 
L 97.123462 -21.534714 
L 97.190095 -21.539739 
L 97.256728 -21.544796 
L 97.323362 -21.549885 
L 97.389995 -21.555005 
L 97.456628 -21.560157 
L 97.523262 -21.565341 
L 97.589895 -21.570558 
L 97.656528 -21.575807 
L 97.723162 -21.581088 
L 97.789795 -21.586403 
L 97.856428 -21.59175 
L 97.923062 -21.597131 
L 97.989695 -21.602545 
L 98.056328 -21.607992 
L 98.122961 -21.613473 
L 98.189595 -21.618988 
L 98.256228 -21.624537 
L 98.322861 -21.630121 
L 98.389495 -21.635739 
L 98.456128 -21.641391 
L 98.522761 -21.647078 
L 98.589395 -21.652801 
L 98.656028 -21.658558 
L 98.722661 -21.664352 
L 98.789295 -21.67018 
L 98.855928 -21.676045 
L 98.922561 -21.681945 
L 98.989195 -21.687882 
L 99.055828 -21.693855 
L 99.122461 -21.699864 
L 99.189095 -21.70591 
L 99.255728 -21.711994 
L 99.322361 -21.718114 
L 99.388994 -21.724272 
L 99.455628 -21.730468 
L 99.522261 -21.736701 
L 99.588894 -21.742972 
L 99.655528 -21.749281 
L 99.722161 -21.755629 
L 99.788794 -21.762015 
L 99.855428 -21.768441 
L 99.922061 -21.774905 
L 99.988694 -21.781408 
L 100.055328 -21.787951 
L 100.121961 -21.794534 
L 100.188594 -21.801156 
L 100.255228 -21.807818 
L 100.321861 -21.814521 
L 100.388494 -21.821264 
L 100.455128 -21.828048 
L 100.521761 -21.834873 
L 100.588394 -21.841738 
L 100.655028 -21.848646 
L 100.721661 -21.855594 
L 100.788294 -21.862585 
L 100.854927 -21.869618 
L 100.921561 -21.876693 
L 100.988194 -21.88381 
L 101.054827 -21.89097 
L 101.121461 -21.898173 
L 101.188094 -21.905419 
L 101.254727 -21.912708 
L 101.321361 -21.920041 
L 101.387994 -21.927418 
L 101.454627 -21.934839 
L 101.521261 -21.942304 
L 101.587894 -21.949813 
L 101.654527 -21.957368 
L 101.721161 -21.964967 
L 101.787794 -21.972611 
L 101.854427 -21.980301 
L 101.921061 -21.988037 
L 101.987694 -21.995818 
L 102.054327 -22.003646 
L 102.12096 -22.01152 
L 102.187594 -22.019441 
L 102.254227 -22.027408 
L 102.32086 -22.035423 
L 102.387494 -22.043485 
L 102.454127 -22.051595 
L 102.52076 -22.059752 
L 102.587394 -22.067957 
L 102.654027 -22.076211 
L 102.72066 -22.084514 
L 102.787294 -22.092865 
L 102.853927 -22.101266 
L 102.92056 -22.109715 
L 102.987194 -22.118215 
L 103.053827 -22.126764 
L 103.12046 -22.135363 
L 103.187094 -22.144013 
L 103.253727 -22.152713 
L 103.32036 -22.161464 
L 103.386993 -22.170266 
L 103.453627 -22.17912 
L 103.52026 -22.188025 
L 103.586893 -22.196982 
L 103.653527 -22.205991 
L 103.72016 -22.215053 
L 103.786793 -22.224168 
L 103.853427 -22.233335 
L 103.92006 -22.242556 
L 103.986693 -22.25183 
L 104.053327 -22.261158 
L 104.11996 -22.27054 
L 104.186593 -22.279976 
L 104.253227 -22.289467 
L 104.31986 -22.299013 
L 104.386493 -22.308614 
L 104.453127 -22.31827 
L 104.51976 -22.327982 
L 104.586393 -22.33775 
L 104.653027 -22.347574 
L 104.71966 -22.357455 
L 104.786293 -22.367392 
L 104.852926 -22.377387 
L 104.91956 -22.387439 
L 104.986193 -22.397549 
L 105.052826 -22.407716 
L 105.11946 -22.417942 
L 105.186093 -22.428226 
L 105.252726 -22.43857 
L 105.31936 -22.448972 
L 105.385993 -22.459434 
L 105.452626 -22.469955 
L 105.51926 -22.480536 
L 105.585893 -22.491178 
L 105.652526 -22.50188 
L 105.71916 -22.512643 
L 105.785793 -22.523467 
L 105.852426 -22.534353 
L 105.91906 -22.545301 
L 105.985693 -22.55631 
L 106.052326 -22.567382 
L 106.118959 -22.578517 
L 106.185593 -22.589714 
L 106.252226 -22.600975 
L 106.318859 -22.612299 
L 106.385493 -22.623688 
L 106.452126 -22.63514 
L 106.518759 -22.646657 
L 106.585393 -22.658239 
L 106.652026 -22.669886 
L 106.718659 -22.681599 
L 106.785293 -22.693377 
L 106.851926 -22.705222 
L 106.918559 -22.717133 
L 106.985193 -22.72911 
L 107.051826 -22.741155 
L 107.118459 -22.753267 
L 107.185093 -22.765447 
L 107.251726 -22.777694 
L 107.318359 -22.790011 
L 107.384992 -22.802395 
L 107.451626 -22.814849 
L 107.518259 -22.827372 
L 107.584892 -22.839965 
L 107.651526 -22.852628 
L 107.718159 -22.865361 
L 107.784792 -22.878165 
L 107.851426 -22.89104 
L 107.918059 -22.903986 
L 107.984692 -22.917004 
L 108.051326 -22.930094 
L 108.117959 -22.943256 
L 108.184592 -22.956491 
L 108.251226 -22.969799 
L 108.317859 -22.98318 
L 108.384492 -22.996635 
L 108.451126 -23.010164 
L 108.517759 -23.023768 
L 108.584392 -23.037446 
L 108.651026 -23.0512 
L 108.717659 -23.065029 
L 108.784292 -23.078933 
L 108.850925 -23.092914 
L 108.917559 -23.106972 
L 108.984192 -23.121106 
L 109.050825 -23.135318 
L 109.117459 -23.149607 
L 109.184092 -23.163974 
L 109.250725 -23.17842 
L 109.317359 -23.192944 
L 109.383992 -23.207547 
L 109.450625 -23.22223 
L 109.517259 -23.236992 
L 109.583892 -23.251835 
L 109.650525 -23.266758 
L 109.717159 -23.281762 
L 109.783792 -23.296847 
L 109.850425 -23.312014 
L 109.917059 -23.327263 
L 109.983692 -23.342594 
L 110.050325 -23.358008 
L 110.116958 -23.373506 
L 110.183592 -23.389086 
L 110.250225 -23.404751 
L 110.316858 -23.4205 
L 110.383492 -23.436334 
L 110.450125 -23.452252 
L 110.516758 -23.468256 
L 110.583392 -23.484346 
L 110.650025 -23.500522 
L 110.716658 -23.516785 
L 110.783292 -23.533135 
L 110.849925 -23.549572 
L 110.916558 -23.566097 
L 110.983192 -23.58271 
L 111.049825 -23.599411 
L 111.116458 -23.616202 
L 111.183092 -23.633082 
L 111.249725 -23.650051 
L 111.316358 -23.667111 
L 111.382991 -23.684262 
L 111.449625 -23.701503 
L 111.516258 -23.718836 
L 111.582891 -23.736261 
L 111.649525 -23.753777 
L 111.716158 -23.771387 
L 111.782791 -23.789089 
L 111.849425 -23.806885 
L 111.916058 -23.824775 
L 111.982691 -23.842758 
L 112.049325 -23.860837 
L 112.115958 -23.879011 
L 112.182591 -23.89728 
L 112.249225 -23.915645 
L 112.315858 -23.934106 
L 112.382491 -23.952664 
L 112.449125 -23.97132 
L 112.515758 -23.990073 
L 112.582391 -24.008924 
L 112.649025 -24.027873 
L 112.715658 -24.046922 
L 112.782291 -24.06607 
L 112.848924 -24.085317 
L 112.915558 -24.104665 
L 112.982191 -24.124113 
L 113.048824 -24.143662 
L 113.115458 -24.163313 
L 113.182091 -24.183066 
L 113.248724 -24.202921 
L 113.315358 -24.22288 
L 113.381991 -24.242941 
L 113.448624 -24.263106 
L 113.515258 -24.283375 
L 113.581891 -24.303749 
L 113.648524 -24.324228 
L 113.715158 -24.344812 
L 113.781791 -24.365502 
L 113.848424 -24.386299 
L 113.915058 -24.407203 
L 113.981691 -24.428214 
L 114.048324 -24.449332 
L 114.114957 -24.470559 
L 114.181591 -24.491895 
L 114.248224 -24.513339 
L 114.314857 -24.534894 
L 114.381491 -24.556558 
L 114.448124 -24.578333 
L 114.514757 -24.600219 
L 114.581391 -24.622216 
L 114.648024 -24.644326 
L 114.714657 -24.666548 
L 114.781291 -24.688882 
L 114.847924 -24.71133 
L 114.914557 -24.733892 
L 114.981191 -24.756568 
L 115.047824 -24.779359 
L 115.114457 -24.802265 
L 115.181091 -24.825287 
L 115.247724 -24.848425 
L 115.314357 -24.87168 
L 115.38099 -24.895052 
L 115.447624 -24.918542 
L 115.514257 -24.942149 
L 115.58089 -24.965876 
L 115.647524 -24.989721 
L 115.714157 -25.013687 
L 115.78079 -25.037772 
L 115.847424 -25.061978 
L 115.914057 -25.086305 
L 115.98069 -25.110754 
L 116.047324 -25.135324 
L 116.113957 -25.160018 
L 116.18059 -25.184834 
L 116.247224 -25.209774 
L 116.313857 -25.234838 
L 116.38049 -25.260027 
L 116.447124 -25.285341 
L 116.513757 -25.31078 
L 116.58039 -25.336345 
L 116.647024 -25.362038 
L 116.713657 -25.387857 
L 116.78029 -25.413804 
L 116.846923 -25.439879 
L 116.913557 -25.466083 
L 116.98019 -25.492416 
L 117.046823 -25.518879 
L 117.113457 -25.545471 
L 117.18009 -25.572195 
L 117.246723 -25.59905 
L 117.313357 -25.626037 
L 117.37999 -25.653156 
L 117.446623 -25.680408 
L 117.513257 -25.707793 
L 117.57989 -25.735313 
L 117.646523 -25.762966 
L 117.713157 -25.790755 
L 117.77979 -25.818679 
L 117.846423 -25.846739 
L 117.913057 -25.874936 
L 117.97969 -25.90327 
L 118.046323 -25.931741 
L 118.112956 -25.960351 
L 118.17959 -25.989099 
L 118.246223 -26.017987 
L 118.312856 -26.047014 
L 118.37949 -26.076182 
L 118.446123 -26.105491 
L 118.512756 -26.134941 
L 118.57939 -26.164533 
L 118.646023 -26.194268 
L 118.712656 -26.224146 
L 118.77929 -26.254167 
L 118.845923 -26.284333 
L 118.912556 -26.314643 
L 118.97919 -26.345099 
L 119.045823 -26.375701 
L 119.112456 -26.406449 
L 119.17909 -26.437344 
L 119.245723 -26.468386 
L 119.312356 -26.499577 
L 119.378989 -26.530916 
L 119.445623 -26.562405 
L 119.512256 -26.594043 
L 119.578889 -26.625832 
L 119.645523 -26.657772 
L 119.712156 -26.689863 
L 119.778789 -26.722107 
L 119.845423 -26.754503 
L 119.912056 -26.787052 
L 119.978689 -26.819755 
L 120.045323 -26.852613 
L 120.111956 -26.885625 
L 120.178589 -26.918793 
L 120.245223 -26.952117 
L 120.311856 -26.985598 
L 120.378489 -27.019237 
L 120.445123 -27.053033 
L 120.511756 -27.086987 
L 120.578389 -27.121101 
L 120.645023 -27.155374 
L 120.711656 -27.189808 
L 120.778289 -27.224402 
L 120.844922 -27.259158 
L 120.911556 -27.294076 
L 120.978189 -27.329157 
L 121.044822 -27.3644 
L 121.111456 -27.399808 
L 121.178089 -27.43538 
L 121.244722 -27.471117 
L 121.311356 -27.50702 
L 121.377989 -27.543088 
L 121.444622 -27.579324 
L 121.511256 -27.615727 
L 121.577889 -27.652298 
L 121.644522 -27.689038 
L 121.711156 -27.725947 
L 121.777789 -27.763026 
L 121.844422 -27.800275 
L 121.911056 -27.837696 
L 121.977689 -27.875288 
L 122.044322 -27.913052 
L 122.110955 -27.95099 
L 122.177589 -27.989101 
L 122.244222 -28.027386 
L 122.310855 -28.065846 
L 122.377489 -28.104481 
L 122.444122 -28.143292 
L 122.510755 -28.18228 
L 122.577389 -28.221446 
L 122.644022 -28.260789 
L 122.710655 -28.300311 
L 122.777289 -28.340011 
L 122.843922 -28.379892 
L 122.910555 -28.419953 
L 122.977189 -28.460196 
L 123.043822 -28.500619 
L 123.110455 -28.541226 
L 123.177089 -28.582015 
L 123.243722 -28.622988 
L 123.310355 -28.664145 
L 123.376988 -28.705487 
L 123.443622 -28.747014 
L 123.510255 -28.788728 
L 123.576888 -28.830628 
L 123.643522 -28.872716 
L 123.710155 -28.914992 
L 123.776788 -28.957456 
L 123.843422 -29.00011 
L 123.910055 -29.042954 
L 123.976688 -29.085989 
L 124.043322 -29.129215 
L 124.109955 -29.172633 
L 124.176588 -29.216244 
L 124.243222 -29.260048 
L 124.309855 -29.304046 
L 124.376488 -29.348238 
L 124.443122 -29.392626 
L 124.509755 -29.437209 
L 124.576388 -29.481989 
L 124.643022 -29.526967 
L 124.709655 -29.572142 
L 124.776288 -29.617516 
L 124.842921 -29.663089 
L 124.909555 -29.708862 
L 124.976188 -29.754835 
L 125.042821 -29.80101 
L 125.109455 -29.847386 
L 125.176088 -29.893965 
L 125.242721 -29.940748 
L 125.309355 -29.987734 
L 125.375988 -30.034924 
L 125.442621 -30.08232 
L 125.509255 -30.129922 
L 125.575888 -30.17773 
L 125.642521 -30.225746 
L 125.709155 -30.273969 
L 125.775788 -30.322401 
L 125.842421 -30.371043 
L 125.909055 -30.419894 
L 125.975688 -30.468956 
L 126.042321 -30.518229 
L 126.108954 -30.567714 
L 126.175588 -30.617412 
L 126.242221 -30.667324 
L 126.308854 -30.717449 
L 126.375488 -30.767789 
L 126.442121 -30.818344 
L 126.508754 -30.869116 
L 126.575388 -30.920104 
L 126.642021 -30.97131 
L 126.708654 -31.022734 
L 126.775288 -31.074376 
L 126.841921 -31.126239 
L 126.908554 -31.178321 
L 126.975188 -31.230625 
L 127.041821 -31.28315 
L 127.108454 -31.335897 
L 127.175088 -31.388867 
L 127.241721 -31.442061 
L 127.308354 -31.49548 
L 127.374987 -31.549124 
L 127.441621 -31.602993 
L 127.508254 -31.657089 
L 127.574887 -31.711412 
L 127.641521 -31.765963 
L 127.708154 -31.820742 
L 127.774787 -31.875751 
L 127.841421 -31.93099 
L 127.908054 -31.98646 
L 127.974687 -32.042161 
L 128.041321 -32.098094 
L 128.107954 -32.15426 
L 128.174587 -32.210659 
L 128.241221 -32.267293 
L 128.307854 -32.324161 
L 128.374487 -32.381266 
L 128.441121 -32.438606 
L 128.507754 -32.496184 
L 128.574387 -32.553999 
L 128.641021 -32.612053 
L 128.707654 -32.670347 
L 128.774287 -32.72888 
L 128.84092 -32.787653 
L 128.907554 -32.846669 
L 128.974187 -32.905926 
L 129.04082 -32.965426 
L 129.107454 -33.025169 
L 129.174087 -33.085157 
L 129.24072 -33.145389 
L 129.307354 -33.205867 
L 129.373987 -33.266592 
L 129.44062 -33.327563 
L 129.507254 -33.388783 
L 129.573887 -33.450251 
L 129.64052 -33.511968 
L 129.707154 -33.573935 
L 129.773787 -33.636153 
L 129.84042 -33.698622 
L 129.907054 -33.761343 
L 129.973687 -33.824317 
L 130.04032 -33.887545 
L 130.106953 -33.951027 
L 130.173587 -34.014764 
L 130.24022 -34.078757 
L 130.306853 -34.143006 
L 130.373487 -34.207512 
L 130.44012 -34.272276 
L 130.506753 -34.337299 
L 130.573387 -34.402582 
L 130.64002 -34.468124 
L 130.706653 -34.533927 
L 130.773287 -34.599992 
L 130.83992 -34.666319 
L 130.906553 -34.732909 
L 130.973187 -34.799763 
L 131.03982 -34.866881 
L 131.106453 -34.934264 
L 131.173087 -35.001913 
L 131.23972 -35.069829 
L 131.306353 -35.138013 
L 131.372986 -35.206464 
L 131.43962 -35.275184 
L 131.506253 -35.344174 
L 131.572886 -35.413434 
L 131.63952 -35.482965 
L 131.706153 -35.552768 
L 131.772786 -35.622844 
L 131.83942 -35.693192 
L 131.906053 -35.763815 
L 131.972686 -35.834712 
L 132.03932 -35.905885 
L 132.105953 -35.977334 
L 132.172586 -36.049059 
L 132.23922 -36.121063 
L 132.305853 -36.193344 
L 132.372486 -36.265905 
L 132.43912 -36.338746 
L 132.505753 -36.411867 
L 132.572386 -36.485269 
L 132.63902 -36.558954 
L 132.705653 -36.632921 
L 132.772286 -36.707172 
L 132.838919 -36.781707 
L 132.905553 -36.856527 
L 132.972186 -36.931632 
L 133.038819 -37.007024 
L 133.105453 -37.082703 
L 133.172086 -37.15867 
L 133.238719 -37.234926 
L 133.305353 -37.311471 
L 133.371986 -37.388306 
L 133.438619 -37.465432 
L 133.505253 -37.542849 
L 133.571886 -37.620559 
L 133.638519 -37.698562 
L 133.705153 -37.776858 
L 133.771786 -37.855449 
L 133.838419 -37.934335 
L 133.905053 -38.013517 
L 133.971686 -38.092996 
L 134.038319 -38.172772 
L 134.104952 -38.252847 
L 134.171586 -38.33322 
L 134.238219 -38.413893 
L 134.304852 -38.494866 
L 134.371486 -38.57614 
L 134.438119 -38.657716 
L 134.504752 -38.739595 
L 134.571386 -38.821777 
L 134.638019 -38.904263 
L 134.704652 -38.987053 
L 134.771286 -39.070149 
L 134.837919 -39.153551 
L 134.904552 -39.23726 
L 134.971186 -39.321277 
L 135.037819 -39.405602 
L 135.104452 -39.490236 
L 135.171086 -39.57518 
L 135.237719 -39.660435 
L 135.304352 -39.746 
L 135.370985 -39.831878 
L 135.437619 -39.918069 
L 135.504252 -40.004572 
L 135.570885 -40.09139 
L 135.637519 -40.178523 
L 135.704152 -40.265972 
L 135.770785 -40.353737 
L 135.837419 -40.441819 
L 135.904052 -40.530218 
L 135.970685 -40.618937 
L 136.037319 -40.707974 
L 136.103952 -40.797331 
L 136.170585 -40.887009 
L 136.237219 -40.977009 
L 136.303852 -41.06733 
L 136.370485 -41.157975 
L 136.437119 -41.248942 
L 136.503752 -41.340234 
L 136.570385 -41.431851 
L 136.637019 -41.523794 
L 136.703652 -41.616063 
L 136.770285 -41.708659 
L 136.836918 -41.801583 
L 136.903552 -41.894836 
L 136.970185 -41.988417 
L 137.036818 -42.082329 
L 137.103452 -42.176571 
L 137.170085 -42.271145 
L 137.236718 -42.36605 
L 137.303352 -42.461289 
L 137.369985 -42.556861 
L 137.436618 -42.652767 
L 137.503252 -42.749008 
L 137.569885 -42.845584 
L 137.636518 -42.942497 
L 137.703152 -43.039747 
L 137.769785 -43.137334 
L 137.836418 -43.23526 
L 137.903052 -43.333525 
L 137.969685 -43.43213 
L 138.036318 -43.531075 
L 138.102951 -43.630362 
L 138.169585 -43.72999 
L 138.236218 -43.82996 
L 138.302851 -43.930274 
L 138.369485 -44.030932 
L 138.436118 -44.131935 
L 138.502751 -44.233283 
L 138.569385 -44.334977 
L 138.636018 -44.437017 
L 138.702651 -44.539405 
L 138.769285 -44.642141 
L 138.835918 -44.745226 
L 138.902551 -44.84866 
L 138.969185 -44.952444 
L 139.035818 -45.056579 
L 139.102451 -45.161065 
L 139.169085 -45.265904 
L 139.235718 -45.371095 
L 139.302351 -45.47664 
L 139.368984 -45.582539 
L 139.435618 -45.688792 
L 139.502251 -45.795402 
L 139.568884 -45.902367 
L 139.635518 -46.009689 
L 139.702151 -46.117369 
L 139.768784 -46.225406 
L 139.835418 -46.333803 
L 139.902051 -46.442559 
L 139.968684 -46.551675 
L 140.035318 -46.661152 
L 140.101951 -46.77099 
L 140.168584 -46.881191 
L 140.235218 -46.991754 
L 140.301851 -47.10268 
L 140.368484 -47.213971 
L 140.435118 -47.325626 
L 140.501751 -47.437646 
L 140.568384 -47.550033 
L 140.635018 -47.662786 
L 140.701651 -47.775906 
L 140.768284 -47.889394 
L 140.834917 -48.003251 
L 140.901551 -48.117477 
L 140.968184 -48.232073 
L 141.034817 -48.347039 
L 141.101451 -48.462376 
L 141.168084 -48.578085 
L 141.234717 -48.694166 
L 141.301351 -48.81062 
L 141.367984 -48.927448 
L 141.434617 -49.04465 
L 141.501251 -49.162227 
L 141.567884 -49.280179 
L 141.634517 -49.398507 
L 141.701151 -49.517211 
L 141.767784 -49.636293 
L 141.834417 -49.755753 
L 141.901051 -49.875592 
L 141.967684 -49.995809 
L 142.034317 -50.116406 
L 142.10095 -50.237383 
L 142.167584 -50.358741 
L 142.234217 -50.480481 
L 142.30085 -50.602603 
L 142.367484 -50.725107 
L 142.434117 -50.847995 
L 142.50075 -50.971266 
L 142.567384 -51.094922 
L 142.634017 -51.218963 
L 142.70065 -51.34339 
L 142.767284 -51.468202 
L 142.833917 -51.593402 
L 142.90055 -51.718988 
L 142.967184 -51.844963 
L 143.033817 -51.971326 
L 143.10045 -52.098078 
L 143.167084 -52.225219 
L 143.233717 -52.352751 
L 143.30035 -52.480674 
L 143.366983 -52.608987 
L 143.433617 -52.737693 
L 143.50025 -52.866791 
L 143.566883 -52.996282 
L 143.633517 -53.126166 
L 143.70015 -53.256444 
L 143.766783 -53.387117 
L 143.833417 -53.518185 
L 143.90005 -53.649649 
L 143.966683 -53.781509 
L 144.033317 -53.913765 
L 144.09995 -54.046419 
L 144.166583 -54.17947 
L 144.233217 -54.31292 
L 144.29985 -54.446769 
L 144.366483 -54.581017 
L 144.433117 -54.715664 
L 144.49975 -54.850712 
L 144.566383 -54.986161 
L 144.633017 -55.122012 
L 144.69965 -55.258264 
L 144.766283 -55.394919 
L 144.832916 -55.531976 
L 144.89955 -55.669437 
L 144.966183 -55.807302 
L 145.032816 -55.945571 
L 145.09945 -56.084244 
L 145.166083 -56.223324 
L 145.232716 -56.362809 
L 145.29935 -56.5027 
L 145.365983 -56.642998 
L 145.432616 -56.783704 
L 145.49925 -56.924817 
L 145.565883 -57.066338 
L 145.632516 -57.208268 
L 145.69915 -57.350607 
L 145.765783 -57.493355 
L 145.832416 -57.636514 
L 145.89905 -57.780083 
L 145.965683 -57.924063 
L 146.032316 -58.068454 
L 146.098949 -58.213257 
L 146.165583 -58.358472 
L 146.232216 -58.5041 
L 146.298849 -58.650141 
L 146.365483 -58.796596 
L 146.432116 -58.943464 
L 146.498749 -59.090747 
L 146.565383 -59.238445 
L 146.632016 -59.386558 
L 146.698649 -59.535087 
L 146.765283 -59.684031 
L 146.831916 -59.833392 
L 146.898549 -59.98317 
L 146.965183 -60.133365 
L 147.031816 -60.283978 
L 147.098449 -60.435008 
L 147.165083 -60.586458 
L 147.231716 -60.738325 
L 147.298349 -60.890613 
L 147.364982 -61.043319 
L 147.431616 -61.196446 
L 147.498249 -61.349993 
L 147.564882 -61.50396 
L 147.631516 -61.658349 
L 147.698149 -61.813158 
L 147.764782 -61.96839 
L 147.831416 -62.124044 
L 147.898049 -62.28012 
L 147.964682 -62.436619 
L 148.031316 -62.593541 
L 148.097949 -62.750886 
L 148.164582 -62.908655 
L 148.231216 -63.066848 
L 148.297849 -63.225466 
L 148.364482 -63.384509 
L 148.431116 -63.543976 
L 148.497749 -63.703869 
L 148.564382 -63.864188 
L 148.631016 -64.024932 
L 148.697649 -64.186103 
L 148.764282 -64.3477 
L 148.830915 -64.509725 
L 148.897549 -64.672176 
L 148.964182 -64.835055 
L 149.030815 -64.998362 
L 149.097449 -65.162097 
L 149.164082 -65.32626 
L 149.230715 -65.490851 
L 149.297349 -65.655871 
L 149.363982 -65.821321 
L 149.430615 -65.987199 
L 149.497249 -66.153508 
L 149.563882 -66.320246 
L 149.630515 -66.487414 
L 149.697149 -66.655012 
L 149.763782 -66.823041 
L 149.830415 -66.991501 
L 149.897049 -67.160392 
L 149.963682 -67.329714 
L 150.030315 -67.499467 
L 150.096948 -67.669652 
L 150.163582 -67.840269 
L 150.230215 -68.011318 
L 150.296848 -68.182799 
L 150.363482 -68.354713 
L 150.430115 -68.527059 
L 150.496748 -68.699838 
L 150.563382 -68.873051 
L 150.630015 -69.046696 
L 150.696648 -69.220774 
L 150.763282 -69.395287 
L 150.829915 -69.570232 
L 150.896548 -69.745612 
L 150.963182 -69.921426 
L 151.029815 -70.097673 
L 151.096448 -70.274356 
L 151.163082 -70.451472 
L 151.229715 -70.629023 
L 151.296348 -70.807009 
L 151.362981 -70.985429 
L 151.429615 -71.164285 
L 151.496248 -71.343575 
L 151.562881 -71.523301 
L 151.629515 -71.703462 
L 151.696148 -71.884058 
L 151.762781 -72.06509 
L 151.829415 -72.246557 
L 151.896048 -72.42846 
L 151.962681 -72.610799 
L 152.029315 -72.793573 
L 152.095948 -72.976784 
L 152.162581 -73.16043 
L 152.229215 -73.344512 
L 152.295848 -73.52903 
L 152.362481 -73.713985 
L 152.429115 -73.899375 
L 152.495748 -74.085202 
L 152.562381 -74.271465 
L 152.629015 -74.458164 
L 152.695648 -74.645299 
L 152.762281 -74.832871 
L 152.828914 -75.020879 
L 152.895548 -75.209323 
L 152.962181 -75.398204 
L 153.028814 -75.587521 
L 153.095448 -75.777274 
L 153.162081 -75.967464 
L 153.228714 -76.15809 
L 153.295348 -76.349152 
L 153.361981 -76.54065 
L 153.428614 -76.732585 
L 153.495248 -76.924956 
L 153.561881 -77.117763 
L 153.628514 -77.311006 
L 153.695148 -77.504685 
L 153.761781 -77.6988 
L 153.828414 -77.893351 
L 153.895048 -78.088338 
L 153.961681 -78.28376 
L 154.028314 -78.479618 
L 154.094947 -78.675912 
L 154.161581 -78.872641 
L 154.228214 -79.069806 
L 154.294847 -79.267406 
L 154.361481 -79.465441 
L 154.428114 -79.663912 
L 154.494747 -79.862817 
L 154.561381 -80.062157 
L 154.628014 -80.261932 
L 154.694647 -80.462141 
L 154.761281 -80.662785 
L 154.827914 -80.863863 
L 154.894547 -81.065375 
L 154.961181 -81.267321 
L 155.027814 -81.4697 
L 155.094447 -81.672514 
L 155.161081 -81.875761 
L 155.227714 -82.079441 
L 155.294347 -82.283554 
L 155.36098 -82.4881 
L 155.427614 -82.693079 
L 155.494247 -82.89849 
L 155.56088 -83.104334 
L 155.627514 -83.310609 
L 155.694147 -83.517317 
L 155.76078 -83.724455 
L 155.827414 -83.932026 
L 155.894047 -84.140027 
L 155.96068 -84.348459 
L 156.027314 -84.557322 
L 156.093947 -84.766615 
L 156.16058 -84.976338 
L 156.227214 -85.186491 
L 156.293847 -85.397074 
L 156.36048 -85.608086 
L 156.427114 -85.819526 
L 156.493747 -86.031396 
L 156.56038 -86.243693 
L 156.627014 -86.456419 
L 156.693647 -86.669573 
L 156.76028 -86.883154 
L 156.826913 -87.097162 
L 156.893547 -87.311596 
L 156.96018 -87.526457 
L 157.026813 -87.741745 
L 157.093447 -87.957458 
L 157.16008 -88.173596 
L 157.226713 -88.390159 
L 157.293347 -88.607147 
L 157.35998 -88.824559 
L 157.426613 -89.042395 
L 157.493247 -89.260654 
L 157.55988 -89.479337 
L 157.626513 -89.698442 
L 157.693147 -89.917969 
L 157.75978 -90.137918 
L 157.826413 -90.358289 
L 157.893047 -90.579081 
L 157.95968 -90.800293 
L 158.026313 -91.021925 
L 158.092946 -91.243977 
L 158.15958 -91.466448 
L 158.226213 -91.689338 
L 158.292846 -91.912646 
L 158.35948 -92.136372 
L 158.426113 -92.360516 
L 158.492746 -92.585076 
L 158.55938 -92.810052 
L 158.626013 -93.035445 
L 158.692646 -93.261252 
L 158.75928 -93.487475 
L 158.825913 -93.714112 
L 158.892546 -93.941162 
L 158.95918 -94.168626 
L 159.025813 -94.396503 
L 159.092446 -94.624792 
L 159.15908 -94.853492 
L 159.225713 -95.082604 
L 159.292346 -95.312126 
L 159.358979 -95.542057 
L 159.425613 -95.772399 
L 159.492246 -96.003149 
L 159.558879 -96.234307 
L 159.625513 -96.465872 
L 159.692146 -96.697845 
L 159.758779 -96.930224 
L 159.825413 -97.163009 
L 159.892046 -97.396199 
L 159.958679 -97.629793 
L 160.025313 -97.863791 
L 160.091946 -98.098192 
L 160.158579 -98.332996 
L 160.225213 -98.568202 
L 160.291846 -98.803809 
L 160.358479 -99.039816 
L 160.425113 -99.276223 
L 160.491746 -99.51303 
L 160.558379 -99.750235 
L 160.625013 -99.987837 
L 160.691646 -100.225837 
L 160.758279 -100.464233 
L 160.824912 -100.703024 
L 160.891546 -100.942211 
L 160.958179 -101.181792 
L 161.024812 -101.421766 
L 161.091446 -101.662132 
L 161.158079 -101.902891 
L 161.224712 -102.144041 
L 161.291346 -102.385581 
L 161.357979 -102.62751 
L 161.424612 -102.869829 
L 161.491246 -103.112535 
L 161.557879 -103.355629 
L 161.624512 -103.599109 
L 161.691146 -103.842975 
L 161.757779 -104.087225 
L 161.824412 -104.331859 
L 161.891046 -104.576877 
L 161.957679 -104.822277 
L 162.024312 -105.068058 
L 162.090945 -105.314219 
L 162.157579 -105.560761 
L 162.224212 -105.807681 
L 162.290845 -106.054979 
L 162.357479 -106.302654 
L 162.424112 -106.550706 
L 162.490745 -106.799133 
L 162.557379 -107.047934 
L 162.624012 -107.297108 
L 162.690645 -107.546655 
L 162.757279 -107.796574 
L 162.823912 -108.046863 
L 162.890545 -108.297523 
L 162.957179 -108.54855 
L 163.023812 -108.799946 
L 163.090445 -109.051709 
L 163.157079 -109.303837 
L 163.223712 -109.556331 
L 163.290345 -109.809188 
L 163.356978 -110.062409 
L 163.423612 -110.315991 
L 163.490245 -110.569934 
L 163.556878 -110.824238 
L 163.623512 -111.0789 
L 163.690145 -111.33392 
L 163.756778 -111.589297 
L 163.823412 -111.845029 
L 163.890045 -112.101117 
L 163.956678 -112.357558 
L 164.023312 -112.614352 
L 164.089945 -112.871497 
L 164.156578 -113.128993 
L 164.223212 -113.386839 
L 164.289845 -113.645032 
L 164.356478 -113.903573 
L 164.423112 -114.16246 
L 164.489745 -114.421692 
L 164.556378 -114.681268 
L 164.623012 -114.941187 
L 164.689645 -115.201447 
L 164.756278 -115.462048 
L 164.822911 -115.722988 
L 164.889545 -115.984267 
L 164.956178 -116.245882 
L 165.022811 -116.507833 
L 165.089445 -116.770119 
L 165.156078 -117.032738 
L 165.222711 -117.29569 
L 165.289345 -117.558973 
L 165.355978 -117.822585 
L 165.422611 -118.086526 
L 165.489245 -118.350795 
L 165.555878 -118.61539 
L 165.622511 -118.880309 
L 165.689145 -119.145553 
L 165.755778 -119.411119 
L 165.822411 -119.677006 
L 165.889045 -119.943213 
L 165.955678 -120.209739 
L 166.022311 -120.476582 
L 166.088944 -120.743742 
L 166.155578 -121.011216 
L 166.222211 -121.279003 
L 166.288844 -121.547103 
L 166.355478 -121.815514 
L 166.422111 -122.084234 
L 166.488744 -122.353263 
L 166.555378 -122.622598 
L 166.622011 -122.892239 
L 166.688644 -123.162184 
L 166.755278 -123.432432 
L 166.821911 -123.702981 
L 166.888544 -123.973831 
L 166.955178 -124.244979 
L 167.021811 -124.516424 
L 167.088444 -124.788166 
L 167.155078 -125.060202 
L 167.221711 -125.332531 
L 167.288344 -125.605152 
L 167.354977 -125.878063 
L 167.421611 -126.151262 
L 167.488244 -126.42475 
L 167.554877 -126.698523 
L 167.621511 -126.97258 
L 167.688144 -127.246921 
L 167.754777 -127.521543 
L 167.821411 -127.796445 
L 167.888044 -128.071626 
L 167.954677 -128.347084 
L 168.021311 -128.622818 
L 168.087944 -128.898826 
L 168.154577 -129.175106 
L 168.221211 -129.451657 
L 168.287844 -129.728478 
L 168.354477 -130.005567 
L 168.421111 -130.282923 
L 168.487744 -130.560543 
L 168.554377 -130.838427 
L 168.621011 -131.116573 
L 168.687644 -131.394978 
L 168.754277 -131.673643 
L 168.82091 -131.952565 
L 168.887544 -132.231742 
L 168.954177 -132.511173 
L 169.02081 -132.790856 
L 169.087444 -133.07079 
L 169.154077 -133.350973 
L 169.22071 -133.631403 
L 169.287344 -133.91208 
L 169.353977 -134.193 
L 169.42061 -134.474163 
L 169.487244 -134.755567 
L 169.553877 -135.03721 
L 169.62051 -135.319091 
L 169.687144 -135.601208 
L 169.753777 -135.883558 
L 169.82041 -136.166142 
L 169.887044 -136.448956 
L 169.953677 -136.731999 
L 170.02031 -137.015269 
L 170.086943 -137.298766 
L 170.153577 -137.582486 
L 170.22021 -137.866428 
L 170.286843 -138.150591 
L 170.353477 -138.434973 
L 170.42011 -138.719572 
L 170.486743 -139.004386 
L 170.553377 -139.289413 
L 170.62001 -139.574652 
L 170.686643 -139.860102 
L 170.753277 -140.145759 
L 170.81991 -140.431622 
L 170.886543 -140.717691 
L 170.953177 -141.003962 
L 171.01981 -141.290433 
L 171.086443 -141.577104 
L 171.153077 -141.863973 
L 171.21971 -142.151037 
L 171.286343 -142.438294 
L 171.352976 -142.725743 
L 171.41961 -143.013383 
L 171.486243 -143.30121 
L 171.552876 -143.589223 
L 171.61951 -143.877421 
L 171.686143 -144.165801 
L 171.752776 -144.454362 
L 171.81941 -144.743102 
L 171.886043 -145.032018 
L 171.952676 -145.32111 
L 172.01931 -145.610374 
L 172.085943 -145.899809 
L 172.152576 -146.189414 
L 172.21921 -146.479185 
L 172.285843 -146.769122 
L 172.352476 -147.059222 
L 172.41911 -147.349484 
L 172.485743 -147.639905 
L 172.552376 -147.930484 
L 172.61901 -148.221218 
L 172.685643 -148.512105 
L 172.752276 -148.803144 
L 172.818909 -149.094333 
L 172.885543 -149.385669 
L 172.952176 -149.677151 
L 173.018809 -149.968776 
L 173.085443 -150.260543 
L 173.152076 -150.552449 
L 173.218709 -150.844493 
L 173.285343 -151.136672 
L 173.351976 -151.428985 
L 173.418609 -151.721429 
L 173.485243 -152.014003 
L 173.551876 -152.306703 
L 173.618509 -152.599529 
L 173.685143 -152.892478 
L 173.751776 -153.185548 
L 173.818409 -153.478737 
L 173.885043 -153.772043 
L 173.951676 -154.065464 
L 174.018309 -154.358997 
L 174.084942 -154.652641 
L 174.151576 -154.946394 
L 174.218209 -155.240253 
L 174.284842 -155.534216 
L 174.351476 -155.828281 
L 174.418109 -156.122446 
L 174.484742 -156.416709 
L 174.551376 -156.711068 
L 174.618009 -157.00552 
L 174.684642 -157.300064 
L 174.751276 -157.594697 
L 174.817909 -157.889417 
L 174.884542 -158.184222 
L 174.951176 -158.479109 
L 175.017809 -158.774077 
L 175.084442 -159.069124 
L 175.151076 -159.364246 
L 175.217709 -159.659442 
L 175.284342 -159.95471 
L 175.350975 -160.250048 
L 175.417609 -160.545453 
L 175.484242 -160.840923 
L 175.550875 -161.136456 
L 175.617509 -161.432049 
L 175.684142 -161.727701 
L 175.750775 -162.023408 
L 175.817409 -162.31917 
L 175.884042 -162.614983 
L 175.950675 -162.910845 
L 176.017309 -163.206755 
L 176.083942 -163.502709 
L 176.150575 -163.798706 
L 176.217209 -164.094743 
L 176.283842 -164.390818 
L 176.350475 -164.686928 
L 176.417109 -164.983072 
L 176.483742 -165.279247 
L 176.550375 -165.575451 
L 176.617009 -165.871681 
L 176.683642 -166.167935 
L 176.750275 -166.464211 
L 176.816908 -166.760506 
L 176.883542 -167.056818 
L 176.950175 -167.353145 
L 177.016808 -167.649485 
L 177.083442 -167.945834 
L 177.150075 -168.242191 
L 177.216708 -168.538554 
L 177.283342 -168.834919 
L 177.349975 -169.131285 
L 177.416608 -169.427649 
L 177.483242 -169.724009 
L 177.549875 -170.020363 
L 177.616508 -170.316708 
L 177.683142 -170.613041 
L 177.749775 -170.90936 
L 177.816408 -171.205664 
L 177.883042 -171.501949 
L 177.949675 -171.798213 
L 178.016308 -172.094453 
L 178.082941 -172.390668 
L 178.149575 -172.686855 
L 178.216208 -172.983011 
L 178.282841 -173.279134 
L 178.349475 -173.575221 
L 178.416108 -173.87127 
L 178.482741 -174.167279 
L 178.549375 -174.463246 
L 178.616008 -174.759167 
L 178.682641 -175.05504 
L 178.749275 -175.350863 
L 178.815908 -175.646633 
L 178.882541 -175.942348 
L 178.949175 -176.238005 
L 179.015808 -176.533603 
L 179.082441 -176.829137 
L 179.149075 -177.124607 
L 179.215708 -177.420009 
L 179.282341 -177.715341 
L 179.348974 -178.0106 
L 179.415608 -178.305784 
L 179.482241 -178.600891 
L 179.548874 -178.895918 
L 179.615508 -179.190862 
L 179.682141 -179.485721 
L 179.748774 -179.780492 
L 179.815408 -180.075173 
L 179.882041 -180.369761 
L 179.948674 -180.664254 
L 180.015308 -180.958649 
L 180.081941 -181.252944 
L 180.148574 -181.547136 
L 180.215208 -181.841223 
L 180.281841 -182.135202 
L 180.348474 -182.42907 
L 180.415108 -182.722825 
L 180.481741 -183.016465 
L 180.548374 -183.309986 
L 180.615008 -183.603387 
L 180.681641 -183.896664 
L 180.748274 -184.189815 
L 180.814907 -184.482838 
L 180.881541 -184.77573 
L 180.948174 -185.068488 
L 181.014807 -185.36111 
L 181.081441 -185.653594 
L 181.148074 -185.945935 
L 181.214707 -186.238133 
L 181.281341 -186.530184 
L 181.347974 -186.822086 
L 181.414607 -187.113837 
L 181.481241 -187.405432 
L 181.547874 -187.696871 
L 181.614507 -187.98815 
L 181.681141 -188.279267 
L 181.747774 -188.570219 
L 181.814407 -188.861004 
L 181.881041 -189.151619 
L 181.947674 -189.44206 
L 182.014307 -189.732327 
L 182.08094 -190.022416 
L 182.147574 -190.312324 
L 182.214207 -190.602048 
L 182.28084 -190.891587 
L 182.347474 -191.180938 
L 182.414107 -191.470097 
L 182.48074 -191.759062 
L 182.547374 -192.047831 
L 182.614007 -192.336401 
L 182.68064 -192.624769 
L 182.747274 -192.912933 
L 182.813907 -193.20089 
L 182.88054 -193.488637 
L 182.947174 -193.776172 
L 183.013807 -194.063492 
L 183.08044 -194.350594 
L 183.147074 -194.637476 
L 183.213707 -194.924135 
L 183.28034 -195.210568 
L 183.346973 -195.496773 
L 183.413607 -195.782747 
L 183.48024 -196.068488 
L 183.546873 -196.353992 
L 183.613507 -196.639257 
L 183.68014 -196.92428 
L 183.746773 -197.209059 
L 183.813407 -197.493591 
L 183.88004 -197.777874 
L 183.946673 -198.061904 
L 184.013307 -198.345679 
L 184.07994 -198.629196 
L 184.146573 -198.912452 
L 184.213207 -199.195446 
L 184.27984 -199.478174 
L 184.346473 -199.760633 
L 184.413107 -200.042821 
L 184.47974 -200.324736 
L 184.546373 -200.606374 
L 184.613007 -200.887732 
L 184.67964 -201.168809 
L 184.746273 -201.449601 
L 184.812906 -201.730105 
L 184.87954 -202.01032 
L 184.946173 -202.290242 
L 185.012806 -202.569868 
L 185.07944 -202.849197 
L 185.146073 -203.128224 
L 185.212706 -203.406949 
L 185.27934 -203.685367 
L 185.345973 -203.963476 
L 185.412606 -204.241273 
L 185.47924 -204.518756 
L 185.545873 -204.795922 
L 185.612506 -205.072769 
L 185.67914 -205.349293 
L 185.745773 -205.625492 
L 185.812406 -205.901363 
L 185.87904 -206.176904 
L 185.945673 -206.452112 
L 186.012306 -206.726983 
L 186.078939 -207.001517 
L 186.145573 -207.275708 
L 186.212206 -207.549556 
L 186.278839 -207.823057 
L 186.345473 -208.096209 
L 186.412106 -208.369009 
L 186.478739 -208.641454 
L 186.545373 -208.913541 
L 186.612006 -209.185268 
L 186.678639 -209.456633 
L 186.745273 -209.727632 
L 186.811906 -209.998262 
L 186.878539 -210.268522 
L 186.945173 -210.538408 
L 187.011806 -210.807917 
L 187.078439 -211.077048 
L 187.145073 -211.345796 
L 187.211706 -211.614161 
L 187.278339 -211.882138 
L 187.344972 -212.149725 
L 187.411606 -212.41692 
L 187.478239 -212.68372 
L 187.544872 -212.950121 
L 187.611506 -213.216123 
L 187.678139 -213.481721 
L 187.744772 -213.746912 
L 187.811406 -214.011696 
L 187.878039 -214.276068 
L 187.944672 -214.540026 
L 188.011306 -214.803567 
L 188.077939 -215.066689 
L 188.144572 -215.329389 
L 188.211206 -215.591664 
L 188.277839 -215.853512 
L 188.344472 -216.11493 
L 188.411106 -216.375915 
L 188.477739 -216.636465 
L 188.544372 -216.896576 
L 188.611006 -217.156247 
L 188.677639 -217.415475 
L 188.744272 -217.674256 
L 188.810905 -217.932589 
L 188.877539 -218.19047 
L 188.944172 -218.447898 
L 189.010805 -218.704868 
L 189.077439 -218.961379 
L 189.144072 -219.217429 
L 189.210705 -219.473013 
L 189.277339 -219.728131 
L 189.343972 -219.982778 
L 189.410605 -220.236953 
L 189.477239 -220.490653 
L 189.543872 -220.743874 
L 189.610505 -220.996616 
L 189.677139 -221.248874 
L 189.743772 -221.500646 
L 189.810405 -221.75193 
L 189.877039 -222.002723 
L 189.943672 -222.253023 
L 190.010305 -222.502826 
L 190.076938 -222.75213 
L 190.143572 -223.000933 
L 190.210205 -223.249232 
L 190.276838 -223.497024 
L 190.343472 -223.744307 
L 190.410105 -223.991078 
L 190.476738 -224.237334 
L 190.543372 -224.483073 
L 190.610005 -224.728293 
L 190.676638 -224.97299 
L 190.743272 -225.217162 
L 190.809905 -225.460807 
L 190.876538 -225.703922 
L 190.943172 -225.946505 
L 191.009805 -226.188552 
L 191.076438 -226.430061 
L 191.143072 -226.67103 
L 191.209705 -226.911456 
L 191.276338 -227.151337 
L 191.342971 -227.390669 
L 191.409605 -227.629452 
L 191.476238 -227.867681 
L 191.542871 -228.105354 
L 191.609505 -228.342469 
L 191.676138 -228.579023 
L 191.742771 -228.815015 
L 191.809405 -229.05044 
L 191.876038 -229.285297 
L 191.942671 -229.519583 
L 192.009305 -229.753296 
L 192.075938 -229.986433 
L 192.142571 -230.218991 
L 192.209205 -230.450969 
L 192.275838 -230.682363 
L 192.342471 -230.913171 
L 192.409105 -231.143391 
L 192.475738 -231.37302 
L 192.542371 -231.602056 
L 192.609005 -231.830495 
L 192.675638 -232.058337 
L 192.742271 -232.285578 
L 192.808904 -232.512215 
L 192.875538 -232.738247 
L 192.942171 -232.96367 
L 193.008804 -233.188483 
L 193.075438 -233.412683 
L 193.142071 -233.636267 
L 193.208704 -233.859233 
L 193.275338 -234.081579 
L 193.341971 -234.303302 
L 193.408604 -234.5244 
L 193.475238 -234.74487 
L 193.541871 -234.96471 
L 193.608504 -235.183917 
L 193.675138 -235.40249 
L 193.741771 -235.620425 
L 193.808404 -235.837721 
L 193.875038 -236.054374 
L 193.941671 -236.270383 
L 194.008304 -236.485745 
L 194.074937 -236.700458 
L 194.141571 -236.91452 
L 194.208204 -237.127927 
L 194.274837 -237.340678 
L 194.341471 -237.552771 
L 194.408104 -237.764202 
L 194.474737 -237.974971 
L 194.541371 -238.185073 
L 194.608004 -238.394508 
L 194.674637 -238.603272 
L 194.741271 -238.811364 
L 194.807904 -239.01878 
L 194.874537 -239.22552 
L 194.941171 -239.43158 
L 195.007804 -239.636958 
L 195.074437 -239.841652 
L 195.141071 -240.045659 
L 195.207704 -240.248978 
L 195.274337 -240.451606 
L 195.34097 -240.653541 
L 195.407604 -240.85478 
L 195.474237 -241.055321 
L 195.54087 -241.255163 
L 195.607504 -241.454303 
L 195.674137 -241.652738 
L 195.74077 -241.850466 
L 195.807404 -242.047486 
L 195.874037 -242.243794 
L 195.94067 -242.439389 
L 196.007304 -242.634269 
L 196.073937 -242.828431 
L 196.14057 -243.021873 
L 196.207204 -243.214594 
L 196.273837 -243.40659 
L 196.34047 -243.597859 
L 196.407104 -243.788401 
L 196.473737 -243.978211 
L 196.54037 -244.167289 
L 196.607004 -244.355632 
L 196.673637 -244.543238 
L 196.74027 -244.730104 
L 196.806903 -244.916229 
L 196.873537 -245.101611 
L 196.94017 -245.286248 
L 197.006803 -245.470136 
L 197.073437 -245.653276 
L 197.14007 -245.835663 
L 197.206703 -246.017296 
L 197.273337 -246.198174 
L 197.33997 -246.378294 
L 197.406603 -246.557653 
L 197.473237 -246.736251 
L 197.53987 -246.914085 
L 197.606503 -247.091152 
L 197.673137 -247.267451 
L 197.73977 -247.442981 
L 197.806403 -247.617738 
L 197.873037 -247.791721 
L 197.93967 -247.964928 
L 198.006303 -248.137356 
L 198.072936 -248.309005 
L 198.13957 -248.479872 
L 198.206203 -248.649954 
L 198.272836 -248.819251 
L 198.33947 -248.98776 
L 198.406103 -249.155479 
L 198.472736 -249.322406 
L 198.53937 -249.48854 
L 198.606003 -249.653878 
L 198.672636 -249.818419 
L 198.73927 -249.98216 
L 198.805903 -250.1451 
L 198.872536 -250.307237 
L 198.93917 -250.468569 
L 199.005803 -250.629094 
L 199.072436 -250.788811 
L 199.13907 -250.947717 
L 199.205703 -251.10581 
L 199.272336 -251.26309 
L 199.338969 -251.419553 
L 199.405603 -251.575199 
L 199.472236 -251.730025 
L 199.538869 -251.884029 
L 199.605503 -252.037211 
L 199.672136 -252.189567 
L 199.738769 -252.341097 
L 199.805403 -252.491798 
L 199.872036 -252.64167 
L 199.938669 -252.790709 
L 200.005303 -252.938914 
L 200.071936 -253.086284 
L 200.138569 -253.232817 
L 200.205203 -253.378512 
L 200.271836 -253.523365 
L 200.338469 -253.667377 
L 200.405103 -253.810544 
L 200.471736 -253.952867 
L 200.538369 -254.094342 
L 200.605003 -254.234968 
L 200.671636 -254.374743 
L 200.738269 -254.513667 
L 200.804902 -254.651737 
L 200.871536 -254.788951 
L 200.938169 -254.925309 
L 201.004802 -255.060808 
L 201.071436 -255.195447 
L 201.138069 -255.329224 
L 201.204702 -255.462138 
L 201.271336 -255.594187 
L 201.337969 -255.72537 
L 201.404602 -255.855685 
L 201.471236 -255.985131 
L 201.537869 -256.113706 
L 201.604502 -256.241408 
L 201.671136 -256.368236 
L 201.737769 -256.494189 
L 201.804402 -256.619265 
L 201.871036 -256.743463 
L 201.937669 -256.866781 
L 202.004302 -256.989218 
L 202.070935 -257.110772 
L 202.137569 -257.231442 
L 202.204202 -257.351226 
L 202.270835 -257.470123 
L 202.337469 -257.588133 
L 202.404102 -257.705252 
L 202.470735 -257.82148 
L 202.537369 -257.936816 
L 202.604002 -258.051258 
L 202.670635 -258.164805 
L 202.737269 -258.277455 
L 202.803902 -258.389207 
L 202.870535 -258.50006 
L 202.937169 -258.610013 
L 203.003802 -258.719064 
L 203.070435 -258.827212 
L 203.137069 -258.934456 
L 203.203702 -259.040794 
L 203.270335 -259.146225 
L 203.336968 -259.250748 
L 203.403602 -259.354362 
L 203.470235 -259.457065 
L 203.536868 -259.558856 
L 203.603502 -259.659734 
L 203.670135 -259.759699 
L 203.736768 -259.858747 
L 203.803402 -259.95688 
L 203.870035 -260.054094 
L 203.936668 -260.15039 
L 204.003302 -260.245766 
L 204.069935 -260.340221 
L 204.136568 -260.433753 
L 204.203202 -260.526362 
L 204.269835 -260.618047 
L 204.336468 -260.708806 
L 204.403102 -260.798638 
L 204.469735 -260.887543 
L 204.536368 -260.975519 
L 204.603002 -261.062566 
L 204.669635 -261.148681 
L 204.736268 -261.233865 
L 204.802901 -261.318116 
L 204.869535 -261.401433 
L 204.936168 -261.483815 
L 205.002801 -261.565261 
L 205.069435 -261.645771 
L 205.136068 -261.725342 
L 205.202701 -261.803975 
L 205.269335 -261.881669 
L 205.335968 -261.958422 
L 205.402601 -262.034233 
L 205.469235 -262.109102 
L 205.535868 -262.183028 
L 205.602501 -262.25601 
L 205.669135 -262.328046 
L 205.735768 -262.399137 
L 205.802401 -262.469281 
L 205.869035 -262.538478 
L 205.935668 -262.606726 
L 206.002301 -262.674025 
L 206.068934 -262.740374 
L 206.135568 -262.805772 
L 206.202201 -262.870218 
L 206.268834 -262.933712 
L 206.335468 -262.996254 
L 206.402101 -263.057841 
L 206.468734 -263.118473 
L 206.535368 -263.178151 
L 206.602001 -263.236872 
L 206.668634 -263.294637 
L 206.735268 -263.351444 
L 206.801901 -263.407293 
L 206.868534 -263.462183 
L 206.935168 -263.516114 
L 207.001801 -263.569085 
L 207.068434 -263.621095 
L 207.135068 -263.672144 
L 207.201701 -263.722231 
L 207.268334 -263.771355 
L 207.334967 -263.819517 
L 207.401601 -263.866714 
L 207.468234 -263.912947 
L 207.534867 -263.958216 
L 207.601501 -264.002519 
L 207.668134 -264.045856 
L 207.734767 -264.088227 
L 207.801401 -264.129631 
L 207.868034 -264.170067 
L 207.934667 -264.209536 
L 208.001301 -264.248036 
L 208.067934 -264.285568 
L 208.134567 -264.32213 
L 208.201201 -264.357722 
L 208.267834 -264.392345 
L 208.334467 -264.425996 
L 208.401101 -264.458677 
L 208.467734 -264.490386 
L 208.534367 -264.521124 
L 208.601001 -264.55089 
L 208.667634 -264.579683 
L 208.734267 -264.607503 
L 208.8009 -264.63435 
L 208.867534 -264.660224 
L 208.934167 -264.685124 
L 209.0008 -264.70905 
L 209.067434 -264.732001 
L 209.134067 -264.753978 
L 209.2007 -264.77498 
L 209.267334 -264.795007 
L 209.333967 -264.814058 
L 209.4006 -264.832134 
L 209.467234 -264.849234 
L 209.533867 -264.865358 
L 209.6005 -264.880505 
L 209.667134 -264.894677 
L 209.733767 -264.907871 
L 209.8004 -264.920089 
L 209.867034 -264.93133 
L 209.933667 -264.941594 
L 210.0003 -264.950881 
L 210.066933 -264.959191 
L 210.133567 -264.966523 
L 210.2002 -264.972878 
L 210.266833 -264.978255 
L 210.333467 -264.982654 
L 210.4001 -264.986076 
L 210.466733 -264.988521 
L 210.533367 -264.989987 
L 210.6 -264.990476 
L 210.6 -20.8 
L 210.6 -20.8 
L 210.533367 -20.8 
L 210.466733 -20.8 
L 210.4001 -20.8 
L 210.333467 -20.8 
L 210.266833 -20.8 
L 210.2002 -20.8 
L 210.133567 -20.8 
L 210.066933 -20.8 
L 210.0003 -20.8 
L 209.933667 -20.8 
L 209.867034 -20.8 
L 209.8004 -20.8 
L 209.733767 -20.8 
L 209.667134 -20.8 
L 209.6005 -20.8 
L 209.533867 -20.8 
L 209.467234 -20.8 
L 209.4006 -20.8 
L 209.333967 -20.8 
L 209.267334 -20.8 
L 209.2007 -20.8 
L 209.134067 -20.8 
L 209.067434 -20.8 
L 209.0008 -20.8 
L 208.934167 -20.8 
L 208.867534 -20.8 
L 208.8009 -20.8 
L 208.734267 -20.8 
L 208.667634 -20.8 
L 208.601001 -20.8 
L 208.534367 -20.8 
L 208.467734 -20.8 
L 208.401101 -20.8 
L 208.334467 -20.8 
L 208.267834 -20.8 
L 208.201201 -20.8 
L 208.134567 -20.8 
L 208.067934 -20.8 
L 208.001301 -20.8 
L 207.934667 -20.8 
L 207.868034 -20.8 
L 207.801401 -20.8 
L 207.734767 -20.8 
L 207.668134 -20.8 
L 207.601501 -20.8 
L 207.534867 -20.8 
L 207.468234 -20.8 
L 207.401601 -20.8 
L 207.334967 -20.8 
L 207.268334 -20.8 
L 207.201701 -20.8 
L 207.135068 -20.8 
L 207.068434 -20.8 
L 207.001801 -20.8 
L 206.935168 -20.8 
L 206.868534 -20.8 
L 206.801901 -20.8 
L 206.735268 -20.8 
L 206.668634 -20.8 
L 206.602001 -20.8 
L 206.535368 -20.8 
L 206.468734 -20.8 
L 206.402101 -20.8 
L 206.335468 -20.8 
L 206.268834 -20.8 
L 206.202201 -20.8 
L 206.135568 -20.8 
L 206.068934 -20.8 
L 206.002301 -20.8 
L 205.935668 -20.8 
L 205.869035 -20.8 
L 205.802401 -20.8 
L 205.735768 -20.8 
L 205.669135 -20.8 
L 205.602501 -20.8 
L 205.535868 -20.8 
L 205.469235 -20.8 
L 205.402601 -20.8 
L 205.335968 -20.8 
L 205.269335 -20.8 
L 205.202701 -20.8 
L 205.136068 -20.8 
L 205.069435 -20.8 
L 205.002801 -20.8 
L 204.936168 -20.8 
L 204.869535 -20.8 
L 204.802901 -20.8 
L 204.736268 -20.8 
L 204.669635 -20.8 
L 204.603002 -20.8 
L 204.536368 -20.8 
L 204.469735 -20.8 
L 204.403102 -20.8 
L 204.336468 -20.8 
L 204.269835 -20.8 
L 204.203202 -20.8 
L 204.136568 -20.8 
L 204.069935 -20.8 
L 204.003302 -20.8 
L 203.936668 -20.8 
L 203.870035 -20.8 
L 203.803402 -20.8 
L 203.736768 -20.8 
L 203.670135 -20.8 
L 203.603502 -20.8 
L 203.536868 -20.8 
L 203.470235 -20.8 
L 203.403602 -20.8 
L 203.336968 -20.8 
L 203.270335 -20.8 
L 203.203702 -20.8 
L 203.137069 -20.8 
L 203.070435 -20.8 
L 203.003802 -20.8 
L 202.937169 -20.8 
L 202.870535 -20.8 
L 202.803902 -20.8 
L 202.737269 -20.8 
L 202.670635 -20.8 
L 202.604002 -20.8 
L 202.537369 -20.8 
L 202.470735 -20.8 
L 202.404102 -20.8 
L 202.337469 -20.8 
L 202.270835 -20.8 
L 202.204202 -20.8 
L 202.137569 -20.8 
L 202.070935 -20.8 
L 202.004302 -20.8 
L 201.937669 -20.8 
L 201.871036 -20.8 
L 201.804402 -20.8 
L 201.737769 -20.8 
L 201.671136 -20.8 
L 201.604502 -20.8 
L 201.537869 -20.8 
L 201.471236 -20.8 
L 201.404602 -20.8 
L 201.337969 -20.8 
L 201.271336 -20.8 
L 201.204702 -20.8 
L 201.138069 -20.8 
L 201.071436 -20.8 
L 201.004802 -20.8 
L 200.938169 -20.8 
L 200.871536 -20.8 
L 200.804902 -20.8 
L 200.738269 -20.8 
L 200.671636 -20.8 
L 200.605003 -20.8 
L 200.538369 -20.8 
L 200.471736 -20.8 
L 200.405103 -20.8 
L 200.338469 -20.8 
L 200.271836 -20.8 
L 200.205203 -20.8 
L 200.138569 -20.8 
L 200.071936 -20.8 
L 200.005303 -20.8 
L 199.938669 -20.8 
L 199.872036 -20.8 
L 199.805403 -20.8 
L 199.738769 -20.8 
L 199.672136 -20.8 
L 199.605503 -20.8 
L 199.538869 -20.8 
L 199.472236 -20.8 
L 199.405603 -20.8 
L 199.338969 -20.8 
L 199.272336 -20.8 
L 199.205703 -20.8 
L 199.13907 -20.8 
L 199.072436 -20.8 
L 199.005803 -20.8 
L 198.93917 -20.8 
L 198.872536 -20.8 
L 198.805903 -20.8 
L 198.73927 -20.8 
L 198.672636 -20.8 
L 198.606003 -20.8 
L 198.53937 -20.8 
L 198.472736 -20.8 
L 198.406103 -20.8 
L 198.33947 -20.8 
L 198.272836 -20.8 
L 198.206203 -20.8 
L 198.13957 -20.8 
L 198.072936 -20.8 
L 198.006303 -20.8 
L 197.93967 -20.8 
L 197.873037 -20.8 
L 197.806403 -20.8 
L 197.73977 -20.8 
L 197.673137 -20.8 
L 197.606503 -20.8 
L 197.53987 -20.8 
L 197.473237 -20.8 
L 197.406603 -20.8 
L 197.33997 -20.8 
L 197.273337 -20.8 
L 197.206703 -20.8 
L 197.14007 -20.8 
L 197.073437 -20.8 
L 197.006803 -20.8 
L 196.94017 -20.8 
L 196.873537 -20.8 
L 196.806903 -20.8 
L 196.74027 -20.8 
L 196.673637 -20.8 
L 196.607004 -20.8 
L 196.54037 -20.8 
L 196.473737 -20.8 
L 196.407104 -20.8 
L 196.34047 -20.8 
L 196.273837 -20.8 
L 196.207204 -20.8 
L 196.14057 -20.8 
L 196.073937 -20.8 
L 196.007304 -20.8 
L 195.94067 -20.8 
L 195.874037 -20.8 
L 195.807404 -20.8 
L 195.74077 -20.8 
L 195.674137 -20.8 
L 195.607504 -20.8 
L 195.54087 -20.8 
L 195.474237 -20.8 
L 195.407604 -20.8 
L 195.34097 -20.8 
L 195.274337 -20.8 
L 195.207704 -20.8 
L 195.141071 -20.8 
L 195.074437 -20.8 
L 195.007804 -20.8 
L 194.941171 -20.8 
L 194.874537 -20.8 
L 194.807904 -20.8 
L 194.741271 -20.8 
L 194.674637 -20.8 
L 194.608004 -20.8 
L 194.541371 -20.8 
L 194.474737 -20.8 
L 194.408104 -20.8 
L 194.341471 -20.8 
L 194.274837 -20.8 
L 194.208204 -20.8 
L 194.141571 -20.8 
L 194.074937 -20.8 
L 194.008304 -20.8 
L 193.941671 -20.8 
L 193.875038 -20.8 
L 193.808404 -20.8 
L 193.741771 -20.8 
L 193.675138 -20.8 
L 193.608504 -20.8 
L 193.541871 -20.8 
L 193.475238 -20.8 
L 193.408604 -20.8 
L 193.341971 -20.8 
L 193.275338 -20.8 
L 193.208704 -20.8 
L 193.142071 -20.8 
L 193.075438 -20.8 
L 193.008804 -20.8 
L 192.942171 -20.8 
L 192.875538 -20.8 
L 192.808904 -20.8 
L 192.742271 -20.8 
L 192.675638 -20.8 
L 192.609005 -20.8 
L 192.542371 -20.8 
L 192.475738 -20.8 
L 192.409105 -20.8 
L 192.342471 -20.8 
L 192.275838 -20.8 
L 192.209205 -20.8 
L 192.142571 -20.8 
L 192.075938 -20.8 
L 192.009305 -20.8 
L 191.942671 -20.8 
L 191.876038 -20.8 
L 191.809405 -20.8 
L 191.742771 -20.8 
L 191.676138 -20.8 
L 191.609505 -20.8 
L 191.542871 -20.8 
L 191.476238 -20.8 
L 191.409605 -20.8 
L 191.342971 -20.8 
L 191.276338 -20.8 
L 191.209705 -20.8 
L 191.143072 -20.8 
L 191.076438 -20.8 
L 191.009805 -20.8 
L 190.943172 -20.8 
L 190.876538 -20.8 
L 190.809905 -20.8 
L 190.743272 -20.8 
L 190.676638 -20.8 
L 190.610005 -20.8 
L 190.543372 -20.8 
L 190.476738 -20.8 
L 190.410105 -20.8 
L 190.343472 -20.8 
L 190.276838 -20.8 
L 190.210205 -20.8 
L 190.143572 -20.8 
L 190.076938 -20.8 
L 190.010305 -20.8 
L 189.943672 -20.8 
L 189.877039 -20.8 
L 189.810405 -20.8 
L 189.743772 -20.8 
L 189.677139 -20.8 
L 189.610505 -20.8 
L 189.543872 -20.8 
L 189.477239 -20.8 
L 189.410605 -20.8 
L 189.343972 -20.8 
L 189.277339 -20.8 
L 189.210705 -20.8 
L 189.144072 -20.8 
L 189.077439 -20.8 
L 189.010805 -20.8 
L 188.944172 -20.8 
L 188.877539 -20.8 
L 188.810905 -20.8 
L 188.744272 -20.8 
L 188.677639 -20.8 
L 188.611006 -20.8 
L 188.544372 -20.8 
L 188.477739 -20.8 
L 188.411106 -20.8 
L 188.344472 -20.8 
L 188.277839 -20.8 
L 188.211206 -20.8 
L 188.144572 -20.8 
L 188.077939 -20.8 
L 188.011306 -20.8 
L 187.944672 -20.8 
L 187.878039 -20.8 
L 187.811406 -20.8 
L 187.744772 -20.8 
L 187.678139 -20.8 
L 187.611506 -20.8 
L 187.544872 -20.8 
L 187.478239 -20.8 
L 187.411606 -20.8 
L 187.344972 -20.8 
L 187.278339 -20.8 
L 187.211706 -20.8 
L 187.145073 -20.8 
L 187.078439 -20.8 
L 187.011806 -20.8 
L 186.945173 -20.8 
L 186.878539 -20.8 
L 186.811906 -20.8 
L 186.745273 -20.8 
L 186.678639 -20.8 
L 186.612006 -20.8 
L 186.545373 -20.8 
L 186.478739 -20.8 
L 186.412106 -20.8 
L 186.345473 -20.8 
L 186.278839 -20.8 
L 186.212206 -20.8 
L 186.145573 -20.8 
L 186.078939 -20.8 
L 186.012306 -20.8 
L 185.945673 -20.8 
L 185.87904 -20.8 
L 185.812406 -20.8 
L 185.745773 -20.8 
L 185.67914 -20.8 
L 185.612506 -20.8 
L 185.545873 -20.8 
L 185.47924 -20.8 
L 185.412606 -20.8 
L 185.345973 -20.8 
L 185.27934 -20.8 
L 185.212706 -20.8 
L 185.146073 -20.8 
L 185.07944 -20.8 
L 185.012806 -20.8 
L 184.946173 -20.8 
L 184.87954 -20.8 
L 184.812906 -20.8 
L 184.746273 -20.8 
L 184.67964 -20.8 
L 184.613007 -20.8 
L 184.546373 -20.8 
L 184.47974 -20.8 
L 184.413107 -20.8 
L 184.346473 -20.8 
L 184.27984 -20.8 
L 184.213207 -20.8 
L 184.146573 -20.8 
L 184.07994 -20.8 
L 184.013307 -20.8 
L 183.946673 -20.8 
L 183.88004 -20.8 
L 183.813407 -20.8 
L 183.746773 -20.8 
L 183.68014 -20.8 
L 183.613507 -20.8 
L 183.546873 -20.8 
L 183.48024 -20.8 
L 183.413607 -20.8 
L 183.346973 -20.8 
L 183.28034 -20.8 
L 183.213707 -20.8 
L 183.147074 -20.8 
L 183.08044 -20.8 
L 183.013807 -20.8 
L 182.947174 -20.8 
L 182.88054 -20.8 
L 182.813907 -20.8 
L 182.747274 -20.8 
L 182.68064 -20.8 
L 182.614007 -20.8 
L 182.547374 -20.8 
L 182.48074 -20.8 
L 182.414107 -20.8 
L 182.347474 -20.8 
L 182.28084 -20.8 
L 182.214207 -20.8 
L 182.147574 -20.8 
L 182.08094 -20.8 
L 182.014307 -20.8 
L 181.947674 -20.8 
L 181.881041 -20.8 
L 181.814407 -20.8 
L 181.747774 -20.8 
L 181.681141 -20.8 
L 181.614507 -20.8 
L 181.547874 -20.8 
L 181.481241 -20.8 
L 181.414607 -20.8 
L 181.347974 -20.8 
L 181.281341 -20.8 
L 181.214707 -20.8 
L 181.148074 -20.8 
L 181.081441 -20.8 
L 181.014807 -20.8 
L 180.948174 -20.8 
L 180.881541 -20.8 
L 180.814907 -20.8 
L 180.748274 -20.8 
L 180.681641 -20.8 
L 180.615008 -20.8 
L 180.548374 -20.8 
L 180.481741 -20.8 
L 180.415108 -20.8 
L 180.348474 -20.8 
L 180.281841 -20.8 
L 180.215208 -20.8 
L 180.148574 -20.8 
L 180.081941 -20.8 
L 180.015308 -20.8 
L 179.948674 -20.8 
L 179.882041 -20.8 
L 179.815408 -20.8 
L 179.748774 -20.8 
L 179.682141 -20.8 
L 179.615508 -20.8 
L 179.548874 -20.8 
L 179.482241 -20.8 
L 179.415608 -20.8 
L 179.348974 -20.8 
L 179.282341 -20.8 
L 179.215708 -20.8 
L 179.149075 -20.8 
L 179.082441 -20.8 
L 179.015808 -20.8 
L 178.949175 -20.8 
L 178.882541 -20.8 
L 178.815908 -20.8 
L 178.749275 -20.8 
L 178.682641 -20.8 
L 178.616008 -20.8 
L 178.549375 -20.8 
L 178.482741 -20.8 
L 178.416108 -20.8 
L 178.349475 -20.8 
L 178.282841 -20.8 
L 178.216208 -20.8 
L 178.149575 -20.8 
L 178.082941 -20.8 
L 178.016308 -20.8 
L 177.949675 -20.8 
L 177.883042 -20.8 
L 177.816408 -20.8 
L 177.749775 -20.8 
L 177.683142 -20.8 
L 177.616508 -20.8 
L 177.549875 -20.8 
L 177.483242 -20.8 
L 177.416608 -20.8 
L 177.349975 -20.8 
L 177.283342 -20.8 
L 177.216708 -20.8 
L 177.150075 -20.8 
L 177.083442 -20.8 
L 177.016808 -20.8 
L 176.950175 -20.8 
L 176.883542 -20.8 
L 176.816908 -20.8 
L 176.750275 -20.8 
L 176.683642 -20.8 
L 176.617009 -20.8 
L 176.550375 -20.8 
L 176.483742 -20.8 
L 176.417109 -20.8 
L 176.350475 -20.8 
L 176.283842 -20.8 
L 176.217209 -20.8 
L 176.150575 -20.8 
L 176.083942 -20.8 
L 176.017309 -20.8 
L 175.950675 -20.8 
L 175.884042 -20.8 
L 175.817409 -20.8 
L 175.750775 -20.8 
L 175.684142 -20.8 
L 175.617509 -20.8 
L 175.550875 -20.8 
L 175.484242 -20.8 
L 175.417609 -20.8 
L 175.350975 -20.8 
L 175.284342 -20.8 
L 175.217709 -20.8 
L 175.151076 -20.8 
L 175.084442 -20.8 
L 175.017809 -20.8 
L 174.951176 -20.8 
L 174.884542 -20.8 
L 174.817909 -20.8 
L 174.751276 -20.8 
L 174.684642 -20.8 
L 174.618009 -20.8 
L 174.551376 -20.8 
L 174.484742 -20.8 
L 174.418109 -20.8 
L 174.351476 -20.8 
L 174.284842 -20.8 
L 174.218209 -20.8 
L 174.151576 -20.8 
L 174.084942 -20.8 
L 174.018309 -20.8 
L 173.951676 -20.8 
L 173.885043 -20.8 
L 173.818409 -20.8 
L 173.751776 -20.8 
L 173.685143 -20.8 
L 173.618509 -20.8 
L 173.551876 -20.8 
L 173.485243 -20.8 
L 173.418609 -20.8 
L 173.351976 -20.8 
L 173.285343 -20.8 
L 173.218709 -20.8 
L 173.152076 -20.8 
L 173.085443 -20.8 
L 173.018809 -20.8 
L 172.952176 -20.8 
L 172.885543 -20.8 
L 172.818909 -20.8 
L 172.752276 -20.8 
L 172.685643 -20.8 
L 172.61901 -20.8 
L 172.552376 -20.8 
L 172.485743 -20.8 
L 172.41911 -20.8 
L 172.352476 -20.8 
L 172.285843 -20.8 
L 172.21921 -20.8 
L 172.152576 -20.8 
L 172.085943 -20.8 
L 172.01931 -20.8 
L 171.952676 -20.8 
L 171.886043 -20.8 
L 171.81941 -20.8 
L 171.752776 -20.8 
L 171.686143 -20.8 
L 171.61951 -20.8 
L 171.552876 -20.8 
L 171.486243 -20.8 
L 171.41961 -20.8 
L 171.352976 -20.8 
L 171.286343 -20.8 
L 171.21971 -20.8 
L 171.153077 -20.8 
L 171.086443 -20.8 
L 171.01981 -20.8 
L 170.953177 -20.8 
L 170.886543 -20.8 
L 170.81991 -20.8 
L 170.753277 -20.8 
L 170.686643 -20.8 
L 170.62001 -20.8 
L 170.553377 -20.8 
L 170.486743 -20.8 
L 170.42011 -20.8 
L 170.353477 -20.8 
L 170.286843 -20.8 
L 170.22021 -20.8 
L 170.153577 -20.8 
L 170.086943 -20.8 
L 170.02031 -20.8 
L 169.953677 -20.8 
L 169.887044 -20.8 
L 169.82041 -20.8 
L 169.753777 -20.8 
L 169.687144 -20.8 
L 169.62051 -20.8 
L 169.553877 -20.8 
L 169.487244 -20.8 
L 169.42061 -20.8 
L 169.353977 -20.8 
L 169.287344 -20.8 
L 169.22071 -20.8 
L 169.154077 -20.8 
L 169.087444 -20.8 
L 169.02081 -20.8 
L 168.954177 -20.8 
L 168.887544 -20.8 
L 168.82091 -20.8 
L 168.754277 -20.8 
L 168.687644 -20.8 
L 168.621011 -20.8 
L 168.554377 -20.8 
L 168.487744 -20.8 
L 168.421111 -20.8 
L 168.354477 -20.8 
L 168.287844 -20.8 
L 168.221211 -20.8 
L 168.154577 -20.8 
L 168.087944 -20.8 
L 168.021311 -20.8 
L 167.954677 -20.8 
L 167.888044 -20.8 
L 167.821411 -20.8 
L 167.754777 -20.8 
L 167.688144 -20.8 
L 167.621511 -20.8 
L 167.554877 -20.8 
L 167.488244 -20.8 
L 167.421611 -20.8 
L 167.354977 -20.8 
L 167.288344 -20.8 
L 167.221711 -20.8 
L 167.155078 -20.8 
L 167.088444 -20.8 
L 167.021811 -20.8 
L 166.955178 -20.8 
L 166.888544 -20.8 
L 166.821911 -20.8 
L 166.755278 -20.8 
L 166.688644 -20.8 
L 166.622011 -20.8 
L 166.555378 -20.8 
L 166.488744 -20.8 
L 166.422111 -20.8 
L 166.355478 -20.8 
L 166.288844 -20.8 
L 166.222211 -20.8 
L 166.155578 -20.8 
L 166.088944 -20.8 
L 166.022311 -20.8 
L 165.955678 -20.8 
L 165.889045 -20.8 
L 165.822411 -20.8 
L 165.755778 -20.8 
L 165.689145 -20.8 
L 165.622511 -20.8 
L 165.555878 -20.8 
L 165.489245 -20.8 
L 165.422611 -20.8 
L 165.355978 -20.8 
L 165.289345 -20.8 
L 165.222711 -20.8 
L 165.156078 -20.8 
L 165.089445 -20.8 
L 165.022811 -20.8 
L 164.956178 -20.8 
L 164.889545 -20.8 
L 164.822911 -20.8 
L 164.756278 -20.8 
L 164.689645 -20.8 
L 164.623012 -20.8 
L 164.556378 -20.8 
L 164.489745 -20.8 
L 164.423112 -20.8 
L 164.356478 -20.8 
L 164.289845 -20.8 
L 164.223212 -20.8 
L 164.156578 -20.8 
L 164.089945 -20.8 
L 164.023312 -20.8 
L 163.956678 -20.8 
L 163.890045 -20.8 
L 163.823412 -20.8 
L 163.756778 -20.8 
L 163.690145 -20.8 
L 163.623512 -20.8 
L 163.556878 -20.8 
L 163.490245 -20.8 
L 163.423612 -20.8 
L 163.356978 -20.8 
L 163.290345 -20.8 
L 163.223712 -20.8 
L 163.157079 -20.8 
L 163.090445 -20.8 
L 163.023812 -20.8 
L 162.957179 -20.8 
L 162.890545 -20.8 
L 162.823912 -20.8 
L 162.757279 -20.8 
L 162.690645 -20.8 
L 162.624012 -20.8 
L 162.557379 -20.8 
L 162.490745 -20.8 
L 162.424112 -20.8 
L 162.357479 -20.8 
L 162.290845 -20.8 
L 162.224212 -20.8 
L 162.157579 -20.8 
L 162.090945 -20.8 
L 162.024312 -20.8 
L 161.957679 -20.8 
L 161.891046 -20.8 
L 161.824412 -20.8 
L 161.757779 -20.8 
L 161.691146 -20.8 
L 161.624512 -20.8 
L 161.557879 -20.8 
L 161.491246 -20.8 
L 161.424612 -20.8 
L 161.357979 -20.8 
L 161.291346 -20.8 
L 161.224712 -20.8 
L 161.158079 -20.8 
L 161.091446 -20.8 
L 161.024812 -20.8 
L 160.958179 -20.8 
L 160.891546 -20.8 
L 160.824912 -20.8 
L 160.758279 -20.8 
L 160.691646 -20.8 
L 160.625013 -20.8 
L 160.558379 -20.8 
L 160.491746 -20.8 
L 160.425113 -20.8 
L 160.358479 -20.8 
L 160.291846 -20.8 
L 160.225213 -20.8 
L 160.158579 -20.8 
L 160.091946 -20.8 
L 160.025313 -20.8 
L 159.958679 -20.8 
L 159.892046 -20.8 
L 159.825413 -20.8 
L 159.758779 -20.8 
L 159.692146 -20.8 
L 159.625513 -20.8 
L 159.558879 -20.8 
L 159.492246 -20.8 
L 159.425613 -20.8 
L 159.358979 -20.8 
L 159.292346 -20.8 
L 159.225713 -20.8 
L 159.15908 -20.8 
L 159.092446 -20.8 
L 159.025813 -20.8 
L 158.95918 -20.8 
L 158.892546 -20.8 
L 158.825913 -20.8 
L 158.75928 -20.8 
L 158.692646 -20.8 
L 158.626013 -20.8 
L 158.55938 -20.8 
L 158.492746 -20.8 
L 158.426113 -20.8 
L 158.35948 -20.8 
L 158.292846 -20.8 
L 158.226213 -20.8 
L 158.15958 -20.8 
L 158.092946 -20.8 
L 158.026313 -20.8 
L 157.95968 -20.8 
L 157.893047 -20.8 
L 157.826413 -20.8 
L 157.75978 -20.8 
L 157.693147 -20.8 
L 157.626513 -20.8 
L 157.55988 -20.8 
L 157.493247 -20.8 
L 157.426613 -20.8 
L 157.35998 -20.8 
L 157.293347 -20.8 
L 157.226713 -20.8 
L 157.16008 -20.8 
L 157.093447 -20.8 
L 157.026813 -20.8 
L 156.96018 -20.8 
L 156.893547 -20.8 
L 156.826913 -20.8 
L 156.76028 -20.8 
L 156.693647 -20.8 
L 156.627014 -20.8 
L 156.56038 -20.8 
L 156.493747 -20.8 
L 156.427114 -20.8 
L 156.36048 -20.8 
L 156.293847 -20.8 
L 156.227214 -20.8 
L 156.16058 -20.8 
L 156.093947 -20.8 
L 156.027314 -20.8 
L 155.96068 -20.8 
L 155.894047 -20.8 
L 155.827414 -20.8 
L 155.76078 -20.8 
L 155.694147 -20.8 
L 155.627514 -20.8 
L 155.56088 -20.8 
L 155.494247 -20.8 
L 155.427614 -20.8 
L 155.36098 -20.8 
L 155.294347 -20.8 
L 155.227714 -20.8 
L 155.161081 -20.8 
L 155.094447 -20.8 
L 155.027814 -20.8 
L 154.961181 -20.8 
L 154.894547 -20.8 
L 154.827914 -20.8 
L 154.761281 -20.8 
L 154.694647 -20.8 
L 154.628014 -20.8 
L 154.561381 -20.8 
L 154.494747 -20.8 
L 154.428114 -20.8 
L 154.361481 -20.8 
L 154.294847 -20.8 
L 154.228214 -20.8 
L 154.161581 -20.8 
L 154.094947 -20.8 
L 154.028314 -20.8 
L 153.961681 -20.8 
L 153.895048 -20.8 
L 153.828414 -20.8 
L 153.761781 -20.8 
L 153.695148 -20.8 
L 153.628514 -20.8 
L 153.561881 -20.8 
L 153.495248 -20.8 
L 153.428614 -20.8 
L 153.361981 -20.8 
L 153.295348 -20.8 
L 153.228714 -20.8 
L 153.162081 -20.8 
L 153.095448 -20.8 
L 153.028814 -20.8 
L 152.962181 -20.8 
L 152.895548 -20.8 
L 152.828914 -20.8 
L 152.762281 -20.8 
L 152.695648 -20.8 
L 152.629015 -20.8 
L 152.562381 -20.8 
L 152.495748 -20.8 
L 152.429115 -20.8 
L 152.362481 -20.8 
L 152.295848 -20.8 
L 152.229215 -20.8 
L 152.162581 -20.8 
L 152.095948 -20.8 
L 152.029315 -20.8 
L 151.962681 -20.8 
L 151.896048 -20.8 
L 151.829415 -20.8 
L 151.762781 -20.8 
L 151.696148 -20.8 
L 151.629515 -20.8 
L 151.562881 -20.8 
L 151.496248 -20.8 
L 151.429615 -20.8 
L 151.362981 -20.8 
L 151.296348 -20.8 
L 151.229715 -20.8 
L 151.163082 -20.8 
L 151.096448 -20.8 
L 151.029815 -20.8 
L 150.963182 -20.8 
L 150.896548 -20.8 
L 150.829915 -20.8 
L 150.763282 -20.8 
L 150.696648 -20.8 
L 150.630015 -20.8 
L 150.563382 -20.8 
L 150.496748 -20.8 
L 150.430115 -20.8 
L 150.363482 -20.8 
L 150.296848 -20.8 
L 150.230215 -20.8 
L 150.163582 -20.8 
L 150.096948 -20.8 
L 150.030315 -20.8 
L 149.963682 -20.8 
L 149.897049 -20.8 
L 149.830415 -20.8 
L 149.763782 -20.8 
L 149.697149 -20.8 
L 149.630515 -20.8 
L 149.563882 -20.8 
L 149.497249 -20.8 
L 149.430615 -20.8 
L 149.363982 -20.8 
L 149.297349 -20.8 
L 149.230715 -20.8 
L 149.164082 -20.8 
L 149.097449 -20.8 
L 149.030815 -20.8 
L 148.964182 -20.8 
L 148.897549 -20.8 
L 148.830915 -20.8 
L 148.764282 -20.8 
L 148.697649 -20.8 
L 148.631016 -20.8 
L 148.564382 -20.8 
L 148.497749 -20.8 
L 148.431116 -20.8 
L 148.364482 -20.8 
L 148.297849 -20.8 
L 148.231216 -20.8 
L 148.164582 -20.8 
L 148.097949 -20.8 
L 148.031316 -20.8 
L 147.964682 -20.8 
L 147.898049 -20.8 
L 147.831416 -20.8 
L 147.764782 -20.8 
L 147.698149 -20.8 
L 147.631516 -20.8 
L 147.564882 -20.8 
L 147.498249 -20.8 
L 147.431616 -20.8 
L 147.364982 -20.8 
L 147.298349 -20.8 
L 147.231716 -20.8 
L 147.165083 -20.8 
L 147.098449 -20.8 
L 147.031816 -20.8 
L 146.965183 -20.8 
L 146.898549 -20.8 
L 146.831916 -20.8 
L 146.765283 -20.8 
L 146.698649 -20.8 
L 146.632016 -20.8 
L 146.565383 -20.8 
L 146.498749 -20.8 
L 146.432116 -20.8 
L 146.365483 -20.8 
L 146.298849 -20.8 
L 146.232216 -20.8 
L 146.165583 -20.8 
L 146.098949 -20.8 
L 146.032316 -20.8 
L 145.965683 -20.8 
L 145.89905 -20.8 
L 145.832416 -20.8 
L 145.765783 -20.8 
L 145.69915 -20.8 
L 145.632516 -20.8 
L 145.565883 -20.8 
L 145.49925 -20.8 
L 145.432616 -20.8 
L 145.365983 -20.8 
L 145.29935 -20.8 
L 145.232716 -20.8 
L 145.166083 -20.8 
L 145.09945 -20.8 
L 145.032816 -20.8 
L 144.966183 -20.8 
L 144.89955 -20.8 
L 144.832916 -20.8 
L 144.766283 -20.8 
L 144.69965 -20.8 
L 144.633017 -20.8 
L 144.566383 -20.8 
L 144.49975 -20.8 
L 144.433117 -20.8 
L 144.366483 -20.8 
L 144.29985 -20.8 
L 144.233217 -20.8 
L 144.166583 -20.8 
L 144.09995 -20.8 
L 144.033317 -20.8 
L 143.966683 -20.8 
L 143.90005 -20.8 
L 143.833417 -20.8 
L 143.766783 -20.8 
L 143.70015 -20.8 
L 143.633517 -20.8 
L 143.566883 -20.8 
L 143.50025 -20.8 
L 143.433617 -20.8 
L 143.366983 -20.8 
L 143.30035 -20.8 
L 143.233717 -20.8 
L 143.167084 -20.8 
L 143.10045 -20.8 
L 143.033817 -20.8 
L 142.967184 -20.8 
L 142.90055 -20.8 
L 142.833917 -20.8 
L 142.767284 -20.8 
L 142.70065 -20.8 
L 142.634017 -20.8 
L 142.567384 -20.8 
L 142.50075 -20.8 
L 142.434117 -20.8 
L 142.367484 -20.8 
L 142.30085 -20.8 
L 142.234217 -20.8 
L 142.167584 -20.8 
L 142.10095 -20.8 
L 142.034317 -20.8 
L 141.967684 -20.8 
L 141.901051 -20.8 
L 141.834417 -20.8 
L 141.767784 -20.8 
L 141.701151 -20.8 
L 141.634517 -20.8 
L 141.567884 -20.8 
L 141.501251 -20.8 
L 141.434617 -20.8 
L 141.367984 -20.8 
L 141.301351 -20.8 
L 141.234717 -20.8 
L 141.168084 -20.8 
L 141.101451 -20.8 
L 141.034817 -20.8 
L 140.968184 -20.8 
L 140.901551 -20.8 
L 140.834917 -20.8 
L 140.768284 -20.8 
L 140.701651 -20.8 
L 140.635018 -20.8 
L 140.568384 -20.8 
L 140.501751 -20.8 
L 140.435118 -20.8 
L 140.368484 -20.8 
L 140.301851 -20.8 
L 140.235218 -20.8 
L 140.168584 -20.8 
L 140.101951 -20.8 
L 140.035318 -20.8 
L 139.968684 -20.8 
L 139.902051 -20.8 
L 139.835418 -20.8 
L 139.768784 -20.8 
L 139.702151 -20.8 
L 139.635518 -20.8 
L 139.568884 -20.8 
L 139.502251 -20.8 
L 139.435618 -20.8 
L 139.368984 -20.8 
L 139.302351 -20.8 
L 139.235718 -20.8 
L 139.169085 -20.8 
L 139.102451 -20.8 
L 139.035818 -20.8 
L 138.969185 -20.8 
L 138.902551 -20.8 
L 138.835918 -20.8 
L 138.769285 -20.8 
L 138.702651 -20.8 
L 138.636018 -20.8 
L 138.569385 -20.8 
L 138.502751 -20.8 
L 138.436118 -20.8 
L 138.369485 -20.8 
L 138.302851 -20.8 
L 138.236218 -20.8 
L 138.169585 -20.8 
L 138.102951 -20.8 
L 138.036318 -20.8 
L 137.969685 -20.8 
L 137.903052 -20.8 
L 137.836418 -20.8 
L 137.769785 -20.8 
L 137.703152 -20.8 
L 137.636518 -20.8 
L 137.569885 -20.8 
L 137.503252 -20.8 
L 137.436618 -20.8 
L 137.369985 -20.8 
L 137.303352 -20.8 
L 137.236718 -20.8 
L 137.170085 -20.8 
L 137.103452 -20.8 
L 137.036818 -20.8 
L 136.970185 -20.8 
L 136.903552 -20.8 
L 136.836918 -20.8 
L 136.770285 -20.8 
L 136.703652 -20.8 
L 136.637019 -20.8 
L 136.570385 -20.8 
L 136.503752 -20.8 
L 136.437119 -20.8 
L 136.370485 -20.8 
L 136.303852 -20.8 
L 136.237219 -20.8 
L 136.170585 -20.8 
L 136.103952 -20.8 
L 136.037319 -20.8 
L 135.970685 -20.8 
L 135.904052 -20.8 
L 135.837419 -20.8 
L 135.770785 -20.8 
L 135.704152 -20.8 
L 135.637519 -20.8 
L 135.570885 -20.8 
L 135.504252 -20.8 
L 135.437619 -20.8 
L 135.370985 -20.8 
L 135.304352 -20.8 
L 135.237719 -20.8 
L 135.171086 -20.8 
L 135.104452 -20.8 
L 135.037819 -20.8 
L 134.971186 -20.8 
L 134.904552 -20.8 
L 134.837919 -20.8 
L 134.771286 -20.8 
L 134.704652 -20.8 
L 134.638019 -20.8 
L 134.571386 -20.8 
L 134.504752 -20.8 
L 134.438119 -20.8 
L 134.371486 -20.8 
L 134.304852 -20.8 
L 134.238219 -20.8 
L 134.171586 -20.8 
L 134.104952 -20.8 
L 134.038319 -20.8 
L 133.971686 -20.8 
L 133.905053 -20.8 
L 133.838419 -20.8 
L 133.771786 -20.8 
L 133.705153 -20.8 
L 133.638519 -20.8 
L 133.571886 -20.8 
L 133.505253 -20.8 
L 133.438619 -20.8 
L 133.371986 -20.8 
L 133.305353 -20.8 
L 133.238719 -20.8 
L 133.172086 -20.8 
L 133.105453 -20.8 
L 133.038819 -20.8 
L 132.972186 -20.8 
L 132.905553 -20.8 
L 132.838919 -20.8 
L 132.772286 -20.8 
L 132.705653 -20.8 
L 132.63902 -20.8 
L 132.572386 -20.8 
L 132.505753 -20.8 
L 132.43912 -20.8 
L 132.372486 -20.8 
L 132.305853 -20.8 
L 132.23922 -20.8 
L 132.172586 -20.8 
L 132.105953 -20.8 
L 132.03932 -20.8 
L 131.972686 -20.8 
L 131.906053 -20.8 
L 131.83942 -20.8 
L 131.772786 -20.8 
L 131.706153 -20.8 
L 131.63952 -20.8 
L 131.572886 -20.8 
L 131.506253 -20.8 
L 131.43962 -20.8 
L 131.372986 -20.8 
L 131.306353 -20.8 
L 131.23972 -20.8 
L 131.173087 -20.8 
L 131.106453 -20.8 
L 131.03982 -20.8 
L 130.973187 -20.8 
L 130.906553 -20.8 
L 130.83992 -20.8 
L 130.773287 -20.8 
L 130.706653 -20.8 
L 130.64002 -20.8 
L 130.573387 -20.8 
L 130.506753 -20.8 
L 130.44012 -20.8 
L 130.373487 -20.8 
L 130.306853 -20.8 
L 130.24022 -20.8 
L 130.173587 -20.8 
L 130.106953 -20.8 
L 130.04032 -20.8 
L 129.973687 -20.8 
L 129.907054 -20.8 
L 129.84042 -20.8 
L 129.773787 -20.8 
L 129.707154 -20.8 
L 129.64052 -20.8 
L 129.573887 -20.8 
L 129.507254 -20.8 
L 129.44062 -20.8 
L 129.373987 -20.8 
L 129.307354 -20.8 
L 129.24072 -20.8 
L 129.174087 -20.8 
L 129.107454 -20.8 
L 129.04082 -20.8 
L 128.974187 -20.8 
L 128.907554 -20.8 
L 128.84092 -20.8 
L 128.774287 -20.8 
L 128.707654 -20.8 
L 128.641021 -20.8 
L 128.574387 -20.8 
L 128.507754 -20.8 
L 128.441121 -20.8 
L 128.374487 -20.8 
L 128.307854 -20.8 
L 128.241221 -20.8 
L 128.174587 -20.8 
L 128.107954 -20.8 
L 128.041321 -20.8 
L 127.974687 -20.8 
L 127.908054 -20.8 
L 127.841421 -20.8 
L 127.774787 -20.8 
L 127.708154 -20.8 
L 127.641521 -20.8 
L 127.574887 -20.8 
L 127.508254 -20.8 
L 127.441621 -20.8 
L 127.374987 -20.8 
L 127.308354 -20.8 
L 127.241721 -20.8 
L 127.175088 -20.8 
L 127.108454 -20.8 
L 127.041821 -20.8 
L 126.975188 -20.8 
L 126.908554 -20.8 
L 126.841921 -20.8 
L 126.775288 -20.8 
L 126.708654 -20.8 
L 126.642021 -20.8 
L 126.575388 -20.8 
L 126.508754 -20.8 
L 126.442121 -20.8 
L 126.375488 -20.8 
L 126.308854 -20.8 
L 126.242221 -20.8 
L 126.175588 -20.8 
L 126.108954 -20.8 
L 126.042321 -20.8 
L 125.975688 -20.8 
L 125.909055 -20.8 
L 125.842421 -20.8 
L 125.775788 -20.8 
L 125.709155 -20.8 
L 125.642521 -20.8 
L 125.575888 -20.8 
L 125.509255 -20.8 
L 125.442621 -20.8 
L 125.375988 -20.8 
L 125.309355 -20.8 
L 125.242721 -20.8 
L 125.176088 -20.8 
L 125.109455 -20.8 
L 125.042821 -20.8 
L 124.976188 -20.8 
L 124.909555 -20.8 
L 124.842921 -20.8 
L 124.776288 -20.8 
L 124.709655 -20.8 
L 124.643022 -20.8 
L 124.576388 -20.8 
L 124.509755 -20.8 
L 124.443122 -20.8 
L 124.376488 -20.8 
L 124.309855 -20.8 
L 124.243222 -20.8 
L 124.176588 -20.8 
L 124.109955 -20.8 
L 124.043322 -20.8 
L 123.976688 -20.8 
L 123.910055 -20.8 
L 123.843422 -20.8 
L 123.776788 -20.8 
L 123.710155 -20.8 
L 123.643522 -20.8 
L 123.576888 -20.8 
L 123.510255 -20.8 
L 123.443622 -20.8 
L 123.376988 -20.8 
L 123.310355 -20.8 
L 123.243722 -20.8 
L 123.177089 -20.8 
L 123.110455 -20.8 
L 123.043822 -20.8 
L 122.977189 -20.8 
L 122.910555 -20.8 
L 122.843922 -20.8 
L 122.777289 -20.8 
L 122.710655 -20.8 
L 122.644022 -20.8 
L 122.577389 -20.8 
L 122.510755 -20.8 
L 122.444122 -20.8 
L 122.377489 -20.8 
L 122.310855 -20.8 
L 122.244222 -20.8 
L 122.177589 -20.8 
L 122.110955 -20.8 
L 122.044322 -20.8 
L 121.977689 -20.8 
L 121.911056 -20.8 
L 121.844422 -20.8 
L 121.777789 -20.8 
L 121.711156 -20.8 
L 121.644522 -20.8 
L 121.577889 -20.8 
L 121.511256 -20.8 
L 121.444622 -20.8 
L 121.377989 -20.8 
L 121.311356 -20.8 
L 121.244722 -20.8 
L 121.178089 -20.8 
L 121.111456 -20.8 
L 121.044822 -20.8 
L 120.978189 -20.8 
L 120.911556 -20.8 
L 120.844922 -20.8 
L 120.778289 -20.8 
L 120.711656 -20.8 
L 120.645023 -20.8 
L 120.578389 -20.8 
L 120.511756 -20.8 
L 120.445123 -20.8 
L 120.378489 -20.8 
L 120.311856 -20.8 
L 120.245223 -20.8 
L 120.178589 -20.8 
L 120.111956 -20.8 
L 120.045323 -20.8 
L 119.978689 -20.8 
L 119.912056 -20.8 
L 119.845423 -20.8 
L 119.778789 -20.8 
L 119.712156 -20.8 
L 119.645523 -20.8 
L 119.578889 -20.8 
L 119.512256 -20.8 
L 119.445623 -20.8 
L 119.378989 -20.8 
L 119.312356 -20.8 
L 119.245723 -20.8 
L 119.17909 -20.8 
L 119.112456 -20.8 
L 119.045823 -20.8 
L 118.97919 -20.8 
L 118.912556 -20.8 
L 118.845923 -20.8 
L 118.77929 -20.8 
L 118.712656 -20.8 
L 118.646023 -20.8 
L 118.57939 -20.8 
L 118.512756 -20.8 
L 118.446123 -20.8 
L 118.37949 -20.8 
L 118.312856 -20.8 
L 118.246223 -20.8 
L 118.17959 -20.8 
L 118.112956 -20.8 
L 118.046323 -20.8 
L 117.97969 -20.8 
L 117.913057 -20.8 
L 117.846423 -20.8 
L 117.77979 -20.8 
L 117.713157 -20.8 
L 117.646523 -20.8 
L 117.57989 -20.8 
L 117.513257 -20.8 
L 117.446623 -20.8 
L 117.37999 -20.8 
L 117.313357 -20.8 
L 117.246723 -20.8 
L 117.18009 -20.8 
L 117.113457 -20.8 
L 117.046823 -20.8 
L 116.98019 -20.8 
L 116.913557 -20.8 
L 116.846923 -20.8 
L 116.78029 -20.8 
L 116.713657 -20.8 
L 116.647024 -20.8 
L 116.58039 -20.8 
L 116.513757 -20.8 
L 116.447124 -20.8 
L 116.38049 -20.8 
L 116.313857 -20.8 
L 116.247224 -20.8 
L 116.18059 -20.8 
L 116.113957 -20.8 
L 116.047324 -20.8 
L 115.98069 -20.8 
L 115.914057 -20.8 
L 115.847424 -20.8 
L 115.78079 -20.8 
L 115.714157 -20.8 
L 115.647524 -20.8 
L 115.58089 -20.8 
L 115.514257 -20.8 
L 115.447624 -20.8 
L 115.38099 -20.8 
L 115.314357 -20.8 
L 115.247724 -20.8 
L 115.181091 -20.8 
L 115.114457 -20.8 
L 115.047824 -20.8 
L 114.981191 -20.8 
L 114.914557 -20.8 
L 114.847924 -20.8 
L 114.781291 -20.8 
L 114.714657 -20.8 
L 114.648024 -20.8 
L 114.581391 -20.8 
L 114.514757 -20.8 
L 114.448124 -20.8 
L 114.381491 -20.8 
L 114.314857 -20.8 
L 114.248224 -20.8 
L 114.181591 -20.8 
L 114.114957 -20.8 
L 114.048324 -20.8 
L 113.981691 -20.8 
L 113.915058 -20.8 
L 113.848424 -20.8 
L 113.781791 -20.8 
L 113.715158 -20.8 
L 113.648524 -20.8 
L 113.581891 -20.8 
L 113.515258 -20.8 
L 113.448624 -20.8 
L 113.381991 -20.8 
L 113.315358 -20.8 
L 113.248724 -20.8 
L 113.182091 -20.8 
L 113.115458 -20.8 
L 113.048824 -20.8 
L 112.982191 -20.8 
L 112.915558 -20.8 
L 112.848924 -20.8 
L 112.782291 -20.8 
L 112.715658 -20.8 
L 112.649025 -20.8 
L 112.582391 -20.8 
L 112.515758 -20.8 
L 112.449125 -20.8 
L 112.382491 -20.8 
L 112.315858 -20.8 
L 112.249225 -20.8 
L 112.182591 -20.8 
L 112.115958 -20.8 
L 112.049325 -20.8 
L 111.982691 -20.8 
L 111.916058 -20.8 
L 111.849425 -20.8 
L 111.782791 -20.8 
L 111.716158 -20.8 
L 111.649525 -20.8 
L 111.582891 -20.8 
L 111.516258 -20.8 
L 111.449625 -20.8 
L 111.382991 -20.8 
L 111.316358 -20.8 
L 111.249725 -20.8 
L 111.183092 -20.8 
L 111.116458 -20.8 
L 111.049825 -20.8 
L 110.983192 -20.8 
L 110.916558 -20.8 
L 110.849925 -20.8 
L 110.783292 -20.8 
L 110.716658 -20.8 
L 110.650025 -20.8 
L 110.583392 -20.8 
L 110.516758 -20.8 
L 110.450125 -20.8 
L 110.383492 -20.8 
L 110.316858 -20.8 
L 110.250225 -20.8 
L 110.183592 -20.8 
L 110.116958 -20.8 
L 110.050325 -20.8 
L 109.983692 -20.8 
L 109.917059 -20.8 
L 109.850425 -20.8 
L 109.783792 -20.8 
L 109.717159 -20.8 
L 109.650525 -20.8 
L 109.583892 -20.8 
L 109.517259 -20.8 
L 109.450625 -20.8 
L 109.383992 -20.8 
L 109.317359 -20.8 
L 109.250725 -20.8 
L 109.184092 -20.8 
L 109.117459 -20.8 
L 109.050825 -20.8 
L 108.984192 -20.8 
L 108.917559 -20.8 
L 108.850925 -20.8 
L 108.784292 -20.8 
L 108.717659 -20.8 
L 108.651026 -20.8 
L 108.584392 -20.8 
L 108.517759 -20.8 
L 108.451126 -20.8 
L 108.384492 -20.8 
L 108.317859 -20.8 
L 108.251226 -20.8 
L 108.184592 -20.8 
L 108.117959 -20.8 
L 108.051326 -20.8 
L 107.984692 -20.8 
L 107.918059 -20.8 
L 107.851426 -20.8 
L 107.784792 -20.8 
L 107.718159 -20.8 
L 107.651526 -20.8 
L 107.584892 -20.8 
L 107.518259 -20.8 
L 107.451626 -20.8 
L 107.384992 -20.8 
L 107.318359 -20.8 
L 107.251726 -20.8 
L 107.185093 -20.8 
L 107.118459 -20.8 
L 107.051826 -20.8 
L 106.985193 -20.8 
L 106.918559 -20.8 
L 106.851926 -20.8 
L 106.785293 -20.8 
L 106.718659 -20.8 
L 106.652026 -20.8 
L 106.585393 -20.8 
L 106.518759 -20.8 
L 106.452126 -20.8 
L 106.385493 -20.8 
L 106.318859 -20.8 
L 106.252226 -20.8 
L 106.185593 -20.8 
L 106.118959 -20.8 
L 106.052326 -20.8 
L 105.985693 -20.8 
L 105.91906 -20.8 
L 105.852426 -20.8 
L 105.785793 -20.8 
L 105.71916 -20.8 
L 105.652526 -20.8 
L 105.585893 -20.8 
L 105.51926 -20.8 
L 105.452626 -20.8 
L 105.385993 -20.8 
L 105.31936 -20.8 
L 105.252726 -20.8 
L 105.186093 -20.8 
L 105.11946 -20.8 
L 105.052826 -20.8 
L 104.986193 -20.8 
L 104.91956 -20.8 
L 104.852926 -20.8 
L 104.786293 -20.8 
L 104.71966 -20.8 
L 104.653027 -20.8 
L 104.586393 -20.8 
L 104.51976 -20.8 
L 104.453127 -20.8 
L 104.386493 -20.8 
L 104.31986 -20.8 
L 104.253227 -20.8 
L 104.186593 -20.8 
L 104.11996 -20.8 
L 104.053327 -20.8 
L 103.986693 -20.8 
L 103.92006 -20.8 
L 103.853427 -20.8 
L 103.786793 -20.8 
L 103.72016 -20.8 
L 103.653527 -20.8 
L 103.586893 -20.8 
L 103.52026 -20.8 
L 103.453627 -20.8 
L 103.386993 -20.8 
L 103.32036 -20.8 
L 103.253727 -20.8 
L 103.187094 -20.8 
L 103.12046 -20.8 
L 103.053827 -20.8 
L 102.987194 -20.8 
L 102.92056 -20.8 
L 102.853927 -20.8 
L 102.787294 -20.8 
L 102.72066 -20.8 
L 102.654027 -20.8 
L 102.587394 -20.8 
L 102.52076 -20.8 
L 102.454127 -20.8 
L 102.387494 -20.8 
L 102.32086 -20.8 
L 102.254227 -20.8 
L 102.187594 -20.8 
L 102.12096 -20.8 
L 102.054327 -20.8 
L 101.987694 -20.8 
L 101.921061 -20.8 
L 101.854427 -20.8 
L 101.787794 -20.8 
L 101.721161 -20.8 
L 101.654527 -20.8 
L 101.587894 -20.8 
L 101.521261 -20.8 
L 101.454627 -20.8 
L 101.387994 -20.8 
L 101.321361 -20.8 
L 101.254727 -20.8 
L 101.188094 -20.8 
L 101.121461 -20.8 
L 101.054827 -20.8 
L 100.988194 -20.8 
L 100.921561 -20.8 
L 100.854927 -20.8 
L 100.788294 -20.8 
L 100.721661 -20.8 
L 100.655028 -20.8 
L 100.588394 -20.8 
L 100.521761 -20.8 
L 100.455128 -20.8 
L 100.388494 -20.8 
L 100.321861 -20.8 
L 100.255228 -20.8 
L 100.188594 -20.8 
L 100.121961 -20.8 
L 100.055328 -20.8 
L 99.988694 -20.8 
L 99.922061 -20.8 
L 99.855428 -20.8 
L 99.788794 -20.8 
L 99.722161 -20.8 
L 99.655528 -20.8 
L 99.588894 -20.8 
L 99.522261 -20.8 
L 99.455628 -20.8 
L 99.388994 -20.8 
L 99.322361 -20.8 
L 99.255728 -20.8 
L 99.189095 -20.8 
L 99.122461 -20.8 
L 99.055828 -20.8 
L 98.989195 -20.8 
L 98.922561 -20.8 
L 98.855928 -20.8 
L 98.789295 -20.8 
L 98.722661 -20.8 
L 98.656028 -20.8 
L 98.589395 -20.8 
L 98.522761 -20.8 
L 98.456128 -20.8 
L 98.389495 -20.8 
L 98.322861 -20.8 
L 98.256228 -20.8 
L 98.189595 -20.8 
L 98.122961 -20.8 
L 98.056328 -20.8 
L 97.989695 -20.8 
L 97.923062 -20.8 
L 97.856428 -20.8 
L 97.789795 -20.8 
L 97.723162 -20.8 
L 97.656528 -20.8 
L 97.589895 -20.8 
L 97.523262 -20.8 
L 97.456628 -20.8 
L 97.389995 -20.8 
L 97.323362 -20.8 
L 97.256728 -20.8 
L 97.190095 -20.8 
L 97.123462 -20.8 
L 97.056828 -20.8 
L 96.990195 -20.8 
L 96.923562 -20.8 
L 96.856928 -20.8 
L 96.790295 -20.8 
L 96.723662 -20.8 
L 96.657029 -20.8 
L 96.590395 -20.8 
L 96.523762 -20.8 
L 96.457129 -20.8 
L 96.390495 -20.8 
L 96.323862 -20.8 
L 96.257229 -20.8 
L 96.190595 -20.8 
L 96.123962 -20.8 
L 96.057329 -20.8 
L 95.990695 -20.8 
L 95.924062 -20.8 
L 95.857429 -20.8 
L 95.790795 -20.8 
L 95.724162 -20.8 
L 95.657529 -20.8 
L 95.590895 -20.8 
L 95.524262 -20.8 
L 95.457629 -20.8 
L 95.390995 -20.8 
L 95.324362 -20.8 
L 95.257729 -20.8 
L 95.191096 -20.8 
L 95.124462 -20.8 
L 95.057829 -20.8 
L 94.991196 -20.8 
L 94.924562 -20.8 
L 94.857929 -20.8 
L 94.791296 -20.8 
L 94.724662 -20.8 
L 94.658029 -20.8 
L 94.591396 -20.8 
L 94.524762 -20.8 
L 94.458129 -20.8 
L 94.391496 -20.8 
L 94.324862 -20.8 
L 94.258229 -20.8 
L 94.191596 -20.8 
L 94.124962 -20.8 
L 94.058329 -20.8 
L 93.991696 -20.8 
L 93.925063 -20.8 
L 93.858429 -20.8 
L 93.791796 -20.8 
L 93.725163 -20.8 
L 93.658529 -20.8 
L 93.591896 -20.8 
L 93.525263 -20.8 
L 93.458629 -20.8 
L 93.391996 -20.8 
L 93.325363 -20.8 
L 93.258729 -20.8 
L 93.192096 -20.8 
L 93.125463 -20.8 
L 93.058829 -20.8 
L 92.992196 -20.8 
L 92.925563 -20.8 
L 92.858929 -20.8 
L 92.792296 -20.8 
L 92.725663 -20.8 
L 92.65903 -20.8 
L 92.592396 -20.8 
L 92.525763 -20.8 
L 92.45913 -20.8 
L 92.392496 -20.8 
L 92.325863 -20.8 
L 92.25923 -20.8 
L 92.192596 -20.8 
L 92.125963 -20.8 
L 92.05933 -20.8 
L 91.992696 -20.8 
L 91.926063 -20.8 
L 91.85943 -20.8 
L 91.792796 -20.8 
L 91.726163 -20.8 
L 91.65953 -20.8 
L 91.592896 -20.8 
L 91.526263 -20.8 
L 91.45963 -20.8 
L 91.392996 -20.8 
L 91.326363 -20.8 
L 91.25973 -20.8 
L 91.193097 -20.8 
L 91.126463 -20.8 
L 91.05983 -20.8 
L 90.993197 -20.8 
L 90.926563 -20.8 
L 90.85993 -20.8 
L 90.793297 -20.8 
L 90.726663 -20.8 
L 90.66003 -20.8 
L 90.593397 -20.8 
L 90.526763 -20.8 
L 90.46013 -20.8 
L 90.393497 -20.8 
L 90.326863 -20.8 
L 90.26023 -20.8 
L 90.193597 -20.8 
L 90.126963 -20.8 
L 90.06033 -20.8 
L 89.993697 -20.8 
L 89.927064 -20.8 
L 89.86043 -20.8 
L 89.793797 -20.8 
L 89.727164 -20.8 
L 89.66053 -20.8 
L 89.593897 -20.8 
L 89.527264 -20.8 
L 89.46063 -20.8 
L 89.393997 -20.8 
L 89.327364 -20.8 
L 89.26073 -20.8 
L 89.194097 -20.8 
L 89.127464 -20.8 
L 89.06083 -20.8 
L 88.994197 -20.8 
L 88.927564 -20.8 
L 88.86093 -20.8 
L 88.794297 -20.8 
L 88.727664 -20.8 
L 88.661031 -20.8 
L 88.594397 -20.8 
L 88.527764 -20.8 
L 88.461131 -20.8 
L 88.394497 -20.8 
L 88.327864 -20.8 
L 88.261231 -20.8 
L 88.194597 -20.8 
L 88.127964 -20.8 
L 88.061331 -20.8 
L 87.994697 -20.8 
L 87.928064 -20.8 
L 87.861431 -20.8 
L 87.794797 -20.8 
L 87.728164 -20.8 
L 87.661531 -20.8 
L 87.594897 -20.8 
L 87.528264 -20.8 
L 87.461631 -20.8 
L 87.394997 -20.8 
L 87.328364 -20.8 
L 87.261731 -20.8 
L 87.195098 -20.8 
L 87.128464 -20.8 
L 87.061831 -20.8 
L 86.995198 -20.8 
L 86.928564 -20.8 
L 86.861931 -20.8 
L 86.795298 -20.8 
L 86.728664 -20.8 
L 86.662031 -20.8 
L 86.595398 -20.8 
L 86.528764 -20.8 
L 86.462131 -20.8 
L 86.395498 -20.8 
L 86.328864 -20.8 
L 86.262231 -20.8 
L 86.195598 -20.8 
L 86.128964 -20.8 
L 86.062331 -20.8 
L 85.995698 -20.8 
L 85.929065 -20.8 
L 85.862431 -20.8 
L 85.795798 -20.8 
L 85.729165 -20.8 
L 85.662531 -20.8 
L 85.595898 -20.8 
L 85.529265 -20.8 
L 85.462631 -20.8 
L 85.395998 -20.8 
L 85.329365 -20.8 
L 85.262731 -20.8 
L 85.196098 -20.8 
L 85.129465 -20.8 
L 85.062831 -20.8 
L 84.996198 -20.8 
L 84.929565 -20.8 
L 84.862931 -20.8 
L 84.796298 -20.8 
L 84.729665 -20.8 
L 84.663032 -20.8 
L 84.596398 -20.8 
L 84.529765 -20.8 
L 84.463132 -20.8 
L 84.396498 -20.8 
L 84.329865 -20.8 
L 84.263232 -20.8 
L 84.196598 -20.8 
L 84.129965 -20.8 
L 84.063332 -20.8 
L 83.996698 -20.8 
L 83.930065 -20.8 
L 83.863432 -20.8 
L 83.796798 -20.8 
L 83.730165 -20.8 
L 83.663532 -20.8 
L 83.596898 -20.8 
L 83.530265 -20.8 
L 83.463632 -20.8 
L 83.396998 -20.8 
L 83.330365 -20.8 
L 83.263732 -20.8 
L 83.197099 -20.8 
L 83.130465 -20.8 
L 83.063832 -20.8 
L 82.997199 -20.8 
L 82.930565 -20.8 
L 82.863932 -20.8 
L 82.797299 -20.8 
L 82.730665 -20.8 
L 82.664032 -20.8 
L 82.597399 -20.8 
L 82.530765 -20.8 
L 82.464132 -20.8 
L 82.397499 -20.8 
L 82.330865 -20.8 
L 82.264232 -20.8 
L 82.197599 -20.8 
L 82.130965 -20.8 
L 82.064332 -20.8 
L 81.997699 -20.8 
L 81.931066 -20.8 
L 81.864432 -20.8 
L 81.797799 -20.8 
L 81.731166 -20.8 
L 81.664532 -20.8 
L 81.597899 -20.8 
L 81.531266 -20.8 
L 81.464632 -20.8 
L 81.397999 -20.8 
L 81.331366 -20.8 
L 81.264732 -20.8 
L 81.198099 -20.8 
L 81.131466 -20.8 
L 81.064832 -20.8 
L 80.998199 -20.8 
L 80.931566 -20.8 
L 80.864932 -20.8 
L 80.798299 -20.8 
L 80.731666 -20.8 
L 80.665033 -20.8 
L 80.598399 -20.8 
L 80.531766 -20.8 
L 80.465133 -20.8 
L 80.398499 -20.8 
L 80.331866 -20.8 
L 80.265233 -20.8 
L 80.198599 -20.8 
L 80.131966 -20.8 
L 80.065333 -20.8 
L 79.998699 -20.8 
L 79.932066 -20.8 
L 79.865433 -20.8 
L 79.798799 -20.8 
L 79.732166 -20.8 
L 79.665533 -20.8 
L 79.598899 -20.8 
L 79.532266 -20.8 
L 79.465633 -20.8 
L 79.398999 -20.8 
L 79.332366 -20.8 
L 79.265733 -20.8 
L 79.1991 -20.8 
L 79.132466 -20.8 
L 79.065833 -20.8 
L 78.9992 -20.8 
L 78.932566 -20.8 
L 78.865933 -20.8 
L 78.7993 -20.8 
L 78.732666 -20.8 
L 78.666033 -20.8 
L 78.5994 -20.8 
L 78.532766 -20.8 
L 78.466133 -20.8 
L 78.3995 -20.8 
L 78.332866 -20.8 
L 78.266233 -20.8 
L 78.1996 -20.8 
L 78.132966 -20.8 
L 78.066333 -20.8 
L 77.9997 -20.8 
L 77.933067 -20.8 
L 77.866433 -20.8 
L 77.7998 -20.8 
L 77.733167 -20.8 
L 77.666533 -20.8 
L 77.5999 -20.8 
L 77.533267 -20.8 
L 77.466633 -20.8 
L 77.4 -20.8 
z
" style="stroke: #949494; stroke-opacity: 0.5"/>
    </defs>
    <g clip-path="url(#p143ea9c43c)">
     <use xlink:href="#m8125ffc360" x="0" y="288" style="fill: #949494; fill-opacity: 0.5; stroke: #949494; stroke-opacity: 0.5"/>
    </g>
   </g>
   <g id="patch_3">
    <path d="M 47.43 267.2 
L 107.37 267.2 
L 107.37 266.797198 
L 47.43 266.797198 
z
" clip-path="url(#p143ea9c43c)" style="fill: #0173b2; opacity: 0.8"/>
   </g>
   <g id="patch_4">
    <path d="M 114.03 267.2 
L 173.97 267.2 
L 173.97 219.019387 
L 114.03 219.019387 
z
" clip-path="url(#p143ea9c43c)" style="fill: #0173b2; opacity: 0.8"/>
   </g>
   <g id="patch_5">
    <path d="M 180.63 267.2 
L 240.57 267.2 
L 240.57 162.647223 
L 180.63 162.647223 
z
" clip-path="url(#p143ea9c43c)" style="fill: #de8f05; opacity: 0.8"/>
   </g>
   <g id="matplotlib.axis_1">
    <g id="xtick_1">
     <g id="line2d_1">
      <defs>
       <path id="m9eddb89ee8" d="M 0 0 
L 0 10 
" style="stroke: #000000; stroke-width: 4"/>
      </defs>
      <g>
       <use xlink:href="#m9eddb89ee8" x="77.4" y="267.2" style="stroke: #000000; stroke-width: 4"/>
      </g>
     </g>
    </g>
    <g id="xtick_2">
     <g id="line2d_2">
      <g>
       <use xlink:href="#m9eddb89ee8" x="144" y="267.2" style="stroke: #000000; stroke-width: 4"/>
      </g>
     </g>
    </g>
    <g id="xtick_3">
     <g id="line2d_3">
      <g>
       <use xlink:href="#m9eddb89ee8" x="210.6" y="267.2" style="stroke: #000000; stroke-width: 4"/>
      </g>
     </g>
    </g>
   </g>
   <g id="matplotlib.axis_2"/>
   <g id="patch_6">
    <path d="M 10.8 267.2 
L 10.8 10.8 
" style="fill: none; stroke: #000000; stroke-width: 4; stroke-linejoin: miter; stroke-linecap: square"/>
   </g>
   <g id="patch_7">
    <path d="M 10.8 267.2 
L 277.2 267.2 
" style="fill: none; stroke: #000000; stroke-width: 4; stroke-linejoin: miter; stroke-linecap: square"/>
   </g>
  </g>
 </g>
 <defs>
  <clipPath id="p143ea9c43c">
   <rect x="10.8" y="10.8" width="266.4" height="256.4"/>
  </clipPath>
 </defs>
</svg>
